<?xml version="1.0" encoding="UTF-8" standalone="no"?>
<!DOCTYPE svg PUBLIC "-//W3C//DTD SVG 1.1//EN"
 "http://www.w3.org/Graphics/SVG/1.1/DTD/svg11.dtd">
<!-- Generated by graphviz version 2.40.1 (20161225.0304)
 -->
<!-- Title: %3 Pages: 1 -->
<svg width="1386pt" height="908pt"
 viewBox="0.00 0.00 1386.17 908.00" xmlns="http://www.w3.org/2000/svg" xmlns:xlink="http://www.w3.org/1999/xlink">
<g id="graph0" class="graph" transform="scale(1 1) rotate(0) translate(4 904)">
<title>%3</title>
<polygon fill="#ffffff" stroke="transparent" points="-4,4 -4,-904 1382.1743,-904 1382.1743,4 -4,4"/>
<!-- 0 -->
<g id="node1" class="node">
<title>0</title>
<polygon fill="none" stroke="#000000" points="1378.0096,-684 1308.6701,-684 1308.6701,-648 1378.0096,-648 1378.0096,-684"/>
<text text-anchor="middle" x="1343.3398" y="-661.8" font-family="Times,serif" font-size="14.00" fill="#000000">NilStmt()</text>
</g>
<!-- 1 -->
<g id="node2" class="node">
<title>1</title>
<polygon fill="none" stroke="#000000" points="550.5196,-36 .1601,-36 .1601,0 550.5196,0 550.5196,-36"/>
<text text-anchor="middle" x="275.3398" y="-13.8" font-family="Times,serif" font-size="14.00" fill="#000000">While(*v, Block(ConsStmt(ExpStmt(*v), ConsStmt(Assign(Var(Name(&quot;x&quot;)), *v), NilStmt()))))</text>
</g>
<!-- 3 -->
<g id="node4" class="node">
<title>3</title>
<polygon fill="none" stroke="#000000" points="1340.8048,-900 147.8749,-900 147.8749,-864 1340.8048,-864 1340.8048,-900"/>
<text text-anchor="middle" x="744.3398" y="-877.8" font-family="Times,serif" font-size="14.00" fill="#000000">If(*v, ConsStmt(Block(ConsStmt(ExpStmt(*v), ConsStmt(Assign(Var(Name(&quot;x&quot;)), *v), NilStmt()))), While(*v, Block(ConsStmt(ExpStmt(*v), ConsStmt(Assign(Var(Name(&quot;x&quot;)), *v), NilStmt()))))), NilStmt())</text>
</g>
<!-- 1&#45;&gt;3 -->
<g id="edge1" class="edge">
<title>1&#45;&gt;3</title>
<path fill="none" stroke="#000000" d="M249.9502,-36.0208C218.591,-60.6017 169.3398,-107.8301 169.3398,-162 169.3398,-738 169.3398,-738 169.3398,-738 169.3398,-778.8816 157.8699,-800.744 188.3398,-828 205.5747,-843.4169 287.14,-854.8416 382.7099,-863.1089"/>
<polygon fill="#000000" stroke="#000000" points="382.6464,-866.616 392.9067,-863.9748 383.2388,-859.6411 382.6464,-866.616"/>
</g>
<!-- 2 -->
<g id="node3" class="node">
<title>2</title>
<polygon fill="none" stroke="#000000" points="1014.2539,-108 338.4258,-108 338.4258,-72 1014.2539,-72 1014.2539,-108"/>
<text text-anchor="middle" x="676.3398" y="-85.8" font-family="Times,serif" font-size="14.00" fill="#000000">ConsStmt(While(*v, Block(ConsStmt(ExpStmt(*v), ConsStmt(Assign(Var(Name(&quot;x&quot;)), *v), NilStmt())))), NilStmt())</text>
</g>
<!-- 2&#45;&gt;1 -->
<g id="edge2" class="edge">
<title>2&#45;&gt;1</title>
<path fill="none" stroke="#000000" d="M575.9267,-71.9707C518.1404,-61.5951 445.4359,-48.5409 386.006,-37.8702"/>
<polygon fill="#000000" stroke="#000000" points="386.2916,-34.3656 375.8305,-36.0432 385.0545,-41.2554 386.2916,-34.3656"/>
</g>
<!-- 14 -->
<g id="node15" class="node">
<title>14</title>
<polygon fill="none" stroke="#000000" points="1290.8965,-828 197.7832,-828 197.7832,-792 1290.8965,-792 1290.8965,-828"/>
<text text-anchor="middle" x="744.3398" y="-805.8" font-family="Times,serif" font-size="14.00" fill="#000000">ConsStmt(Block(ConsStmt(ExpStmt(*v), ConsStmt(Assign(Var(Name(&quot;x&quot;)), *v), NilStmt()))), While(*v, Block(ConsStmt(ExpStmt(*v), ConsStmt(Assign(Var(Name(&quot;x&quot;)), *v), NilStmt())))))</text>
</g>
<!-- 3&#45;&gt;14 -->
<g id="edge3" class="edge">
<title>3&#45;&gt;14</title>
<path fill="none" stroke="#000000" d="M744.3398,-863.8314C744.3398,-856.131 744.3398,-846.9743 744.3398,-838.4166"/>
<polygon fill="#000000" stroke="#000000" points="747.8399,-838.4132 744.3398,-828.4133 740.8399,-838.4133 747.8399,-838.4132"/>
</g>
<!-- 15 -->
<g id="node16" class="node">
<title>15</title>
<polygon fill="none" stroke="#000000" points="1378.0096,-828 1308.6701,-828 1308.6701,-792 1378.0096,-792 1378.0096,-828"/>
<text text-anchor="middle" x="1343.3398" y="-805.8" font-family="Times,serif" font-size="14.00" fill="#000000">NilStmt()</text>
</g>
<!-- 3&#45;&gt;15 -->
<g id="edge4" class="edge">
<title>3&#45;&gt;15</title>
<path fill="none" stroke="#000000" d="M1006.8476,-863.9902C1116.9924,-854.9702 1232.9862,-843.1731 1298.716,-827.9826"/>
<polygon fill="#000000" stroke="#000000" points="1299.5457,-831.3829 1308.4337,-825.6163 1297.8895,-824.5816 1299.5457,-831.3829"/>
</g>
<!-- 4 -->
<g id="node5" class="node">
<title>4</title>
<polygon fill="none" stroke="#000000" points="1378.0096,-756 1308.6701,-756 1308.6701,-720 1378.0096,-720 1378.0096,-756"/>
<text text-anchor="middle" x="1343.3398" y="-733.8" font-family="Times,serif" font-size="14.00" fill="#000000">NilStmt()</text>
</g>
<!-- 4&#45;&gt;0 -->
<g id="edge5" class="edge">
<title>4&#45;&gt;0</title>
<path fill="none" stroke="#000000" d="M1343.3398,-719.8314C1343.3398,-712.131 1343.3398,-702.9743 1343.3398,-694.4166"/>
<polygon fill="#000000" stroke="#000000" points="1346.8399,-694.4132 1343.3398,-684.4133 1339.8399,-694.4133 1346.8399,-694.4132"/>
</g>
<!-- 5 -->
<g id="node6" class="node">
<title>5</title>
<polygon fill="none" stroke="#000000" points="310.0096,-180 240.6701,-180 240.6701,-144 310.0096,-144 310.0096,-180"/>
<text text-anchor="middle" x="275.3398" y="-157.8" font-family="Times,serif" font-size="14.00" fill="#000000">NilStmt()</text>
</g>
<!-- 16 -->
<g id="node17" class="node">
<title>16</title>
<polygon fill="none" stroke="#000000" points="310.0096,-108 240.6701,-108 240.6701,-72 310.0096,-72 310.0096,-108"/>
<text text-anchor="middle" x="275.3398" y="-85.8" font-family="Times,serif" font-size="14.00" fill="#000000">NilStmt()</text>
</g>
<!-- 5&#45;&gt;16 -->
<g id="edge6" class="edge">
<title>5&#45;&gt;16</title>
<path fill="none" stroke="#000000" d="M275.3398,-143.8314C275.3398,-136.131 275.3398,-126.9743 275.3398,-118.4166"/>
<polygon fill="#000000" stroke="#000000" points="278.8399,-118.4132 275.3398,-108.4133 271.8399,-118.4133 278.8399,-118.4132"/>
</g>
<!-- 6 -->
<g id="node7" class="node">
<title>6</title>
<polygon fill="none" stroke="#000000" points="498.0011,-396 322.6786,-396 322.6786,-360 498.0011,-360 498.0011,-396"/>
<text text-anchor="middle" x="410.3398" y="-373.8" font-family="Times,serif" font-size="14.00" fill="#000000">Assign(Var(Name(&quot;x&quot;)), *v)</text>
</g>
<!-- 10 -->
<g id="node11" class="node">
<title>10</title>
<polygon fill="none" stroke="#000000" points="601.347,-324 211.3327,-324 211.3327,-288 601.347,-288 601.347,-324"/>
<text text-anchor="middle" x="406.3398" y="-301.8" font-family="Times,serif" font-size="14.00" fill="#000000">Assign(FieldAccess(ReferenceVal(HeapAddr(0)), Name(&quot;x&quot;)), *v)</text>
</g>
<!-- 6&#45;&gt;10 -->
<g id="edge7" class="edge">
<title>6&#45;&gt;10</title>
<path fill="none" stroke="#000000" d="M409.3305,-359.8314C408.9027,-352.131 408.394,-342.9743 407.9185,-334.4166"/>
<polygon fill="#000000" stroke="#000000" points="411.4122,-334.2037 407.3628,-324.4133 404.423,-334.592 411.4122,-334.2037"/>
</g>
<!-- 7 -->
<g id="node8" class="node">
<title>7</title>
<polygon fill="none" stroke="#000000" points="546.6715,-612 458.0082,-612 458.0082,-576 546.6715,-576 546.6715,-612"/>
<text text-anchor="middle" x="502.3398" y="-589.8" font-family="Times,serif" font-size="14.00" fill="#000000">ExpStmt(*v)</text>
</g>
<!-- 13 -->
<g id="node14" class="node">
<title>13</title>
<polygon fill="none" stroke="#000000" points="480.0096,-540 410.6701,-540 410.6701,-504 480.0096,-504 480.0096,-540"/>
<text text-anchor="middle" x="445.3398" y="-517.8" font-family="Times,serif" font-size="14.00" fill="#000000">NilStmt()</text>
</g>
<!-- 7&#45;&gt;13 -->
<g id="edge8" class="edge">
<title>7&#45;&gt;13</title>
<path fill="none" stroke="#000000" d="M487.9563,-575.8314C481.3912,-567.5386 473.4892,-557.557 466.2821,-548.4533"/>
<polygon fill="#000000" stroke="#000000" points="468.8682,-546.0813 459.917,-540.4133 463.3799,-550.4262 468.8682,-546.0813"/>
</g>
<!-- 8 -->
<g id="node9" class="node">
<title>8</title>
<polygon fill="none" stroke="#000000" points="836.8975,-756 349.7822,-756 349.7822,-720 836.8975,-720 836.8975,-756"/>
<text text-anchor="middle" x="593.3398" y="-733.8" font-family="Times,serif" font-size="14.00" fill="#000000">Block(ConsStmt(ExpStmt(*v), ConsStmt(Assign(Var(Name(&quot;x&quot;)), *v), NilStmt())))</text>
</g>
<!-- 12 -->
<g id="node13" class="node">
<title>12</title>
<polygon fill="none" stroke="#000000" points="728.6319,-684 284.0478,-684 284.0478,-648 728.6319,-648 728.6319,-684"/>
<text text-anchor="middle" x="506.3398" y="-661.8" font-family="Times,serif" font-size="14.00" fill="#000000">ConsStmt(ExpStmt(*v), ConsStmt(Assign(Var(Name(&quot;x&quot;)), *v), NilStmt()))</text>
</g>
<!-- 8&#45;&gt;12 -->
<g id="edge9" class="edge">
<title>8&#45;&gt;12</title>
<path fill="none" stroke="#000000" d="M571.3861,-719.8314C560.6704,-710.9632 547.621,-700.1637 536.0308,-690.5718"/>
<polygon fill="#000000" stroke="#000000" points="538.2221,-687.8422 528.2866,-684.1628 533.7591,-693.2349 538.2221,-687.8422"/>
</g>
<!-- 9 -->
<g id="node10" class="node">
<title>9</title>
<polygon fill="none" stroke="#000000" points="354.0096,-252 284.6701,-252 284.6701,-216 354.0096,-216 354.0096,-252"/>
<text text-anchor="middle" x="319.3398" y="-229.8" font-family="Times,serif" font-size="14.00" fill="#000000">NilStmt()</text>
</g>
<!-- 9&#45;&gt;5 -->
<g id="edge10" class="edge">
<title>9&#45;&gt;5</title>
<path fill="none" stroke="#000000" d="M308.2368,-215.8314C303.2724,-207.7079 297.3177,-197.9637 291.847,-189.0118"/>
<polygon fill="#000000" stroke="#000000" points="294.7934,-187.121 286.5924,-180.4133 288.8205,-190.7712 294.7934,-187.121"/>
</g>
<!-- 10&#45;&gt;9 -->
<g id="edge11" class="edge">
<title>10&#45;&gt;9</title>
<path fill="none" stroke="#000000" d="M384.3861,-287.8314C373.6704,-278.9632 360.621,-268.1637 349.0308,-258.5718"/>
<polygon fill="#000000" stroke="#000000" points="351.2221,-255.8422 341.2866,-252.1628 346.7591,-261.2349 351.2221,-255.8422"/>
</g>
<!-- 11 -->
<g id="node12" class="node">
<title>11</title>
<polygon fill="none" stroke="#000000" points="588.7356,-468 287.9441,-468 287.9441,-432 588.7356,-432 588.7356,-468"/>
<text text-anchor="middle" x="438.3398" y="-445.8" font-family="Times,serif" font-size="14.00" fill="#000000">ConsStmt(Assign(Var(Name(&quot;x&quot;)), *v), NilStmt())</text>
</g>
<!-- 11&#45;&gt;6 -->
<g id="edge12" class="edge">
<title>11&#45;&gt;6</title>
<path fill="none" stroke="#000000" d="M431.2743,-431.8314C428.2138,-423.9617 424.562,-414.5712 421.1717,-405.8533"/>
<polygon fill="#000000" stroke="#000000" points="424.3871,-404.4647 417.5006,-396.4133 417.8631,-407.0019 424.3871,-404.4647"/>
</g>
<!-- 12&#45;&gt;7 -->
<g id="edge13" class="edge">
<title>12&#45;&gt;7</title>
<path fill="none" stroke="#000000" d="M505.3305,-647.8314C504.9027,-640.131 504.394,-630.9743 503.9185,-622.4166"/>
<polygon fill="#000000" stroke="#000000" points="507.4122,-622.2037 503.3628,-612.4133 500.423,-622.592 507.4122,-622.2037"/>
</g>
<!-- 13&#45;&gt;11 -->
<g id="edge14" class="edge">
<title>13&#45;&gt;11</title>
<path fill="none" stroke="#000000" d="M443.5734,-503.8314C442.8248,-496.131 441.9346,-486.9743 441.1026,-478.4166"/>
<polygon fill="#000000" stroke="#000000" points="444.5813,-478.0276 440.13,-468.4133 437.6142,-478.7051 444.5813,-478.0276"/>
</g>
<!-- 14&#45;&gt;8 -->
<g id="edge15" class="edge">
<title>14&#45;&gt;8</title>
<path fill="none" stroke="#000000" d="M706.2362,-791.8314C686.2203,-782.2874 661.5131,-770.5065 640.3204,-760.4013"/>
<polygon fill="#000000" stroke="#000000" points="641.7023,-757.1828 631.1695,-756.038 638.6895,-763.5013 641.7023,-757.1828"/>
</g>
<!-- 15&#45;&gt;4 -->
<g id="edge16" class="edge">
<title>15&#45;&gt;4</title>
<path fill="none" stroke="#000000" d="M1343.3398,-791.8314C1343.3398,-784.131 1343.3398,-774.9743 1343.3398,-766.4166"/>
<polygon fill="#000000" stroke="#000000" points="1346.8399,-766.4132 1343.3398,-756.4133 1339.8399,-766.4133 1346.8399,-766.4132"/>
</g>
<!-- 16&#45;&gt;1 -->
<g id="edge17" class="edge">
<title>16&#45;&gt;1</title>
<path fill="none" stroke="#000000" d="M275.3398,-71.8314C275.3398,-64.131 275.3398,-54.9743 275.3398,-46.4166"/>
<polygon fill="#000000" stroke="#000000" points="278.8399,-46.4132 275.3398,-36.4133 271.8399,-46.4133 278.8399,-46.4132"/>
</g>
<!-- 17 -->
<g id="node18" class="node">
<title>17</title>
<polygon fill="none" stroke="#000000" points="1046.5196,-180 328.1601,-180 328.1601,-144 1046.5196,-144 1046.5196,-180"/>
<text text-anchor="middle" x="687.3398" y="-157.8" font-family="Times,serif" font-size="14.00" fill="#000000">Block(ConsStmt(While(*v, Block(ConsStmt(ExpStmt(*v), ConsStmt(Assign(Var(Name(&quot;x&quot;)), *v), NilStmt())))), NilStmt()))</text>
</g>
<!-- 17&#45;&gt;2 -->
<g id="edge18" class="edge">
<title>17&#45;&gt;2</title>
<path fill="none" stroke="#000000" d="M684.5641,-143.8314C683.3876,-136.131 681.9887,-126.9743 680.6813,-118.4166"/>
<polygon fill="#000000" stroke="#000000" points="684.1232,-117.7699 679.153,-108.4133 677.2035,-118.8272 684.1232,-117.7699"/>
</g>
</g>
</svg>
