<?xml version="1.0" encoding="UTF-8" standalone="no"?>
<!DOCTYPE svg PUBLIC "-//W3C//DTD SVG 1.1//EN"
 "http://www.w3.org/Graphics/SVG/1.1/DTD/svg11.dtd">
<!-- Generated by graphviz version 2.40.1 (20161225.0304)
 -->
<!-- Title: %3 Pages: 1 -->
<svg width="2341pt" height="3284pt"
 viewBox="0.00 0.00 2340.58 3284.00" xmlns="http://www.w3.org/2000/svg" xmlns:xlink="http://www.w3.org/1999/xlink">
<g id="graph0" class="graph" transform="scale(1 1) rotate(0) translate(4 3280)">
<title>%3</title>
<polygon fill="#ffffff" stroke="transparent" points="-4,4 -4,-3280 2336.583,-3280 2336.583,4 -4,4"/>
<!-- 0 -->
<g id="node1" class="node">
<title>0</title>
<polygon fill="none" stroke="#000000" points="1193.2915,-36 1139.2915,-36 1139.2915,0 1193.2915,0 1193.2915,-36"/>
<text text-anchor="middle" x="1166.2915" y="-13.8" font-family="Times,serif" font-size="14.00" fill="#000000">*v</text>
</g>
<!-- 1 -->
<g id="node2" class="node">
<title>1</title>
<polygon fill="none" stroke="#000000" points="1193.2915,-468 1139.2915,-468 1139.2915,-432 1193.2915,-432 1193.2915,-468"/>
<text text-anchor="middle" x="1166.2915" y="-445.8" font-family="Times,serif" font-size="14.00" fill="#000000">*v</text>
</g>
<!-- 10 -->
<g id="node11" class="node">
<title>10</title>
<polygon fill="none" stroke="#000000" points="1193.2915,-396 1139.2915,-396 1139.2915,-360 1193.2915,-360 1193.2915,-396"/>
<text text-anchor="middle" x="1166.2915" y="-373.8" font-family="Times,serif" font-size="14.00" fill="#000000">*v</text>
</g>
<!-- 1&#45;&gt;10 -->
<g id="edge1" class="edge">
<title>1&#45;&gt;10</title>
<path fill="none" stroke="#000000" d="M1166.2915,-431.8314C1166.2915,-424.131 1166.2915,-414.9743 1166.2915,-406.4166"/>
<polygon fill="#000000" stroke="#000000" points="1169.7916,-406.4132 1166.2915,-396.4133 1162.7916,-406.4133 1169.7916,-406.4132"/>
</g>
<!-- 2 -->
<g id="node3" class="node">
<title>2</title>
<polygon fill="none" stroke="#000000" points="1264.4185,-540 1068.1645,-540 1068.1645,-504 1264.4185,-504 1264.4185,-540"/>
<text text-anchor="middle" x="1166.2915" y="-517.8" font-family="Times,serif" font-size="14.00" fill="#000000">VarExp(Var(VarName(&quot;right&quot;)))</text>
</g>
<!-- 2&#45;&gt;1 -->
<g id="edge2" class="edge">
<title>2&#45;&gt;1</title>
<path fill="none" stroke="#000000" d="M1166.2915,-503.8314C1166.2915,-496.131 1166.2915,-486.9743 1166.2915,-478.4166"/>
<polygon fill="#000000" stroke="#000000" points="1169.7916,-478.4132 1166.2915,-468.4133 1162.7916,-478.4133 1169.7916,-478.4132"/>
</g>
<!-- 3 -->
<g id="node4" class="node">
<title>3</title>
<polygon fill="none" stroke="#000000" points="1193.2915,-1764 1139.2915,-1764 1139.2915,-1728 1193.2915,-1728 1193.2915,-1764"/>
<text text-anchor="middle" x="1166.2915" y="-1741.8" font-family="Times,serif" font-size="14.00" fill="#000000">*v</text>
</g>
<!-- 28 -->
<g id="node29" class="node">
<title>28</title>
<polygon fill="none" stroke="#000000" points="1770.5337,-1692 562.0493,-1692 562.0493,-1656 1770.5337,-1656 1770.5337,-1692"/>
<text text-anchor="middle" x="1166.2915" y="-1669.8" font-family="Times,serif" font-size="14.00" fill="#000000">Seq(If(VarExp(Var(VarName(&quot;b&quot;))), Write(*v), *v), Seq(WriteInt(VarExp(Var(VarName(&quot;left&quot;)))), Seq(Write(*v), Seq(WriteInt(VarExp(Var(VarName(&quot;right&quot;)))), If(VarExp(Var(VarName(&quot;b&quot;))), Write(*v), *v)))))</text>
</g>
<!-- 3&#45;&gt;28 -->
<g id="edge3" class="edge">
<title>3&#45;&gt;28</title>
<path fill="none" stroke="#000000" d="M1166.2915,-1727.8314C1166.2915,-1720.131 1166.2915,-1710.9743 1166.2915,-1702.4166"/>
<polygon fill="#000000" stroke="#000000" points="1169.7916,-1702.4132 1166.2915,-1692.4133 1162.7916,-1702.4133 1169.7916,-1702.4132"/>
</g>
<!-- 4 -->
<g id="node5" class="node">
<title>4</title>
<polygon fill="none" stroke="#000000" points="2089.729,-2556 242.854,-2556 242.854,-2520 2089.729,-2520 2089.729,-2556"/>
<text text-anchor="middle" x="1166.2915" y="-2533.8" font-family="Times,serif" font-size="14.00" fill="#000000">Seq(:=(Var(VarName(&quot;right&quot;)), ReadInt()), Seq(:=(Var(VarName(&quot;b&quot;)), &lt;(VarExp(Var(VarName(&quot;prec&quot;))), *v)), Seq(If(VarExp(Var(VarName(&quot;b&quot;))), Write(*v), *v), Seq(WriteInt(VarExp(Var(VarName(&quot;left&quot;)))), Seq(Write(*v), Seq(WriteInt(VarExp(Var(VarName(&quot;right&quot;)))), If(VarExp(Var(VarName(&quot;b&quot;))), Write(*v), *v)))))))</text>
</g>
<!-- 32 -->
<g id="node33" class="node">
<title>32</title>
<polygon fill="none" stroke="#000000" points="1279.3593,-2484 1053.2237,-2484 1053.2237,-2448 1279.3593,-2448 1279.3593,-2484"/>
<text text-anchor="middle" x="1166.2915" y="-2461.8" font-family="Times,serif" font-size="14.00" fill="#000000">:=(Var(VarName(&quot;right&quot;)), ReadInt())</text>
</g>
<!-- 4&#45;&gt;32 -->
<g id="edge4" class="edge">
<title>4&#45;&gt;32</title>
<path fill="none" stroke="#000000" d="M1166.2915,-2519.8314C1166.2915,-2512.131 1166.2915,-2502.9743 1166.2915,-2494.4166"/>
<polygon fill="#000000" stroke="#000000" points="1169.7916,-2494.4132 1166.2915,-2484.4133 1162.7916,-2494.4133 1169.7916,-2494.4132"/>
</g>
<!-- 5 -->
<g id="node6" class="node">
<title>5</title>
<polygon fill="none" stroke="#000000" points="1193.2915,-1908 1139.2915,-1908 1139.2915,-1872 1193.2915,-1872 1193.2915,-1908"/>
<text text-anchor="middle" x="1166.2915" y="-1885.8" font-family="Times,serif" font-size="14.00" fill="#000000">*v</text>
</g>
<!-- 8 -->
<g id="node9" class="node">
<title>8</title>
<polygon fill="none" stroke="#000000" points="1193.2915,-1836 1139.2915,-1836 1139.2915,-1800 1193.2915,-1800 1193.2915,-1836"/>
<text text-anchor="middle" x="1166.2915" y="-1813.8" font-family="Times,serif" font-size="14.00" fill="#000000">*v</text>
</g>
<!-- 5&#45;&gt;8 -->
<g id="edge5" class="edge">
<title>5&#45;&gt;8</title>
<path fill="none" stroke="#000000" d="M1166.2915,-1871.8314C1166.2915,-1864.131 1166.2915,-1854.9743 1166.2915,-1846.4166"/>
<polygon fill="#000000" stroke="#000000" points="1169.7916,-1846.4132 1166.2915,-1836.4133 1162.7916,-1846.4133 1169.7916,-1846.4132"/>
</g>
<!-- 6 -->
<g id="node7" class="node">
<title>6</title>
<polygon fill="none" stroke="#000000" points="1263.067,-1980 1069.516,-1980 1069.516,-1944 1263.067,-1944 1263.067,-1980"/>
<text text-anchor="middle" x="1166.2915" y="-1957.8" font-family="Times,serif" font-size="14.00" fill="#000000">VarExp(Var(VarName(&quot;prec&quot;)))</text>
</g>
<!-- 6&#45;&gt;5 -->
<g id="edge6" class="edge">
<title>6&#45;&gt;5</title>
<path fill="none" stroke="#000000" d="M1166.2915,-1943.8314C1166.2915,-1936.131 1166.2915,-1926.9743 1166.2915,-1918.4166"/>
<polygon fill="#000000" stroke="#000000" points="1169.7916,-1918.4132 1166.2915,-1908.4133 1162.7916,-1918.4133 1169.7916,-1918.4132"/>
</g>
<!-- 7 -->
<g id="node8" class="node">
<title>7</title>
<polygon fill="none" stroke="#000000" points="1351.2713,-2124 981.3117,-2124 981.3117,-2088 1351.2713,-2088 1351.2713,-2124"/>
<text text-anchor="middle" x="1166.2915" y="-2101.8" font-family="Times,serif" font-size="14.00" fill="#000000">:=(Var(VarName(&quot;b&quot;)), &lt;(VarExp(Var(VarName(&quot;prec&quot;))), *v))</text>
</g>
<!-- 9 -->
<g id="node10" class="node">
<title>9</title>
<polygon fill="none" stroke="#000000" points="1282.2866,-2052 1050.2964,-2052 1050.2964,-2016 1282.2866,-2016 1282.2866,-2052"/>
<text text-anchor="middle" x="1166.2915" y="-2029.8" font-family="Times,serif" font-size="14.00" fill="#000000">&lt;(VarExp(Var(VarName(&quot;prec&quot;))), *v)</text>
</g>
<!-- 7&#45;&gt;9 -->
<g id="edge7" class="edge">
<title>7&#45;&gt;9</title>
<path fill="none" stroke="#000000" d="M1166.2915,-2087.8314C1166.2915,-2080.131 1166.2915,-2070.9743 1166.2915,-2062.4166"/>
<polygon fill="#000000" stroke="#000000" points="1169.7916,-2062.4132 1166.2915,-2052.4133 1162.7916,-2062.4133 1169.7916,-2062.4132"/>
</g>
<!-- 8&#45;&gt;3 -->
<g id="edge8" class="edge">
<title>8&#45;&gt;3</title>
<path fill="none" stroke="#000000" d="M1166.2915,-1799.8314C1166.2915,-1792.131 1166.2915,-1782.9743 1166.2915,-1774.4166"/>
<polygon fill="#000000" stroke="#000000" points="1169.7916,-1774.4132 1166.2915,-1764.4133 1162.7916,-1774.4133 1169.7916,-1774.4132"/>
</g>
<!-- 9&#45;&gt;6 -->
<g id="edge9" class="edge">
<title>9&#45;&gt;6</title>
<path fill="none" stroke="#000000" d="M1166.2915,-2015.8314C1166.2915,-2008.131 1166.2915,-1998.9743 1166.2915,-1990.4166"/>
<polygon fill="#000000" stroke="#000000" points="1169.7916,-1990.4132 1166.2915,-1980.4133 1162.7916,-1990.4133 1169.7916,-1990.4132"/>
</g>
<!-- 29 -->
<g id="node30" class="node">
<title>29</title>
<polygon fill="none" stroke="#000000" points="1305.0192,-324 1027.5638,-324 1027.5638,-288 1305.0192,-288 1305.0192,-324"/>
<text text-anchor="middle" x="1166.2915" y="-301.8" font-family="Times,serif" font-size="14.00" fill="#000000">If(VarExp(Var(VarName(&quot;b&quot;))), Write(*v), *v)</text>
</g>
<!-- 10&#45;&gt;29 -->
<g id="edge10" class="edge">
<title>10&#45;&gt;29</title>
<path fill="none" stroke="#000000" d="M1166.2915,-359.8314C1166.2915,-352.131 1166.2915,-342.9743 1166.2915,-334.4166"/>
<polygon fill="#000000" stroke="#000000" points="1169.7916,-334.4132 1166.2915,-324.4133 1162.7916,-334.4133 1169.7916,-334.4132"/>
</g>
<!-- 11 -->
<g id="node12" class="node">
<title>11</title>
<polygon fill="none" stroke="#000000" points="1292.6101,-612 1039.9729,-612 1039.9729,-576 1292.6101,-576 1292.6101,-612"/>
<text text-anchor="middle" x="1166.2915" y="-589.8" font-family="Times,serif" font-size="14.00" fill="#000000">WriteInt(VarExp(Var(VarName(&quot;right&quot;))))</text>
</g>
<!-- 11&#45;&gt;2 -->
<g id="edge11" class="edge">
<title>11&#45;&gt;2</title>
<path fill="none" stroke="#000000" d="M1166.2915,-575.8314C1166.2915,-568.131 1166.2915,-558.9743 1166.2915,-550.4166"/>
<polygon fill="#000000" stroke="#000000" points="1169.7916,-550.4132 1166.2915,-540.4133 1162.7916,-550.4133 1169.7916,-550.4132"/>
</g>
<!-- 12 -->
<g id="node13" class="node">
<title>12</title>
<polygon fill="none" stroke="#000000" points="1233.4321,-108 1163.1509,-108 1163.1509,-72 1233.4321,-72 1233.4321,-108"/>
<text text-anchor="middle" x="1198.2915" y="-85.8" font-family="Times,serif" font-size="14.00" fill="#000000">Write(*v)</text>
</g>
<!-- 12&#45;&gt;0 -->
<g id="edge12" class="edge">
<title>12&#45;&gt;0</title>
<path fill="none" stroke="#000000" d="M1190.2166,-71.8314C1186.6813,-63.8771 1182.4555,-54.369 1178.5459,-45.5723"/>
<polygon fill="#000000" stroke="#000000" points="1181.735,-44.1299 1174.4752,-36.4133 1175.3383,-46.9729 1181.735,-44.1299"/>
</g>
<!-- 13 -->
<g id="node14" class="node">
<title>13</title>
<polygon fill="none" stroke="#000000" points="1288.3242,-1188 1044.2588,-1188 1044.2588,-1152 1288.3242,-1152 1288.3242,-1188"/>
<text text-anchor="middle" x="1166.2915" y="-1165.8" font-family="Times,serif" font-size="14.00" fill="#000000">WriteInt(VarExp(Var(VarName(&quot;left&quot;))))</text>
</g>
<!-- 17 -->
<g id="node18" class="node">
<title>17</title>
<polygon fill="none" stroke="#000000" points="1260.6326,-1116 1071.9504,-1116 1071.9504,-1080 1260.6326,-1080 1260.6326,-1116"/>
<text text-anchor="middle" x="1166.2915" y="-1093.8" font-family="Times,serif" font-size="14.00" fill="#000000">VarExp(Var(VarName(&quot;left&quot;)))</text>
</g>
<!-- 13&#45;&gt;17 -->
<g id="edge13" class="edge">
<title>13&#45;&gt;17</title>
<path fill="none" stroke="#000000" d="M1166.2915,-1151.8314C1166.2915,-1144.131 1166.2915,-1134.9743 1166.2915,-1126.4166"/>
<polygon fill="#000000" stroke="#000000" points="1169.7916,-1126.4132 1166.2915,-1116.4133 1162.7916,-1126.4133 1169.7916,-1126.4132"/>
</g>
<!-- 14 -->
<g id="node15" class="node">
<title>14</title>
<polygon fill="none" stroke="#000000" points="1193.2915,-972 1139.2915,-972 1139.2915,-936 1193.2915,-936 1193.2915,-972"/>
<text text-anchor="middle" x="1166.2915" y="-949.8" font-family="Times,serif" font-size="14.00" fill="#000000">*v</text>
</g>
<!-- 34 -->
<g id="node35" class="node">
<title>34</title>
<polygon fill="none" stroke="#000000" points="1488.1256,-900 844.4574,-900 844.4574,-864 1488.1256,-864 1488.1256,-900"/>
<text text-anchor="middle" x="1166.2915" y="-877.8" font-family="Times,serif" font-size="14.00" fill="#000000">Seq(Write(*v), Seq(WriteInt(VarExp(Var(VarName(&quot;right&quot;)))), If(VarExp(Var(VarName(&quot;b&quot;))), Write(*v), *v)))</text>
</g>
<!-- 14&#45;&gt;34 -->
<g id="edge14" class="edge">
<title>14&#45;&gt;34</title>
<path fill="none" stroke="#000000" d="M1166.2915,-935.8314C1166.2915,-928.131 1166.2915,-918.9743 1166.2915,-910.4166"/>
<polygon fill="#000000" stroke="#000000" points="1169.7916,-910.4132 1166.2915,-900.4133 1162.7916,-910.4133 1169.7916,-910.4132"/>
</g>
<!-- 15 -->
<g id="node16" class="node">
<title>15</title>
<polygon fill="none" stroke="#000000" points="1965.8374,-2196 366.7456,-2196 366.7456,-2160 1965.8374,-2160 1965.8374,-2196"/>
<text text-anchor="middle" x="1166.2915" y="-2173.8" font-family="Times,serif" font-size="14.00" fill="#000000">Seq(:=(Var(VarName(&quot;b&quot;)), &lt;(VarExp(Var(VarName(&quot;prec&quot;))), *v)), Seq(If(VarExp(Var(VarName(&quot;b&quot;))), Write(*v), *v), Seq(WriteInt(VarExp(Var(VarName(&quot;left&quot;)))), Seq(Write(*v), Seq(WriteInt(VarExp(Var(VarName(&quot;right&quot;)))), If(VarExp(Var(VarName(&quot;b&quot;))), Write(*v), *v))))))</text>
</g>
<!-- 15&#45;&gt;7 -->
<g id="edge15" class="edge">
<title>15&#45;&gt;7</title>
<path fill="none" stroke="#000000" d="M1166.2915,-2159.8314C1166.2915,-2152.131 1166.2915,-2142.9743 1166.2915,-2134.4166"/>
<polygon fill="#000000" stroke="#000000" points="1169.7916,-2134.4132 1166.2915,-2124.4133 1162.7916,-2134.4133 1169.7916,-2134.4132"/>
</g>
<!-- 16 -->
<g id="node17" class="node">
<title>16</title>
<polygon fill="none" stroke="#000000" points="1193.2915,-1044 1139.2915,-1044 1139.2915,-1008 1193.2915,-1008 1193.2915,-1044"/>
<text text-anchor="middle" x="1166.2915" y="-1021.8" font-family="Times,serif" font-size="14.00" fill="#000000">*v</text>
</g>
<!-- 16&#45;&gt;14 -->
<g id="edge16" class="edge">
<title>16&#45;&gt;14</title>
<path fill="none" stroke="#000000" d="M1166.2915,-1007.8314C1166.2915,-1000.131 1166.2915,-990.9743 1166.2915,-982.4166"/>
<polygon fill="#000000" stroke="#000000" points="1169.7916,-982.4132 1166.2915,-972.4133 1162.7916,-982.4133 1169.7916,-982.4132"/>
</g>
<!-- 17&#45;&gt;16 -->
<g id="edge17" class="edge">
<title>17&#45;&gt;16</title>
<path fill="none" stroke="#000000" d="M1166.2915,-1079.8314C1166.2915,-1072.131 1166.2915,-1062.9743 1166.2915,-1054.4166"/>
<polygon fill="#000000" stroke="#000000" points="1169.7916,-1054.4132 1166.2915,-1044.4133 1162.7916,-1054.4133 1169.7916,-1054.4132"/>
</g>
<!-- 18 -->
<g id="node19" class="node">
<title>18</title>
<polygon fill="none" stroke="#000000" points="1254.4773,-252 1078.1057,-252 1078.1057,-216 1254.4773,-216 1254.4773,-252"/>
<text text-anchor="middle" x="1166.2915" y="-229.8" font-family="Times,serif" font-size="14.00" fill="#000000">VarExp(Var(VarName(&quot;b&quot;)))</text>
</g>
<!-- 36 -->
<g id="node37" class="node">
<title>36</title>
<polygon fill="none" stroke="#000000" points="1193.2915,-180 1139.2915,-180 1139.2915,-144 1193.2915,-144 1193.2915,-180"/>
<text text-anchor="middle" x="1166.2915" y="-157.8" font-family="Times,serif" font-size="14.00" fill="#000000">*v</text>
</g>
<!-- 18&#45;&gt;36 -->
<g id="edge18" class="edge">
<title>18&#45;&gt;36</title>
<path fill="none" stroke="#000000" d="M1166.2915,-215.8314C1166.2915,-208.131 1166.2915,-198.9743 1166.2915,-190.4166"/>
<polygon fill="#000000" stroke="#000000" points="1169.7916,-190.4132 1166.2915,-180.4133 1162.7916,-190.4133 1169.7916,-190.4132"/>
</g>
<!-- 19 -->
<g id="node20" class="node">
<title>19</title>
<polygon fill="none" stroke="#000000" points="1193.2915,-2988 1139.2915,-2988 1139.2915,-2952 1193.2915,-2952 1193.2915,-2988"/>
<text text-anchor="middle" x="1166.2915" y="-2965.8" font-family="Times,serif" font-size="14.00" fill="#000000">*v</text>
</g>
<!-- 23 -->
<g id="node24" class="node">
<title>23</title>
<polygon fill="none" stroke="#000000" points="2209.8345,-2916 122.7485,-2916 122.7485,-2880 2209.8345,-2880 2209.8345,-2916"/>
<text text-anchor="middle" x="1166.2915" y="-2893.8" font-family="Times,serif" font-size="14.00" fill="#000000">Seq(:=(Var(VarName(&quot;left&quot;)), ReadInt()), Seq(:=(Var(VarName(&quot;right&quot;)), ReadInt()), Seq(:=(Var(VarName(&quot;b&quot;)), &lt;(VarExp(Var(VarName(&quot;prec&quot;))), *v)), Seq(If(VarExp(Var(VarName(&quot;b&quot;))), Write(*v), *v), Seq(WriteInt(VarExp(Var(VarName(&quot;left&quot;)))), Seq(Write(*v), Seq(WriteInt(VarExp(Var(VarName(&quot;right&quot;)))), If(VarExp(Var(VarName(&quot;b&quot;))), Write(*v), *v))))))))</text>
</g>
<!-- 19&#45;&gt;23 -->
<g id="edge19" class="edge">
<title>19&#45;&gt;23</title>
<path fill="none" stroke="#000000" d="M1166.2915,-2951.8314C1166.2915,-2944.131 1166.2915,-2934.9743 1166.2915,-2926.4166"/>
<polygon fill="#000000" stroke="#000000" points="1169.7916,-2926.4132 1166.2915,-2916.4133 1162.7916,-2926.4133 1169.7916,-2926.4132"/>
</g>
<!-- 20 -->
<g id="node21" class="node">
<title>20</title>
<polygon fill="none" stroke="#000000" points="1170.4321,-1404 1100.1509,-1404 1100.1509,-1368 1170.4321,-1368 1170.4321,-1404"/>
<text text-anchor="middle" x="1135.2915" y="-1381.8" font-family="Times,serif" font-size="14.00" fill="#000000">Write(*v)</text>
</g>
<!-- 42 -->
<g id="node43" class="node">
<title>42</title>
<polygon fill="none" stroke="#000000" points="1193.2915,-1332 1139.2915,-1332 1139.2915,-1296 1193.2915,-1296 1193.2915,-1332"/>
<text text-anchor="middle" x="1166.2915" y="-1309.8" font-family="Times,serif" font-size="14.00" fill="#000000">*v</text>
</g>
<!-- 20&#45;&gt;42 -->
<g id="edge20" class="edge">
<title>20&#45;&gt;42</title>
<path fill="none" stroke="#000000" d="M1143.1141,-1367.8314C1146.5024,-1359.9617 1150.5456,-1350.5712 1154.2991,-1341.8533"/>
<polygon fill="#000000" stroke="#000000" points="1157.6236,-1342.9822 1158.3636,-1332.4133 1151.1942,-1340.214 1157.6236,-1342.9822"/>
</g>
<!-- 21 -->
<g id="node22" class="node">
<title>21</title>
<polygon fill="none" stroke="#000000" points="1193.2915,-756 1139.2915,-756 1139.2915,-720 1193.2915,-720 1193.2915,-756"/>
<text text-anchor="middle" x="1166.2915" y="-733.8" font-family="Times,serif" font-size="14.00" fill="#000000">*v</text>
</g>
<!-- 43 -->
<g id="node44" class="node">
<title>43</title>
<polygon fill="none" stroke="#000000" points="1442.1617,-684 890.4213,-684 890.4213,-648 1442.1617,-648 1442.1617,-684"/>
<text text-anchor="middle" x="1166.2915" y="-661.8" font-family="Times,serif" font-size="14.00" fill="#000000">Seq(WriteInt(VarExp(Var(VarName(&quot;right&quot;)))), If(VarExp(Var(VarName(&quot;b&quot;))), Write(*v), *v))</text>
</g>
<!-- 21&#45;&gt;43 -->
<g id="edge21" class="edge">
<title>21&#45;&gt;43</title>
<path fill="none" stroke="#000000" d="M1166.2915,-719.8314C1166.2915,-712.131 1166.2915,-702.9743 1166.2915,-694.4166"/>
<polygon fill="#000000" stroke="#000000" points="1169.7916,-694.4132 1166.2915,-684.4133 1162.7916,-694.4133 1169.7916,-694.4132"/>
</g>
<!-- 22 -->
<g id="node23" class="node">
<title>22</title>
<polygon fill="none" stroke="#000000" points="1201.4321,-828 1131.1509,-828 1131.1509,-792 1201.4321,-792 1201.4321,-828"/>
<text text-anchor="middle" x="1166.2915" y="-805.8" font-family="Times,serif" font-size="14.00" fill="#000000">Write(*v)</text>
</g>
<!-- 22&#45;&gt;21 -->
<g id="edge22" class="edge">
<title>22&#45;&gt;21</title>
<path fill="none" stroke="#000000" d="M1166.2915,-791.8314C1166.2915,-784.131 1166.2915,-774.9743 1166.2915,-766.4166"/>
<polygon fill="#000000" stroke="#000000" points="1169.7916,-766.4132 1166.2915,-756.4133 1162.7916,-766.4133 1169.7916,-766.4132"/>
</g>
<!-- 26 -->
<g id="node27" class="node">
<title>26</title>
<polygon fill="none" stroke="#000000" points="1275.5729,-2844 1057.0101,-2844 1057.0101,-2808 1275.5729,-2808 1275.5729,-2844"/>
<text text-anchor="middle" x="1166.2915" y="-2821.8" font-family="Times,serif" font-size="14.00" fill="#000000">:=(Var(VarName(&quot;left&quot;)), ReadInt())</text>
</g>
<!-- 23&#45;&gt;26 -->
<g id="edge23" class="edge">
<title>23&#45;&gt;26</title>
<path fill="none" stroke="#000000" d="M1166.2915,-2879.8314C1166.2915,-2872.131 1166.2915,-2862.9743 1166.2915,-2854.4166"/>
<polygon fill="#000000" stroke="#000000" points="1169.7916,-2854.4132 1166.2915,-2844.4133 1162.7916,-2854.4133 1169.7916,-2854.4132"/>
</g>
<!-- 24 -->
<g id="node25" class="node">
<title>24</title>
<polygon fill="none" stroke="#000000" points="1193.2915,-2700 1139.2915,-2700 1139.2915,-2664 1193.2915,-2664 1193.2915,-2700"/>
<text text-anchor="middle" x="1166.2915" y="-2677.8" font-family="Times,serif" font-size="14.00" fill="#000000">*v</text>
</g>
<!-- 27 -->
<g id="node28" class="node">
<title>27</title>
<polygon fill="none" stroke="#000000" points="1193.2915,-2628 1139.2915,-2628 1139.2915,-2592 1193.2915,-2592 1193.2915,-2628"/>
<text text-anchor="middle" x="1166.2915" y="-2605.8" font-family="Times,serif" font-size="14.00" fill="#000000">*v</text>
</g>
<!-- 24&#45;&gt;27 -->
<g id="edge24" class="edge">
<title>24&#45;&gt;27</title>
<path fill="none" stroke="#000000" d="M1166.2915,-2663.8314C1166.2915,-2656.131 1166.2915,-2646.9743 1166.2915,-2638.4166"/>
<polygon fill="#000000" stroke="#000000" points="1169.7916,-2638.4132 1166.2915,-2628.4133 1162.7916,-2638.4133 1169.7916,-2638.4132"/>
</g>
<!-- 25 -->
<g id="node26" class="node">
<title>25</title>
<polygon fill="none" stroke="#000000" points="1200.934,-2772 1131.649,-2772 1131.649,-2736 1200.934,-2736 1200.934,-2772"/>
<text text-anchor="middle" x="1166.2915" y="-2749.8" font-family="Times,serif" font-size="14.00" fill="#000000">ReadInt()</text>
</g>
<!-- 25&#45;&gt;24 -->
<g id="edge25" class="edge">
<title>25&#45;&gt;24</title>
<path fill="none" stroke="#000000" d="M1166.2915,-2735.8314C1166.2915,-2728.131 1166.2915,-2718.9743 1166.2915,-2710.4166"/>
<polygon fill="#000000" stroke="#000000" points="1169.7916,-2710.4132 1166.2915,-2700.4133 1162.7916,-2710.4133 1169.7916,-2710.4132"/>
</g>
<!-- 26&#45;&gt;25 -->
<g id="edge26" class="edge">
<title>26&#45;&gt;25</title>
<path fill="none" stroke="#000000" d="M1166.2915,-2807.8314C1166.2915,-2800.131 1166.2915,-2790.9743 1166.2915,-2782.4166"/>
<polygon fill="#000000" stroke="#000000" points="1169.7916,-2782.4132 1166.2915,-2772.4133 1162.7916,-2782.4133 1169.7916,-2782.4132"/>
</g>
<!-- 27&#45;&gt;4 -->
<g id="edge27" class="edge">
<title>27&#45;&gt;4</title>
<path fill="none" stroke="#000000" d="M1166.2915,-2591.8314C1166.2915,-2584.131 1166.2915,-2574.9743 1166.2915,-2566.4166"/>
<polygon fill="#000000" stroke="#000000" points="1169.7916,-2566.4132 1166.2915,-2556.4133 1162.7916,-2566.4133 1169.7916,-2566.4132"/>
</g>
<!-- 35 -->
<g id="node36" class="node">
<title>35</title>
<polygon fill="none" stroke="#000000" points="1305.0192,-1620 1027.5638,-1620 1027.5638,-1584 1305.0192,-1584 1305.0192,-1620"/>
<text text-anchor="middle" x="1166.2915" y="-1597.8" font-family="Times,serif" font-size="14.00" fill="#000000">If(VarExp(Var(VarName(&quot;b&quot;))), Write(*v), *v)</text>
</g>
<!-- 28&#45;&gt;35 -->
<g id="edge28" class="edge">
<title>28&#45;&gt;35</title>
<path fill="none" stroke="#000000" d="M1166.2915,-1655.8314C1166.2915,-1648.131 1166.2915,-1638.9743 1166.2915,-1630.4166"/>
<polygon fill="#000000" stroke="#000000" points="1169.7916,-1630.4132 1166.2915,-1620.4133 1162.7916,-1630.4133 1169.7916,-1630.4132"/>
</g>
<!-- 29&#45;&gt;18 -->
<g id="edge29" class="edge">
<title>29&#45;&gt;18</title>
<path fill="none" stroke="#000000" d="M1166.2915,-287.8314C1166.2915,-280.131 1166.2915,-270.9743 1166.2915,-262.4166"/>
<polygon fill="#000000" stroke="#000000" points="1169.7916,-262.4132 1166.2915,-252.4133 1162.7916,-262.4133 1169.7916,-262.4132"/>
</g>
<!-- 30 -->
<g id="node31" class="node">
<title>30</title>
<polygon fill="none" stroke="#000000" points="1200.934,-2412 1131.649,-2412 1131.649,-2376 1200.934,-2376 1200.934,-2412"/>
<text text-anchor="middle" x="1166.2915" y="-2389.8" font-family="Times,serif" font-size="14.00" fill="#000000">ReadInt()</text>
</g>
<!-- 31 -->
<g id="node32" class="node">
<title>31</title>
<polygon fill="none" stroke="#000000" points="1193.2915,-2340 1139.2915,-2340 1139.2915,-2304 1193.2915,-2304 1193.2915,-2340"/>
<text text-anchor="middle" x="1166.2915" y="-2317.8" font-family="Times,serif" font-size="14.00" fill="#000000">*v</text>
</g>
<!-- 30&#45;&gt;31 -->
<g id="edge30" class="edge">
<title>30&#45;&gt;31</title>
<path fill="none" stroke="#000000" d="M1166.2915,-2375.8314C1166.2915,-2368.131 1166.2915,-2358.9743 1166.2915,-2350.4166"/>
<polygon fill="#000000" stroke="#000000" points="1169.7916,-2350.4132 1166.2915,-2340.4133 1162.7916,-2350.4133 1169.7916,-2350.4132"/>
</g>
<!-- 33 -->
<g id="node34" class="node">
<title>33</title>
<polygon fill="none" stroke="#000000" points="1193.2915,-2268 1139.2915,-2268 1139.2915,-2232 1193.2915,-2232 1193.2915,-2268"/>
<text text-anchor="middle" x="1166.2915" y="-2245.8" font-family="Times,serif" font-size="14.00" fill="#000000">*v</text>
</g>
<!-- 31&#45;&gt;33 -->
<g id="edge31" class="edge">
<title>31&#45;&gt;33</title>
<path fill="none" stroke="#000000" d="M1166.2915,-2303.8314C1166.2915,-2296.131 1166.2915,-2286.9743 1166.2915,-2278.4166"/>
<polygon fill="#000000" stroke="#000000" points="1169.7916,-2278.4132 1166.2915,-2268.4133 1162.7916,-2278.4133 1169.7916,-2278.4132"/>
</g>
<!-- 32&#45;&gt;30 -->
<g id="edge32" class="edge">
<title>32&#45;&gt;30</title>
<path fill="none" stroke="#000000" d="M1166.2915,-2447.8314C1166.2915,-2440.131 1166.2915,-2430.9743 1166.2915,-2422.4166"/>
<polygon fill="#000000" stroke="#000000" points="1169.7916,-2422.4132 1166.2915,-2412.4133 1162.7916,-2422.4133 1169.7916,-2422.4132"/>
</g>
<!-- 33&#45;&gt;15 -->
<g id="edge33" class="edge">
<title>33&#45;&gt;15</title>
<path fill="none" stroke="#000000" d="M1166.2915,-2231.8314C1166.2915,-2224.131 1166.2915,-2214.9743 1166.2915,-2206.4166"/>
<polygon fill="#000000" stroke="#000000" points="1169.7916,-2206.4132 1166.2915,-2196.4133 1162.7916,-2206.4133 1169.7916,-2206.4132"/>
</g>
<!-- 34&#45;&gt;22 -->
<g id="edge34" class="edge">
<title>34&#45;&gt;22</title>
<path fill="none" stroke="#000000" d="M1166.2915,-863.8314C1166.2915,-856.131 1166.2915,-846.9743 1166.2915,-838.4166"/>
<polygon fill="#000000" stroke="#000000" points="1169.7916,-838.4132 1166.2915,-828.4133 1162.7916,-838.4133 1169.7916,-838.4132"/>
</g>
<!-- 37 -->
<g id="node38" class="node">
<title>37</title>
<polygon fill="none" stroke="#000000" points="1254.4773,-1548 1078.1057,-1548 1078.1057,-1512 1254.4773,-1512 1254.4773,-1548"/>
<text text-anchor="middle" x="1166.2915" y="-1525.8" font-family="Times,serif" font-size="14.00" fill="#000000">VarExp(Var(VarName(&quot;b&quot;)))</text>
</g>
<!-- 35&#45;&gt;37 -->
<g id="edge35" class="edge">
<title>35&#45;&gt;37</title>
<path fill="none" stroke="#000000" d="M1166.2915,-1583.8314C1166.2915,-1576.131 1166.2915,-1566.9743 1166.2915,-1558.4166"/>
<polygon fill="#000000" stroke="#000000" points="1169.7916,-1558.4132 1166.2915,-1548.4133 1162.7916,-1558.4133 1169.7916,-1558.4132"/>
</g>
<!-- 36&#45;&gt;0 -->
<g id="edge36" class="edge">
<title>36&#45;&gt;0</title>
<path fill="none" stroke="#000000" d="M1161.1724,-143.6727C1158.5395,-133.2978 1155.6119,-120.0284 1154.2915,-108 1152.5456,-92.0955 1152.5456,-87.9045 1154.2915,-72 1155.2199,-63.5425 1156.9429,-54.4715 1158.7993,-46.2246"/>
<polygon fill="#000000" stroke="#000000" points="1162.2442,-46.8678 1161.1724,-36.3273 1155.4371,-45.2356 1162.2442,-46.8678"/>
</g>
<!-- 36&#45;&gt;12 -->
<g id="edge37" class="edge">
<title>36&#45;&gt;12</title>
<path fill="none" stroke="#000000" d="M1174.3665,-143.8314C1177.9017,-135.8771 1182.1275,-126.369 1186.0372,-117.5723"/>
<polygon fill="#000000" stroke="#000000" points="1189.2447,-118.9729 1190.1078,-108.4133 1182.848,-116.1299 1189.2447,-118.9729"/>
</g>
<!-- 41 -->
<g id="node42" class="node">
<title>41</title>
<polygon fill="none" stroke="#000000" points="1193.2915,-1476 1139.2915,-1476 1139.2915,-1440 1193.2915,-1440 1193.2915,-1476"/>
<text text-anchor="middle" x="1166.2915" y="-1453.8" font-family="Times,serif" font-size="14.00" fill="#000000">*v</text>
</g>
<!-- 37&#45;&gt;41 -->
<g id="edge38" class="edge">
<title>37&#45;&gt;41</title>
<path fill="none" stroke="#000000" d="M1166.2915,-1511.8314C1166.2915,-1504.131 1166.2915,-1494.9743 1166.2915,-1486.4166"/>
<polygon fill="#000000" stroke="#000000" points="1169.7916,-1486.4132 1166.2915,-1476.4133 1162.7916,-1486.4133 1169.7916,-1486.4132"/>
</g>
<!-- 38 -->
<g id="node39" class="node">
<title>38</title>
<polygon fill="none" stroke="#000000" points="1200.934,-3132 1131.649,-3132 1131.649,-3096 1200.934,-3096 1200.934,-3132"/>
<text text-anchor="middle" x="1166.2915" y="-3109.8" font-family="Times,serif" font-size="14.00" fill="#000000">ReadInt()</text>
</g>
<!-- 40 -->
<g id="node41" class="node">
<title>40</title>
<polygon fill="none" stroke="#000000" points="1193.2915,-3060 1139.2915,-3060 1139.2915,-3024 1193.2915,-3024 1193.2915,-3060"/>
<text text-anchor="middle" x="1166.2915" y="-3037.8" font-family="Times,serif" font-size="14.00" fill="#000000">*v</text>
</g>
<!-- 38&#45;&gt;40 -->
<g id="edge39" class="edge">
<title>38&#45;&gt;40</title>
<path fill="none" stroke="#000000" d="M1166.2915,-3095.8314C1166.2915,-3088.131 1166.2915,-3078.9743 1166.2915,-3070.4166"/>
<polygon fill="#000000" stroke="#000000" points="1169.7916,-3070.4132 1166.2915,-3060.4133 1162.7916,-3070.4133 1169.7916,-3070.4132"/>
</g>
<!-- 39 -->
<g id="node40" class="node">
<title>39</title>
<polygon fill="none" stroke="#000000" points="1278.5074,-3204 1054.0756,-3204 1054.0756,-3168 1278.5074,-3168 1278.5074,-3204"/>
<text text-anchor="middle" x="1166.2915" y="-3181.8" font-family="Times,serif" font-size="14.00" fill="#000000">:=(Var(VarName(&quot;prec&quot;)), ReadInt())</text>
</g>
<!-- 39&#45;&gt;38 -->
<g id="edge40" class="edge">
<title>39&#45;&gt;38</title>
<path fill="none" stroke="#000000" d="M1166.2915,-3167.8314C1166.2915,-3160.131 1166.2915,-3150.9743 1166.2915,-3142.4166"/>
<polygon fill="#000000" stroke="#000000" points="1169.7916,-3142.4132 1166.2915,-3132.4133 1162.7916,-3142.4133 1169.7916,-3142.4132"/>
</g>
<!-- 40&#45;&gt;19 -->
<g id="edge41" class="edge">
<title>40&#45;&gt;19</title>
<path fill="none" stroke="#000000" d="M1166.2915,-3023.8314C1166.2915,-3016.131 1166.2915,-3006.9743 1166.2915,-2998.4166"/>
<polygon fill="#000000" stroke="#000000" points="1169.7916,-2998.4132 1166.2915,-2988.4133 1162.7916,-2998.4133 1169.7916,-2998.4132"/>
</g>
<!-- 41&#45;&gt;20 -->
<g id="edge42" class="edge">
<title>41&#45;&gt;20</title>
<path fill="none" stroke="#000000" d="M1158.4689,-1439.8314C1155.0806,-1431.9617 1151.0374,-1422.5712 1147.2839,-1413.8533"/>
<polygon fill="#000000" stroke="#000000" points="1150.3888,-1412.214 1143.2194,-1404.4133 1143.9594,-1414.9822 1150.3888,-1412.214"/>
</g>
<!-- 41&#45;&gt;42 -->
<g id="edge43" class="edge">
<title>41&#45;&gt;42</title>
<path fill="none" stroke="#000000" d="M1171.8361,-1439.7012C1174.688,-1429.3353 1177.8597,-1416.0653 1179.2915,-1404 1181.1771,-1388.1115 1181.1771,-1383.8885 1179.2915,-1368 1178.2847,-1359.5166 1176.4179,-1350.4376 1174.4068,-1342.1913"/>
<polygon fill="#000000" stroke="#000000" points="1177.7387,-1341.0971 1171.8361,-1332.2988 1170.9637,-1342.8576 1177.7387,-1341.0971"/>
</g>
<!-- 45 -->
<g id="node46" class="node">
<title>45</title>
<polygon fill="none" stroke="#000000" points="1620.982,-1260 711.6011,-1260 711.6011,-1224 1620.982,-1224 1620.982,-1260"/>
<text text-anchor="middle" x="1166.2915" y="-1237.8" font-family="Times,serif" font-size="14.00" fill="#000000">Seq(WriteInt(VarExp(Var(VarName(&quot;left&quot;)))), Seq(Write(*v), Seq(WriteInt(VarExp(Var(VarName(&quot;right&quot;)))), If(VarExp(Var(VarName(&quot;b&quot;))), Write(*v), *v))))</text>
</g>
<!-- 42&#45;&gt;45 -->
<g id="edge44" class="edge">
<title>42&#45;&gt;45</title>
<path fill="none" stroke="#000000" d="M1166.2915,-1295.8314C1166.2915,-1288.131 1166.2915,-1278.9743 1166.2915,-1270.4166"/>
<polygon fill="#000000" stroke="#000000" points="1169.7916,-1270.4132 1166.2915,-1260.4133 1162.7916,-1270.4133 1169.7916,-1270.4132"/>
</g>
<!-- 43&#45;&gt;11 -->
<g id="edge45" class="edge">
<title>43&#45;&gt;11</title>
<path fill="none" stroke="#000000" d="M1166.2915,-647.8314C1166.2915,-640.131 1166.2915,-630.9743 1166.2915,-622.4166"/>
<polygon fill="#000000" stroke="#000000" points="1169.7916,-622.4132 1166.2915,-612.4133 1162.7916,-622.4133 1169.7916,-622.4132"/>
</g>
<!-- 44 -->
<g id="node45" class="node">
<title>44</title>
<polygon fill="none" stroke="#000000" points="2332.3745,-3276 .2085,-3276 .2085,-3240 2332.3745,-3240 2332.3745,-3276"/>
<text text-anchor="middle" x="1166.2915" y="-3253.8" font-family="Times,serif" font-size="14.00" fill="#000000">Seq(:=(Var(VarName(&quot;prec&quot;)), ReadInt()), Seq(:=(Var(VarName(&quot;left&quot;)), ReadInt()), Seq(:=(Var(VarName(&quot;right&quot;)), ReadInt()), Seq(:=(Var(VarName(&quot;b&quot;)), &lt;(VarExp(Var(VarName(&quot;prec&quot;))), *v)), Seq(If(VarExp(Var(VarName(&quot;b&quot;))), Write(*v), *v), Seq(WriteInt(VarExp(Var(VarName(&quot;left&quot;)))), Seq(Write(*v), Seq(WriteInt(VarExp(Var(VarName(&quot;right&quot;)))), If(VarExp(Var(VarName(&quot;b&quot;))), Write(*v), *v)))))))))</text>
</g>
<!-- 44&#45;&gt;39 -->
<g id="edge46" class="edge">
<title>44&#45;&gt;39</title>
<path fill="none" stroke="#000000" d="M1166.2915,-3239.8314C1166.2915,-3232.131 1166.2915,-3222.9743 1166.2915,-3214.4166"/>
<polygon fill="#000000" stroke="#000000" points="1169.7916,-3214.4132 1166.2915,-3204.4133 1162.7916,-3214.4133 1169.7916,-3214.4132"/>
</g>
<!-- 45&#45;&gt;13 -->
<g id="edge47" class="edge">
<title>45&#45;&gt;13</title>
<path fill="none" stroke="#000000" d="M1166.2915,-1223.8314C1166.2915,-1216.131 1166.2915,-1206.9743 1166.2915,-1198.4166"/>
<polygon fill="#000000" stroke="#000000" points="1169.7916,-1198.4132 1166.2915,-1188.4133 1162.7916,-1198.4133 1169.7916,-1198.4132"/>
</g>
</g>
</svg>
