<?xml version="1.0" encoding="UTF-8" standalone="no"?>
<!DOCTYPE svg PUBLIC "-//W3C//DTD SVG 1.1//EN"
 "http://www.w3.org/Graphics/SVG/1.1/DTD/svg11.dtd">
<!-- Generated by graphviz version 2.40.1 (20161225.0304)
 -->
<!-- Title: %3 Pages: 1 -->
<svg width="966pt" height="1412pt"
 viewBox="0.00 0.00 966.47 1412.00" xmlns="http://www.w3.org/2000/svg" xmlns:xlink="http://www.w3.org/1999/xlink">
<g id="graph0" class="graph" transform="scale(1 1) rotate(0) translate(4 1408)">
<title>%3</title>
<polygon fill="#ffffff" stroke="transparent" points="-4,4 -4,-1408 962.4741,-1408 962.4741,4 -4,4"/>
<!-- 0 -->
<g id="node1" class="node">
<title>0</title>
<polygon fill="none" stroke="#000000" points="461.5711,-36 380.3058,-36 380.3058,0 461.5711,0 461.5711,-36"/>
<text text-anchor="middle" x="420.9385" y="-13.8" font-family="Times,serif" font-size="14.00" fill="#000000">&lt;(*v; ) | []&gt;</text>
</g>
<!-- 1 -->
<g id="node2" class="node">
<title>1</title>
<polygon fill="none" stroke="#000000" points="816.9005,-1332 24.9764,-1332 24.9764,-1296 816.9005,-1296 816.9005,-1332"/>
<text text-anchor="middle" x="420.9385" y="-1309.8" font-family="Times,serif" font-size="14.00" fill="#000000">&lt;(Seq(*v, Seq(*v, Seq(*v, Seq(If(*v, Write(*v), *v), Seq(WriteInt(*v), Seq(Write(*v), Seq(WriteInt(*v), If(*v, Write(*v), *v)))))))); ) | []&gt;</text>
</g>
<!-- 7 -->
<g id="node8" class="node">
<title>7</title>
<polygon fill="none" stroke="#000000" points="791.4854,-1260 50.3916,-1260 50.3916,-1224 791.4854,-1224 791.4854,-1260"/>
<text text-anchor="middle" x="420.9385" y="-1237.8" font-family="Times,serif" font-size="14.00" fill="#000000">&lt;(Seq(*v, Seq(*v, Seq(If(*v, Write(*v), *v), Seq(WriteInt(*v), Seq(Write(*v), Seq(WriteInt(*v), If(*v, Write(*v), *v))))))); ) | []&gt;</text>
</g>
<!-- 1&#45;&gt;7 -->
<g id="edge1" class="edge">
<title>1&#45;&gt;7</title>
<path fill="none" stroke="#000000" d="M420.9385,-1295.8314C420.9385,-1288.131 420.9385,-1278.9743 420.9385,-1270.4166"/>
<polygon fill="#000000" stroke="#000000" points="424.4386,-1270.4132 420.9385,-1260.4133 417.4386,-1270.4133 424.4386,-1270.4132"/>
</g>
<!-- 2 -->
<g id="node3" class="node">
<title>2</title>
<polygon fill="none" stroke="#000000" points="611.6827,-612 230.1943,-612 230.1943,-576 611.6827,-576 611.6827,-612"/>
<text text-anchor="middle" x="420.9385" y="-589.8" font-family="Times,serif" font-size="14.00" fill="#000000">&lt;(Seq(Write(*v), Seq(WriteInt(*v), If(*v, Write(*v), *v))); ) | []&gt;</text>
</g>
<!-- 19 -->
<g id="node20" class="node">
<title>19</title>
<polygon fill="none" stroke="#000000" points="669.5304,-540 172.3465,-540 172.3465,-504 669.5304,-504 669.5304,-540"/>
<text text-anchor="middle" x="420.9385" y="-517.8" font-family="Times,serif" font-size="14.00" fill="#000000">&lt;(Write(*v); ) | [\(&#45;1; &#45;2) &#45;&gt; (Seq(&#45;1, Seq(WriteInt(*v), If(*v, Write(*v), *v))); &#45;2)].[]&gt;</text>
</g>
<!-- 2&#45;&gt;19 -->
<g id="edge2" class="edge">
<title>2&#45;&gt;19</title>
<path fill="none" stroke="#000000" d="M420.9385,-575.8314C420.9385,-568.131 420.9385,-558.9743 420.9385,-550.4166"/>
<polygon fill="#000000" stroke="#000000" points="424.4386,-550.4132 420.9385,-540.4133 417.4386,-550.4133 424.4386,-550.4132"/>
</g>
<!-- 3 -->
<g id="node4" class="node">
<title>3</title>
<polygon fill="none" stroke="#000000" points="749.3703,-900 92.5067,-900 92.5067,-864 749.3703,-864 749.3703,-900"/>
<text text-anchor="middle" x="420.9385" y="-877.8" font-family="Times,serif" font-size="14.00" fill="#000000">&lt;(*v; ) | [\(&#45;1; &#45;2) &#45;&gt; (Seq(&#45;1, Seq(WriteInt(*v), Seq(Write(*v), Seq(WriteInt(*v), If(*v, Write(*v), *v))))); &#45;2)].[]&gt;</text>
</g>
<!-- 11 -->
<g id="node12" class="node">
<title>11</title>
<polygon fill="none" stroke="#000000" points="665.1983,-828 176.6787,-828 176.6787,-792 665.1983,-792 665.1983,-828"/>
<text text-anchor="middle" x="420.9385" y="-805.8" font-family="Times,serif" font-size="14.00" fill="#000000">&lt;(Seq(WriteInt(*v), Seq(Write(*v), Seq(WriteInt(*v), If(*v, Write(*v), *v)))); ) | []&gt;</text>
</g>
<!-- 3&#45;&gt;11 -->
<g id="edge3" class="edge">
<title>3&#45;&gt;11</title>
<path fill="none" stroke="#000000" d="M420.9385,-863.8314C420.9385,-856.131 420.9385,-846.9743 420.9385,-838.4166"/>
<polygon fill="#000000" stroke="#000000" points="424.4386,-838.4132 420.9385,-828.4133 417.4386,-838.4133 424.4386,-838.4132"/>
</g>
<!-- 4 -->
<g id="node5" class="node">
<title>4</title>
<polygon fill="none" stroke="#000000" points="595.8753,-252 246.0017,-252 246.0017,-216 595.8753,-216 595.8753,-252"/>
<text text-anchor="middle" x="420.9385" y="-229.8" font-family="Times,serif" font-size="14.00" fill="#000000">&lt;(*v; ) | [\(&#45;1; &#45;2) &#45;&gt; (Seq(&#45;1, If(*v, Write(*v), *v)); &#45;2)].[]&gt;</text>
</g>
<!-- 12 -->
<g id="node13" class="node">
<title>12</title>
<polygon fill="none" stroke="#000000" points="511.7033,-180 330.1737,-180 330.1737,-144 511.7033,-144 511.7033,-180"/>
<text text-anchor="middle" x="420.9385" y="-157.8" font-family="Times,serif" font-size="14.00" fill="#000000">&lt;(If(*v, Write(*v), *v); ) | []&gt;</text>
</g>
<!-- 4&#45;&gt;12 -->
<g id="edge4" class="edge">
<title>4&#45;&gt;12</title>
<path fill="none" stroke="#000000" d="M420.9385,-215.8314C420.9385,-208.131 420.9385,-198.9743 420.9385,-190.4166"/>
<polygon fill="#000000" stroke="#000000" points="424.4386,-190.4132 420.9385,-180.4133 417.4386,-190.4133 424.4386,-190.4132"/>
</g>
<!-- 5 -->
<g id="node6" class="node">
<title>5</title>
<polygon fill="none" stroke="#000000" points="527.2103,-108 404.6667,-108 404.6667,-72 527.2103,-72 527.2103,-108"/>
<text text-anchor="middle" x="465.9385" y="-85.8" font-family="Times,serif" font-size="14.00" fill="#000000">&lt;(Write(*v); ) | []&gt;</text>
</g>
<!-- 5&#45;&gt;0 -->
<g id="edge5" class="edge">
<title>5&#45;&gt;0</title>
<path fill="none" stroke="#000000" d="M454.5831,-71.8314C449.5059,-63.7079 443.4158,-53.9637 437.8208,-45.0118"/>
<polygon fill="#000000" stroke="#000000" points="440.7148,-43.0383 432.4468,-36.4133 434.7788,-46.7483 440.7148,-43.0383"/>
</g>
<!-- 6 -->
<g id="node7" class="node">
<title>6</title>
<polygon fill="none" stroke="#000000" points="958.5098,-972 261.3672,-972 261.3672,-936 958.5098,-936 958.5098,-972"/>
<text text-anchor="middle" x="609.9385" y="-949.8" font-family="Times,serif" font-size="14.00" fill="#000000">&lt;(Write(*v); ) | [\(&#45;1; &#45;2) &#45;&gt; (Seq(&#45;1, Seq(WriteInt(*v), Seq(Write(*v), Seq(WriteInt(*v), If(*v, Write(*v), *v))))); &#45;2)].[]&gt;</text>
</g>
<!-- 6&#45;&gt;3 -->
<g id="edge6" class="edge">
<title>6&#45;&gt;3</title>
<path fill="none" stroke="#000000" d="M562.2458,-935.8314C536.6311,-926.0734 504.8782,-913.977 477.9645,-903.7242"/>
<polygon fill="#000000" stroke="#000000" points="478.8791,-900.3273 468.2882,-900.038 476.3871,-906.8687 478.8791,-900.3273"/>
</g>
<!-- 13 -->
<g id="node14" class="node">
<title>13</title>
<polygon fill="none" stroke="#000000" points="766.0704,-1188 75.8065,-1188 75.8065,-1152 766.0704,-1152 766.0704,-1188"/>
<text text-anchor="middle" x="420.9385" y="-1165.8" font-family="Times,serif" font-size="14.00" fill="#000000">&lt;(Seq(*v, Seq(If(*v, Write(*v), *v), Seq(WriteInt(*v), Seq(Write(*v), Seq(WriteInt(*v), If(*v, Write(*v), *v)))))); ) | []&gt;</text>
</g>
<!-- 7&#45;&gt;13 -->
<g id="edge7" class="edge">
<title>7&#45;&gt;13</title>
<path fill="none" stroke="#000000" d="M420.9385,-1223.8314C420.9385,-1216.131 420.9385,-1206.9743 420.9385,-1198.4166"/>
<polygon fill="#000000" stroke="#000000" points="424.4386,-1198.4132 420.9385,-1188.4133 417.4386,-1198.4133 424.4386,-1198.4132"/>
</g>
<!-- 8 -->
<g id="node9" class="node">
<title>8</title>
<polygon fill="none" stroke="#000000" points="623.5666,-324 218.3104,-324 218.3104,-288 623.5666,-288 623.5666,-324"/>
<text text-anchor="middle" x="420.9385" y="-301.8" font-family="Times,serif" font-size="14.00" fill="#000000">&lt;(WriteInt(*v); ) | [\(&#45;1; &#45;2) &#45;&gt; (Seq(&#45;1, If(*v, Write(*v), *v)); &#45;2)].[]&gt;</text>
</g>
<!-- 8&#45;&gt;4 -->
<g id="edge8" class="edge">
<title>8&#45;&gt;4</title>
<path fill="none" stroke="#000000" d="M420.9385,-287.8314C420.9385,-280.131 420.9385,-270.9743 420.9385,-262.4166"/>
<polygon fill="#000000" stroke="#000000" points="424.4386,-262.4132 420.9385,-252.4133 417.4386,-262.4133 424.4386,-262.4132"/>
</g>
<!-- 9 -->
<g id="node10" class="node">
<title>9</title>
<polygon fill="none" stroke="#000000" points="799.0031,-1044 42.8739,-1044 42.8739,-1008 799.0031,-1008 799.0031,-1044"/>
<text text-anchor="middle" x="420.9385" y="-1021.8" font-family="Times,serif" font-size="14.00" fill="#000000">&lt;(If(*v, Write(*v), *v); ) | [\(&#45;1; &#45;2) &#45;&gt; (Seq(&#45;1, Seq(WriteInt(*v), Seq(Write(*v), Seq(WriteInt(*v), If(*v, Write(*v), *v))))); &#45;2)].[]&gt;</text>
</g>
<!-- 9&#45;&gt;3 -->
<g id="edge9" class="edge">
<title>9&#45;&gt;3</title>
<path fill="none" stroke="#000000" d="M333.1157,-1007.9177C297.5483,-998.6527 262.3837,-986.303 251.9385,-972 227.7744,-938.9112 266.0569,-916.8216 312.2545,-902.8101"/>
<polygon fill="#000000" stroke="#000000" points="313.2595,-906.163 321.8976,-900.0282 311.3192,-899.4372 313.2595,-906.163"/>
</g>
<!-- 9&#45;&gt;6 -->
<g id="edge10" class="edge">
<title>9&#45;&gt;6</title>
<path fill="none" stroke="#000000" d="M468.6312,-1007.8314C494.2458,-998.0734 525.9987,-985.977 552.9124,-975.7242"/>
<polygon fill="#000000" stroke="#000000" points="554.4899,-978.8687 562.5888,-972.038 551.9979,-972.3273 554.4899,-978.8687"/>
</g>
<!-- 10 -->
<g id="node11" class="node">
<title>10</title>
<polygon fill="none" stroke="#000000" points="565.7189,-396 276.1581,-396 276.1581,-360 565.7189,-360 565.7189,-396"/>
<text text-anchor="middle" x="420.9385" y="-373.8" font-family="Times,serif" font-size="14.00" fill="#000000">&lt;(Seq(WriteInt(*v), If(*v, Write(*v), *v)); ) | []&gt;</text>
</g>
<!-- 10&#45;&gt;8 -->
<g id="edge11" class="edge">
<title>10&#45;&gt;8</title>
<path fill="none" stroke="#000000" d="M420.9385,-359.8314C420.9385,-352.131 420.9385,-342.9743 420.9385,-334.4166"/>
<polygon fill="#000000" stroke="#000000" points="424.4386,-334.4132 420.9385,-324.4133 417.4386,-334.4133 424.4386,-334.4132"/>
</g>
<!-- 14 -->
<g id="node15" class="node">
<title>14</title>
<polygon fill="none" stroke="#000000" points="723.5459,-756 118.331,-756 118.331,-720 723.5459,-720 723.5459,-756"/>
<text text-anchor="middle" x="420.9385" y="-733.8" font-family="Times,serif" font-size="14.00" fill="#000000">&lt;(WriteInt(*v); ) | [\(&#45;1; &#45;2) &#45;&gt; (Seq(&#45;1, Seq(Write(*v), Seq(WriteInt(*v), If(*v, Write(*v), *v)))); &#45;2)].[]&gt;</text>
</g>
<!-- 11&#45;&gt;14 -->
<g id="edge12" class="edge">
<title>11&#45;&gt;14</title>
<path fill="none" stroke="#000000" d="M420.9385,-791.8314C420.9385,-784.131 420.9385,-774.9743 420.9385,-766.4166"/>
<polygon fill="#000000" stroke="#000000" points="424.4386,-766.4132 420.9385,-756.4133 417.4386,-766.4133 424.4386,-766.4132"/>
</g>
<!-- 12&#45;&gt;0 -->
<g id="edge13" class="edge">
<title>12&#45;&gt;0</title>
<path fill="none" stroke="#000000" d="M410.0505,-143.7133C404.6455,-133.5709 398.6939,-120.5105 395.9385,-108 392.4969,-92.3745 392.4969,-87.6255 395.9385,-72 397.919,-63.0081 401.5506,-53.7321 405.4436,-45.4596"/>
<polygon fill="#000000" stroke="#000000" points="408.6901,-46.7939 410.0505,-36.2867 402.4347,-43.6522 408.6901,-46.7939"/>
</g>
<!-- 12&#45;&gt;5 -->
<g id="edge14" class="edge">
<title>12&#45;&gt;5</title>
<path fill="none" stroke="#000000" d="M432.2939,-143.8314C437.3711,-135.7079 443.4611,-125.9637 449.0561,-117.0118"/>
<polygon fill="#000000" stroke="#000000" points="452.0981,-118.7483 454.4302,-108.4133 446.1621,-115.0383 452.0981,-118.7483"/>
</g>
<!-- 16 -->
<g id="node17" class="node">
<title>16</title>
<polygon fill="none" stroke="#000000" points="741.1553,-1116 100.7216,-1116 100.7216,-1080 741.1553,-1080 741.1553,-1116"/>
<text text-anchor="middle" x="420.9385" y="-1093.8" font-family="Times,serif" font-size="14.00" fill="#000000">&lt;(Seq(If(*v, Write(*v), *v), Seq(WriteInt(*v), Seq(Write(*v), Seq(WriteInt(*v), If(*v, Write(*v), *v))))); ) | []&gt;</text>
</g>
<!-- 13&#45;&gt;16 -->
<g id="edge15" class="edge">
<title>13&#45;&gt;16</title>
<path fill="none" stroke="#000000" d="M420.9385,-1151.8314C420.9385,-1144.131 420.9385,-1134.9743 420.9385,-1126.4166"/>
<polygon fill="#000000" stroke="#000000" points="424.4386,-1126.4132 420.9385,-1116.4133 417.4386,-1126.4133 424.4386,-1126.4132"/>
</g>
<!-- 15 -->
<g id="node16" class="node">
<title>15</title>
<polygon fill="none" stroke="#000000" points="695.3545,-684 146.5225,-684 146.5225,-648 695.3545,-648 695.3545,-684"/>
<text text-anchor="middle" x="420.9385" y="-661.8" font-family="Times,serif" font-size="14.00" fill="#000000">&lt;(*v; ) | [\(&#45;1; &#45;2) &#45;&gt; (Seq(&#45;1, Seq(Write(*v), Seq(WriteInt(*v), If(*v, Write(*v), *v)))); &#45;2)].[]&gt;</text>
</g>
<!-- 14&#45;&gt;15 -->
<g id="edge16" class="edge">
<title>14&#45;&gt;15</title>
<path fill="none" stroke="#000000" d="M420.9385,-719.8314C420.9385,-712.131 420.9385,-702.9743 420.9385,-694.4166"/>
<polygon fill="#000000" stroke="#000000" points="424.4386,-694.4132 420.9385,-684.4133 417.4386,-694.4133 424.4386,-694.4132"/>
</g>
<!-- 15&#45;&gt;2 -->
<g id="edge17" class="edge">
<title>15&#45;&gt;2</title>
<path fill="none" stroke="#000000" d="M420.9385,-647.8314C420.9385,-640.131 420.9385,-630.9743 420.9385,-622.4166"/>
<polygon fill="#000000" stroke="#000000" points="424.4386,-622.4132 420.9385,-612.4133 417.4386,-622.4133 424.4386,-622.4132"/>
</g>
<!-- 16&#45;&gt;9 -->
<g id="edge18" class="edge">
<title>16&#45;&gt;9</title>
<path fill="none" stroke="#000000" d="M420.9385,-1079.8314C420.9385,-1072.131 420.9385,-1062.9743 420.9385,-1054.4166"/>
<polygon fill="#000000" stroke="#000000" points="424.4386,-1054.4132 420.9385,-1044.4133 417.4386,-1054.4133 424.4386,-1054.4132"/>
</g>
<!-- 17 -->
<g id="node18" class="node">
<title>17</title>
<polygon fill="none" stroke="#000000" points="841.8154,-1404 .0615,-1404 .0615,-1368 841.8154,-1368 841.8154,-1404"/>
<text text-anchor="middle" x="420.9385" y="-1381.8" font-family="Times,serif" font-size="14.00" fill="#000000">&lt;(Seq(*v, Seq(*v, Seq(*v, Seq(*v, Seq(If(*v, Write(*v), *v), Seq(WriteInt(*v), Seq(Write(*v), Seq(WriteInt(*v), If(*v, Write(*v), *v))))))))); ) | []&gt;</text>
</g>
<!-- 17&#45;&gt;1 -->
<g id="edge19" class="edge">
<title>17&#45;&gt;1</title>
<path fill="none" stroke="#000000" d="M420.9385,-1367.8314C420.9385,-1360.131 420.9385,-1350.9743 420.9385,-1342.4166"/>
<polygon fill="#000000" stroke="#000000" points="424.4386,-1342.4132 420.9385,-1332.4133 417.4386,-1342.4133 424.4386,-1342.4132"/>
</g>
<!-- 18 -->
<g id="node19" class="node">
<title>18</title>
<polygon fill="none" stroke="#000000" points="649.3906,-468 192.4863,-468 192.4863,-432 649.3906,-432 649.3906,-468"/>
<text text-anchor="middle" x="420.9385" y="-445.8" font-family="Times,serif" font-size="14.00" fill="#000000">&lt;(*v; ) | [\(&#45;1; &#45;2) &#45;&gt; (Seq(&#45;1, Seq(WriteInt(*v), If(*v, Write(*v), *v))); &#45;2)].[]&gt;</text>
</g>
<!-- 18&#45;&gt;10 -->
<g id="edge20" class="edge">
<title>18&#45;&gt;10</title>
<path fill="none" stroke="#000000" d="M420.9385,-431.8314C420.9385,-424.131 420.9385,-414.9743 420.9385,-406.4166"/>
<polygon fill="#000000" stroke="#000000" points="424.4386,-406.4132 420.9385,-396.4133 417.4386,-406.4133 424.4386,-406.4132"/>
</g>
<!-- 19&#45;&gt;18 -->
<g id="edge21" class="edge">
<title>19&#45;&gt;18</title>
<path fill="none" stroke="#000000" d="M420.9385,-503.8314C420.9385,-496.131 420.9385,-486.9743 420.9385,-478.4166"/>
<polygon fill="#000000" stroke="#000000" points="424.4386,-478.4132 420.9385,-468.4133 417.4386,-478.4133 424.4386,-478.4132"/>
</g>
</g>
</svg>
