<?xml version="1.0" encoding="UTF-8" standalone="no"?>
<!DOCTYPE svg PUBLIC "-//W3C//DTD SVG 1.1//EN"
 "http://www.w3.org/Graphics/SVG/1.1/DTD/svg11.dtd">
<!-- Generated by graphviz version 2.40.1 (20161225.0304)
 -->
<!-- Title: %3 Pages: 1 -->
<svg width="1488pt" height="1628pt"
 viewBox="0.00 0.00 1488.46 1628.00" xmlns="http://www.w3.org/2000/svg" xmlns:xlink="http://www.w3.org/1999/xlink">
<g id="graph0" class="graph" transform="scale(1 1) rotate(0) translate(4 1624)">
<title>%3</title>
<polygon fill="#ffffff" stroke="transparent" points="-4,4 -4,-1624 1484.4561,-1624 1484.4561,4 -4,4"/>
<!-- 0 -->
<g id="node1" class="node">
<title>0</title>
<polygon fill="none" stroke="#000000" points="824.8978,-36 755.5583,-36 755.5583,0 824.8978,0 824.8978,-36"/>
<text text-anchor="middle" x="790.228" y="-13.8" font-family="Times,serif" font-size="14.00" fill="#000000">NilStmt()</text>
</g>
<!-- 1 -->
<g id="node2" class="node">
<title>1</title>
<polygon fill="none" stroke="#000000" points="803.8978,-1044 734.5583,-1044 734.5583,-1008 803.8978,-1008 803.8978,-1044"/>
<text text-anchor="middle" x="769.228" y="-1021.8" font-family="Times,serif" font-size="14.00" fill="#000000">NilStmt()</text>
</g>
<!-- 19 -->
<g id="node20" class="node">
<title>19</title>
<polygon fill="none" stroke="#000000" points="1260.8482,-972 277.6078,-972 277.6078,-936 1260.8482,-936 1260.8482,-972"/>
<text text-anchor="middle" x="769.228" y="-949.8" font-family="Times,serif" font-size="14.00" fill="#000000">ConsStmt(If(*v, Block(ConsStmt(Assign(Var(Name(&quot;a&quot;)), *v), NilStmt())), Block(ConsStmt(Assign(Var(Name(&quot;a&quot;)), *v), ConsStmt(ExpStmt(*v), NilStmt())))), NilStmt())</text>
</g>
<!-- 1&#45;&gt;19 -->
<g id="edge1" class="edge">
<title>1&#45;&gt;19</title>
<path fill="none" stroke="#000000" d="M769.228,-1007.8314C769.228,-1000.131 769.228,-990.9743 769.228,-982.4166"/>
<polygon fill="#000000" stroke="#000000" points="772.7281,-982.4132 769.228,-972.4133 765.7281,-982.4133 772.7281,-982.4132"/>
</g>
<!-- 2 -->
<g id="node3" class="node">
<title>2</title>
<polygon fill="none" stroke="#000000" points="790.5593,-1404 533.8968,-1404 533.8968,-1368 790.5593,-1368 790.5593,-1404"/>
<text text-anchor="middle" x="662.228" y="-1381.8" font-family="Times,serif" font-size="14.00" fill="#000000">Block(ConsStmt(ExpStmt(*v), NilStmt()))</text>
</g>
<!-- 25 -->
<g id="node26" class="node">
<title>25</title>
<polygon fill="none" stroke="#000000" points="756.7939,-1332 543.6622,-1332 543.6622,-1296 756.7939,-1296 756.7939,-1332"/>
<text text-anchor="middle" x="650.228" y="-1309.8" font-family="Times,serif" font-size="14.00" fill="#000000">ConsStmt(ExpStmt(*v), NilStmt())</text>
</g>
<!-- 2&#45;&gt;25 -->
<g id="edge2" class="edge">
<title>2&#45;&gt;25</title>
<path fill="none" stroke="#000000" d="M659.1999,-1367.8314C657.9165,-1360.131 656.3904,-1350.9743 654.9641,-1342.4166"/>
<polygon fill="#000000" stroke="#000000" points="658.3934,-1341.7018 653.2969,-1332.4133 651.4886,-1342.8526 658.3934,-1341.7018"/>
</g>
<!-- 3 -->
<g id="node4" class="node">
<title>3</title>
<polygon fill="none" stroke="#000000" points="887.6634,-1332 774.7926,-1332 774.7926,-1296 887.6634,-1296 887.6634,-1332"/>
<text text-anchor="middle" x="831.228" y="-1309.8" font-family="Times,serif" font-size="14.00" fill="#000000">Block(NilStmt())</text>
</g>
<!-- 3&#45;&gt;1 -->
<g id="edge3" class="edge">
<title>3&#45;&gt;1</title>
<path fill="none" stroke="#000000" d="M827.6004,-1295.7552C819.7151,-1256.3105 800.2694,-1160.1774 782.228,-1080 780.3526,-1071.6654 778.2183,-1062.6323 776.2289,-1054.3823"/>
<polygon fill="#000000" stroke="#000000" points="779.5806,-1053.3525 773.8169,-1044.4626 772.7788,-1055.0064 779.5806,-1053.3525"/>
</g>
<!-- 4 -->
<g id="node5" class="node">
<title>4</title>
<polygon fill="none" stroke="#000000" points="1458.9185,-1548 21.5376,-1548 21.5376,-1512 1458.9185,-1512 1458.9185,-1548"/>
<text text-anchor="middle" x="740.228" y="-1525.8" font-family="Times,serif" font-size="14.00" fill="#000000">ConsStmt(If(*v, Block(ConsStmt(ExpStmt(*v), NilStmt())), Block(NilStmt())), ConsStmt(If(*v, Block(ConsStmt(Assign(Var(Name(&quot;a&quot;)), *v), NilStmt())), Block(ConsStmt(Assign(Var(Name(&quot;a&quot;)), *v), ConsStmt(ExpStmt(*v), NilStmt())))), NilStmt()))</text>
</g>
<!-- 22 -->
<g id="node23" class="node">
<title>22</title>
<polygon fill="none" stroke="#000000" points="939.2332,-1476 541.2228,-1476 541.2228,-1440 939.2332,-1440 939.2332,-1476"/>
<text text-anchor="middle" x="740.228" y="-1453.8" font-family="Times,serif" font-size="14.00" fill="#000000">If(*v, Block(ConsStmt(ExpStmt(*v), NilStmt())), Block(NilStmt()))</text>
</g>
<!-- 4&#45;&gt;22 -->
<g id="edge4" class="edge">
<title>4&#45;&gt;22</title>
<path fill="none" stroke="#000000" d="M740.228,-1511.8314C740.228,-1504.131 740.228,-1494.9743 740.228,-1486.4166"/>
<polygon fill="#000000" stroke="#000000" points="743.7281,-1486.4132 740.228,-1476.4133 736.7281,-1486.4133 743.7281,-1486.4132"/>
</g>
<!-- 5 -->
<g id="node6" class="node">
<title>5</title>
<polygon fill="none" stroke="#000000" points="1158.9488,-612 769.5072,-612 769.5072,-576 1158.9488,-576 1158.9488,-612"/>
<text text-anchor="middle" x="964.228" y="-589.8" font-family="Times,serif" font-size="14.00" fill="#000000">Assign(FieldAccess(ReferenceVal(HeapAddr(0)), Name(&quot;a&quot;)), *v)</text>
</g>
<!-- 16 -->
<g id="node17" class="node">
<title>16</title>
<polygon fill="none" stroke="#000000" points="989.8978,-540 920.5583,-540 920.5583,-504 989.8978,-504 989.8978,-540"/>
<text text-anchor="middle" x="955.228" y="-517.8" font-family="Times,serif" font-size="14.00" fill="#000000">NilStmt()</text>
</g>
<!-- 5&#45;&gt;16 -->
<g id="edge5" class="edge">
<title>5&#45;&gt;16</title>
<path fill="none" stroke="#000000" d="M961.9569,-575.8314C960.9944,-568.131 959.8498,-558.9743 958.7801,-550.4166"/>
<polygon fill="#000000" stroke="#000000" points="962.2431,-549.9019 957.5297,-540.4133 955.2971,-550.7702 962.2431,-549.9019"/>
</g>
<!-- 6 -->
<g id="node7" class="node">
<title>6</title>
<polygon fill="none" stroke="#000000" points="901.5597,-396 812.8963,-396 812.8963,-360 901.5597,-360 901.5597,-396"/>
<text text-anchor="middle" x="857.228" y="-373.8" font-family="Times,serif" font-size="14.00" fill="#000000">ExpStmt(*v)</text>
</g>
<!-- 11 -->
<g id="node12" class="node">
<title>11</title>
<polygon fill="none" stroke="#000000" points="824.8978,-324 755.5583,-324 755.5583,-288 824.8978,-288 824.8978,-324"/>
<text text-anchor="middle" x="790.228" y="-301.8" font-family="Times,serif" font-size="14.00" fill="#000000">NilStmt()</text>
</g>
<!-- 6&#45;&gt;11 -->
<g id="edge6" class="edge">
<title>6&#45;&gt;11</title>
<path fill="none" stroke="#000000" d="M840.3211,-359.8314C832.4468,-351.3694 822.936,-341.1489 814.3267,-331.8971"/>
<polygon fill="#000000" stroke="#000000" points="816.7372,-329.3497 807.3626,-324.4133 811.6127,-334.1183 816.7372,-329.3497"/>
</g>
<!-- 7 -->
<g id="node8" class="node">
<title>7</title>
<polygon fill="none" stroke="#000000" points="892.9488,-540 503.5072,-540 503.5072,-504 892.9488,-504 892.9488,-540"/>
<text text-anchor="middle" x="698.228" y="-517.8" font-family="Times,serif" font-size="14.00" fill="#000000">Assign(FieldAccess(ReferenceVal(HeapAddr(0)), Name(&quot;a&quot;)), *v)</text>
</g>
<!-- 7&#45;&gt;11 -->
<g id="edge7" class="edge">
<title>7&#45;&gt;11</title>
<path fill="none" stroke="#000000" d="M705.9137,-503.9555C722.0136,-466.1556 759.3695,-378.4506 778.491,-333.5564"/>
<polygon fill="#000000" stroke="#000000" points="781.801,-334.7169 782.4996,-324.1451 775.3608,-331.9738 781.801,-334.7169"/>
</g>
<!-- 8 -->
<g id="node9" class="node">
<title>8</title>
<polygon fill="none" stroke="#000000" points="724.6032,-828 381.8528,-828 381.8528,-792 724.6032,-792 724.6032,-828"/>
<text text-anchor="middle" x="553.228" y="-805.8" font-family="Times,serif" font-size="14.00" fill="#000000">Block(ConsStmt(Assign(Var(Name(&quot;a&quot;)), *v), NilStmt()))</text>
</g>
<!-- 15 -->
<g id="node16" class="node">
<title>15</title>
<polygon fill="none" stroke="#000000" points="723.8377,-756 424.6184,-756 424.6184,-720 723.8377,-720 723.8377,-756"/>
<text text-anchor="middle" x="574.228" y="-733.8" font-family="Times,serif" font-size="14.00" fill="#000000">ConsStmt(Assign(Var(Name(&quot;a&quot;)), *v), NilStmt())</text>
</g>
<!-- 8&#45;&gt;15 -->
<g id="edge8" class="edge">
<title>8&#45;&gt;15</title>
<path fill="none" stroke="#000000" d="M558.5272,-791.8314C560.7978,-784.0463 563.5026,-774.7729 566.0221,-766.1347"/>
<polygon fill="#000000" stroke="#000000" points="569.4174,-766.9933 568.8575,-756.4133 562.6974,-765.0332 569.4174,-766.9933"/>
</g>
<!-- 9 -->
<g id="node10" class="node">
<title>9</title>
<polygon fill="none" stroke="#000000" points="1195.7342,-756 752.7219,-756 752.7219,-720 1195.7342,-720 1195.7342,-756"/>
<text text-anchor="middle" x="974.228" y="-733.8" font-family="Times,serif" font-size="14.00" fill="#000000">ConsStmt(Assign(Var(Name(&quot;a&quot;)), *v), ConsStmt(ExpStmt(*v), NilStmt()))</text>
</g>
<!-- 10 -->
<g id="node11" class="node">
<title>10</title>
<polygon fill="none" stroke="#000000" points="1056.6034,-684 881.8526,-684 881.8526,-648 1056.6034,-648 1056.6034,-684"/>
<text text-anchor="middle" x="969.228" y="-661.8" font-family="Times,serif" font-size="14.00" fill="#000000">Assign(Var(Name(&quot;a&quot;)), *v)</text>
</g>
<!-- 9&#45;&gt;10 -->
<g id="edge9" class="edge">
<title>9&#45;&gt;10</title>
<path fill="none" stroke="#000000" d="M972.9663,-719.8314C972.4316,-712.131 971.7957,-702.9743 971.2014,-694.4166"/>
<polygon fill="#000000" stroke="#000000" points="974.6912,-694.1467 970.5067,-684.4133 967.708,-694.6317 974.6912,-694.1467"/>
</g>
<!-- 10&#45;&gt;5 -->
<g id="edge10" class="edge">
<title>10&#45;&gt;5</title>
<path fill="none" stroke="#000000" d="M967.9663,-647.8314C967.4316,-640.131 966.7957,-630.9743 966.2014,-622.4166"/>
<polygon fill="#000000" stroke="#000000" points="969.6912,-622.1467 965.5067,-612.4133 962.708,-622.6317 969.6912,-622.1467"/>
</g>
<!-- 12 -->
<g id="node13" class="node">
<title>12</title>
<polygon fill="none" stroke="#000000" points="824.8978,-252 755.5583,-252 755.5583,-216 824.8978,-216 824.8978,-252"/>
<text text-anchor="middle" x="790.228" y="-229.8" font-family="Times,serif" font-size="14.00" fill="#000000">NilStmt()</text>
</g>
<!-- 11&#45;&gt;12 -->
<g id="edge11" class="edge">
<title>11&#45;&gt;12</title>
<path fill="none" stroke="#000000" d="M790.228,-287.8314C790.228,-280.131 790.228,-270.9743 790.228,-262.4166"/>
<polygon fill="#000000" stroke="#000000" points="793.7281,-262.4132 790.228,-252.4133 786.7281,-262.4133 793.7281,-262.4132"/>
</g>
<!-- 26 -->
<g id="node27" class="node">
<title>26</title>
<polygon fill="none" stroke="#000000" points="824.8978,-180 755.5583,-180 755.5583,-144 824.8978,-144 824.8978,-180"/>
<text text-anchor="middle" x="790.228" y="-157.8" font-family="Times,serif" font-size="14.00" fill="#000000">NilStmt()</text>
</g>
<!-- 12&#45;&gt;26 -->
<g id="edge12" class="edge">
<title>12&#45;&gt;26</title>
<path fill="none" stroke="#000000" d="M790.228,-215.8314C790.228,-208.131 790.228,-198.9743 790.228,-190.4166"/>
<polygon fill="#000000" stroke="#000000" points="793.7281,-190.4132 790.228,-180.4133 786.7281,-190.4133 793.7281,-190.4132"/>
</g>
<!-- 13 -->
<g id="node14" class="node">
<title>13</title>
<polygon fill="none" stroke="#000000" points="1198.6139,-900 339.8422,-900 339.8422,-864 1198.6139,-864 1198.6139,-900"/>
<text text-anchor="middle" x="769.228" y="-877.8" font-family="Times,serif" font-size="14.00" fill="#000000">If(*v, Block(ConsStmt(Assign(Var(Name(&quot;a&quot;)), *v), NilStmt())), Block(ConsStmt(Assign(Var(Name(&quot;a&quot;)), *v), ConsStmt(ExpStmt(*v), NilStmt()))))</text>
</g>
<!-- 13&#45;&gt;8 -->
<g id="edge13" class="edge">
<title>13&#45;&gt;8</title>
<path fill="none" stroke="#000000" d="M715.0009,-863.9243C685.3441,-854.0387 648.4243,-841.7321 617.346,-831.3726"/>
<polygon fill="#000000" stroke="#000000" points="618.0711,-827.9251 607.4775,-828.0831 615.8575,-834.5659 618.0711,-827.9251"/>
</g>
<!-- 18 -->
<g id="node19" class="node">
<title>18</title>
<polygon fill="none" stroke="#000000" points="1228.4996,-828 741.9565,-828 741.9565,-792 1228.4996,-792 1228.4996,-828"/>
<text text-anchor="middle" x="985.228" y="-805.8" font-family="Times,serif" font-size="14.00" fill="#000000">Block(ConsStmt(Assign(Var(Name(&quot;a&quot;)), *v), ConsStmt(ExpStmt(*v), NilStmt())))</text>
</g>
<!-- 13&#45;&gt;18 -->
<g id="edge14" class="edge">
<title>13&#45;&gt;18</title>
<path fill="none" stroke="#000000" d="M823.4551,-863.9243C853.112,-854.0387 890.0317,-841.7321 921.1101,-831.3726"/>
<polygon fill="#000000" stroke="#000000" points="922.5986,-834.5659 930.9786,-828.0831 920.3849,-827.9251 922.5986,-834.5659"/>
</g>
<!-- 14 -->
<g id="node15" class="node">
<title>14</title>
<polygon fill="none" stroke="#000000" points="1023.7939,-468 810.6622,-468 810.6622,-432 1023.7939,-432 1023.7939,-468"/>
<text text-anchor="middle" x="917.228" y="-445.8" font-family="Times,serif" font-size="14.00" fill="#000000">ConsStmt(ExpStmt(*v), NilStmt())</text>
</g>
<!-- 14&#45;&gt;6 -->
<g id="edge15" class="edge">
<title>14&#45;&gt;6</title>
<path fill="none" stroke="#000000" d="M902.0875,-431.8314C895.1064,-423.454 886.689,-413.3531 879.0405,-404.1749"/>
<polygon fill="#000000" stroke="#000000" points="881.6631,-401.8548 872.5724,-396.4133 876.2855,-406.3362 881.6631,-401.8548"/>
</g>
<!-- 17 -->
<g id="node18" class="node">
<title>17</title>
<polygon fill="none" stroke="#000000" points="732.6034,-684 557.8526,-684 557.8526,-648 732.6034,-648 732.6034,-684"/>
<text text-anchor="middle" x="645.228" y="-661.8" font-family="Times,serif" font-size="14.00" fill="#000000">Assign(Var(Name(&quot;a&quot;)), *v)</text>
</g>
<!-- 15&#45;&gt;17 -->
<g id="edge16" class="edge">
<title>15&#45;&gt;17</title>
<path fill="none" stroke="#000000" d="M592.1443,-719.8314C600.5722,-711.2848 610.769,-700.9443 619.964,-691.6198"/>
<polygon fill="#000000" stroke="#000000" points="622.5412,-693.9912 627.0705,-684.4133 617.5569,-689.0761 622.5412,-693.9912"/>
</g>
<!-- 16&#45;&gt;14 -->
<g id="edge17" class="edge">
<title>16&#45;&gt;14</title>
<path fill="none" stroke="#000000" d="M945.639,-503.8314C941.3963,-495.7925 936.3159,-486.1666 931.632,-477.2918"/>
<polygon fill="#000000" stroke="#000000" points="934.7091,-475.6235 926.9461,-468.4133 928.5184,-478.8908 934.7091,-475.6235"/>
</g>
<!-- 17&#45;&gt;7 -->
<g id="edge18" class="edge">
<title>17&#45;&gt;7</title>
<path fill="none" stroke="#000000" d="M651.9405,-647.7623C661.0601,-622.9846 677.4434,-578.4714 688.0719,-549.5939"/>
<polygon fill="#000000" stroke="#000000" points="691.4005,-550.6831 691.57,-540.0896 684.8314,-548.2652 691.4005,-550.6831"/>
</g>
<!-- 18&#45;&gt;9 -->
<g id="edge19" class="edge">
<title>18&#45;&gt;9</title>
<path fill="none" stroke="#000000" d="M982.4523,-791.8314C981.2758,-784.131 979.8769,-774.9743 978.5695,-766.4166"/>
<polygon fill="#000000" stroke="#000000" points="982.0114,-765.7699 977.0412,-756.4133 975.0916,-766.8272 982.0114,-765.7699"/>
</g>
<!-- 19&#45;&gt;13 -->
<g id="edge20" class="edge">
<title>19&#45;&gt;13</title>
<path fill="none" stroke="#000000" d="M769.228,-935.8314C769.228,-928.131 769.228,-918.9743 769.228,-910.4166"/>
<polygon fill="#000000" stroke="#000000" points="772.7281,-910.4132 769.228,-900.4133 765.7281,-910.4133 772.7281,-910.4132"/>
</g>
<!-- 20 -->
<g id="node21" class="node">
<title>20</title>
<polygon fill="none" stroke="#000000" points="772.8978,-1116 703.5583,-1116 703.5583,-1080 772.8978,-1080 772.8978,-1116"/>
<text text-anchor="middle" x="738.228" y="-1093.8" font-family="Times,serif" font-size="14.00" fill="#000000">NilStmt()</text>
</g>
<!-- 20&#45;&gt;1 -->
<g id="edge21" class="edge">
<title>20&#45;&gt;1</title>
<path fill="none" stroke="#000000" d="M746.0506,-1079.8314C749.439,-1071.9617 753.4821,-1062.5712 757.2356,-1053.8533"/>
<polygon fill="#000000" stroke="#000000" points="760.5601,-1054.9822 761.3001,-1044.4133 754.1308,-1052.214 760.5601,-1054.9822"/>
</g>
<!-- 21 -->
<g id="node22" class="node">
<title>21</title>
<polygon fill="none" stroke="#000000" points="824.8978,-108 755.5583,-108 755.5583,-72 824.8978,-72 824.8978,-108"/>
<text text-anchor="middle" x="790.228" y="-85.8" font-family="Times,serif" font-size="14.00" fill="#000000">NilStmt()</text>
</g>
<!-- 21&#45;&gt;0 -->
<g id="edge22" class="edge">
<title>21&#45;&gt;0</title>
<path fill="none" stroke="#000000" d="M790.228,-71.8314C790.228,-64.131 790.228,-54.9743 790.228,-46.4166"/>
<polygon fill="#000000" stroke="#000000" points="793.7281,-46.4132 790.228,-36.4133 786.7281,-46.4133 793.7281,-46.4132"/>
</g>
<!-- 22&#45;&gt;2 -->
<g id="edge23" class="edge">
<title>22&#45;&gt;2</title>
<path fill="none" stroke="#000000" d="M720.5453,-1439.8314C711.1229,-1431.1337 699.6879,-1420.5783 689.4484,-1411.1265"/>
<polygon fill="#000000" stroke="#000000" points="691.6265,-1408.3738 681.9044,-1404.1628 686.8785,-1413.5175 691.6265,-1408.3738"/>
</g>
<!-- 22&#45;&gt;3 -->
<g id="edge24" class="edge">
<title>22&#45;&gt;3</title>
<path fill="none" stroke="#000000" d="M764.9874,-1439.9884C776.7042,-1430.4071 790.095,-1417.7706 799.228,-1404 811.7755,-1385.0811 820.054,-1360.6602 825.0412,-1342.0314"/>
<polygon fill="#000000" stroke="#000000" points="828.4981,-1342.6358 827.5421,-1332.0842 821.7094,-1340.929 828.4981,-1342.6358"/>
</g>
<!-- 23 -->
<g id="node24" class="node">
<title>23</title>
<polygon fill="none" stroke="#000000" points="748.5597,-1260 659.8963,-1260 659.8963,-1224 748.5597,-1224 748.5597,-1260"/>
<text text-anchor="middle" x="704.228" y="-1237.8" font-family="Times,serif" font-size="14.00" fill="#000000">ExpStmt(*v)</text>
</g>
<!-- 24 -->
<g id="node25" class="node">
<title>24</title>
<polygon fill="none" stroke="#000000" points="768.8978,-1188 699.5583,-1188 699.5583,-1152 768.8978,-1152 768.8978,-1188"/>
<text text-anchor="middle" x="734.228" y="-1165.8" font-family="Times,serif" font-size="14.00" fill="#000000">NilStmt()</text>
</g>
<!-- 23&#45;&gt;24 -->
<g id="edge25" class="edge">
<title>23&#45;&gt;24</title>
<path fill="none" stroke="#000000" d="M711.7983,-1223.8314C715.0773,-1215.9617 718.99,-1206.5712 722.6225,-1197.8533"/>
<polygon fill="#000000" stroke="#000000" points="725.9404,-1198.9902 726.5558,-1188.4133 719.4788,-1196.2979 725.9404,-1198.9902"/>
</g>
<!-- 24&#45;&gt;20 -->
<g id="edge26" class="edge">
<title>24&#45;&gt;20</title>
<path fill="none" stroke="#000000" d="M735.2374,-1151.8314C735.6652,-1144.131 736.1739,-1134.9743 736.6493,-1126.4166"/>
<polygon fill="#000000" stroke="#000000" points="740.1449,-1126.592 737.2051,-1116.4133 733.1557,-1126.2037 740.1449,-1126.592"/>
</g>
<!-- 25&#45;&gt;23 -->
<g id="edge27" class="edge">
<title>25&#45;&gt;23</title>
<path fill="none" stroke="#000000" d="M663.8545,-1295.8314C670.0741,-1287.5386 677.5603,-1277.557 684.388,-1268.4533"/>
<polygon fill="#000000" stroke="#000000" points="687.218,-1270.5133 690.4181,-1260.4133 681.618,-1266.3133 687.218,-1270.5133"/>
</g>
<!-- 26&#45;&gt;21 -->
<g id="edge28" class="edge">
<title>26&#45;&gt;21</title>
<path fill="none" stroke="#000000" d="M790.228,-143.8314C790.228,-136.131 790.228,-126.9743 790.228,-118.4166"/>
<polygon fill="#000000" stroke="#000000" points="793.7281,-118.4132 790.228,-108.4133 786.7281,-118.4133 793.7281,-118.4132"/>
</g>
<!-- 27 -->
<g id="node28" class="node">
<title>27</title>
<polygon fill="none" stroke="#000000" points="1480.6842,-1620 -.2281,-1620 -.2281,-1584 1480.6842,-1584 1480.6842,-1620"/>
<text text-anchor="middle" x="740.228" y="-1597.8" font-family="Times,serif" font-size="14.00" fill="#000000">Block(ConsStmt(If(*v, Block(ConsStmt(ExpStmt(*v), NilStmt())), Block(NilStmt())), ConsStmt(If(*v, Block(ConsStmt(Assign(Var(Name(&quot;a&quot;)), *v), NilStmt())), Block(ConsStmt(Assign(Var(Name(&quot;a&quot;)), *v), ConsStmt(ExpStmt(*v), NilStmt())))), NilStmt())))</text>
</g>
<!-- 27&#45;&gt;4 -->
<g id="edge29" class="edge">
<title>27&#45;&gt;4</title>
<path fill="none" stroke="#000000" d="M740.228,-1583.8314C740.228,-1576.131 740.228,-1566.9743 740.228,-1558.4166"/>
<polygon fill="#000000" stroke="#000000" points="743.7281,-1558.4132 740.228,-1548.4133 736.7281,-1558.4133 743.7281,-1558.4132"/>
</g>
</g>
</svg>
