<?xml version="1.0" encoding="UTF-8" standalone="no"?>
<!DOCTYPE svg PUBLIC "-//W3C//DTD SVG 1.1//EN"
 "http://www.w3.org/Graphics/SVG/1.1/DTD/svg11.dtd">
<!-- Generated by graphviz version 2.40.1 (20161225.0304)
 -->
<!-- Title: %3 Pages: 1 -->
<svg width="1990pt" height="764pt"
 viewBox="0.00 0.00 1989.78 764.00" xmlns="http://www.w3.org/2000/svg" xmlns:xlink="http://www.w3.org/1999/xlink">
<g id="graph0" class="graph" transform="scale(1 1) rotate(0) translate(4 760)">
<title>%3</title>
<polygon fill="#ffffff" stroke="transparent" points="-4,4 -4,-760 1985.7837,-760 1985.7837,4 -4,4"/>
<!-- 0 -->
<g id="node1" class="node">
<title>0</title>
<polygon fill="none" stroke="#000000" points="69.5042,-468 .1647,-468 .1647,-432 69.5042,-432 69.5042,-468"/>
<text text-anchor="middle" x="34.8345" y="-445.8" font-family="Times,serif" font-size="14.00" fill="#000000">NilStmt()</text>
</g>
<!-- 1 -->
<g id="node2" class="node">
<title>1</title>
<polygon fill="none" stroke="#000000" points="1960.4673,-684 955.2017,-684 955.2017,-648 1960.4673,-648 1960.4673,-684"/>
<text text-anchor="middle" x="1457.8345" y="-661.8" font-family="Times,serif" font-size="14.00" fill="#000000">ConsStmt(Assign(Var(Name(&quot;foo&quot;)), *v), ConsStmt(Assign(Var(Name(&quot;x&quot;)), *v), ConsStmt(While(*v, Block(ConsStmt(Assign(Var(Name(&quot;x&quot;)), *v), NilStmt()))), NilStmt())))</text>
</g>
<!-- 12 -->
<g id="node13" class="node">
<title>12</title>
<polygon fill="none" stroke="#000000" points="1547.1578,-612 1360.5111,-612 1360.5111,-576 1547.1578,-576 1547.1578,-612"/>
<text text-anchor="middle" x="1453.8345" y="-589.8" font-family="Times,serif" font-size="14.00" fill="#000000">Assign(Var(Name(&quot;foo&quot;)), *v)</text>
</g>
<!-- 1&#45;&gt;12 -->
<g id="edge1" class="edge">
<title>1&#45;&gt;12</title>
<path fill="none" stroke="#000000" d="M1456.8251,-647.8314C1456.3973,-640.131 1455.8886,-630.9743 1455.4132,-622.4166"/>
<polygon fill="#000000" stroke="#000000" points="1458.9068,-622.2037 1454.8574,-612.4133 1451.9176,-622.592 1458.9068,-622.2037"/>
</g>
<!-- 2 -->
<g id="node3" class="node">
<title>2</title>
<polygon fill="none" stroke="#000000" points="1589.0035,-540 1186.6655,-540 1186.6655,-504 1589.0035,-504 1589.0035,-540"/>
<text text-anchor="middle" x="1387.8345" y="-517.8" font-family="Times,serif" font-size="14.00" fill="#000000">Assign(FieldAccess(ReferenceVal(HeapAddr(0)), Name(&quot;foo&quot;)), *v)</text>
</g>
<!-- 11 -->
<g id="node12" class="node">
<title>11</title>
<polygon fill="none" stroke="#000000" points="1405.5042,-468 1336.1647,-468 1336.1647,-432 1405.5042,-432 1405.5042,-468"/>
<text text-anchor="middle" x="1370.8345" y="-445.8" font-family="Times,serif" font-size="14.00" fill="#000000">NilStmt()</text>
</g>
<!-- 2&#45;&gt;11 -->
<g id="edge2" class="edge">
<title>2&#45;&gt;11</title>
<path fill="none" stroke="#000000" d="M1383.5447,-503.8314C1381.7265,-496.131 1379.5645,-486.9743 1377.544,-478.4166"/>
<polygon fill="#000000" stroke="#000000" points="1380.8864,-477.3414 1375.182,-468.4133 1374.0737,-478.95 1380.8864,-477.3414"/>
</g>
<!-- 3 -->
<g id="node4" class="node">
<title>3</title>
<polygon fill="none" stroke="#000000" points="720.5042,-252 651.1647,-252 651.1647,-216 720.5042,-216 720.5042,-252"/>
<text text-anchor="middle" x="685.8345" y="-229.8" font-family="Times,serif" font-size="14.00" fill="#000000">NilStmt()</text>
</g>
<!-- 7 -->
<g id="node8" class="node">
<title>7</title>
<polygon fill="none" stroke="#000000" points="800.5042,-180 731.1647,-180 731.1647,-144 800.5042,-144 800.5042,-180"/>
<text text-anchor="middle" x="765.8345" y="-157.8" font-family="Times,serif" font-size="14.00" fill="#000000">NilStmt()</text>
</g>
<!-- 3&#45;&gt;7 -->
<g id="edge3" class="edge">
<title>3&#45;&gt;7</title>
<path fill="none" stroke="#000000" d="M706.0219,-215.8314C715.6859,-207.1337 727.4141,-196.5783 737.9161,-187.1265"/>
<polygon fill="#000000" stroke="#000000" points="740.562,-189.454 745.6536,-180.1628 735.8792,-184.251 740.562,-189.454"/>
</g>
<!-- 4 -->
<g id="node5" class="node">
<title>4</title>
<polygon fill="none" stroke="#000000" points="840.8416,-324 450.8273,-324 450.8273,-288 840.8416,-288 840.8416,-324"/>
<text text-anchor="middle" x="645.8345" y="-301.8" font-family="Times,serif" font-size="14.00" fill="#000000">Assign(FieldAccess(ReferenceVal(HeapAddr(0)), Name(&quot;x&quot;)), *v)</text>
</g>
<!-- 4&#45;&gt;3 -->
<g id="edge4" class="edge">
<title>4&#45;&gt;3</title>
<path fill="none" stroke="#000000" d="M655.9282,-287.8314C660.3942,-279.7925 665.7419,-270.1666 670.6724,-261.2918"/>
<polygon fill="#000000" stroke="#000000" points="673.808,-262.8546 675.6049,-252.4133 667.6888,-259.4551 673.808,-262.8546"/>
</g>
<!-- 5 -->
<g id="node6" class="node">
<title>5</title>
<polygon fill="none" stroke="#000000" points="720.4957,-396 545.1733,-396 545.1733,-360 720.4957,-360 720.4957,-396"/>
<text text-anchor="middle" x="632.8345" y="-373.8" font-family="Times,serif" font-size="14.00" fill="#000000">Assign(Var(Name(&quot;x&quot;)), *v)</text>
</g>
<!-- 5&#45;&gt;4 -->
<g id="edge5" class="edge">
<title>5&#45;&gt;4</title>
<path fill="none" stroke="#000000" d="M636.1149,-359.8314C637.5053,-352.131 639.1585,-342.9743 640.7037,-334.4166"/>
<polygon fill="#000000" stroke="#000000" points="644.1773,-334.8761 642.5099,-324.4133 637.2886,-333.6322 644.1773,-334.8761"/>
</g>
<!-- 6 -->
<g id="node7" class="node">
<title>6</title>
<polygon fill="none" stroke="#000000" points="679.2302,-468 378.4387,-468 378.4387,-432 679.2302,-432 679.2302,-468"/>
<text text-anchor="middle" x="528.8345" y="-445.8" font-family="Times,serif" font-size="14.00" fill="#000000">ConsStmt(Assign(Var(Name(&quot;x&quot;)), *v), NilStmt())</text>
</g>
<!-- 6&#45;&gt;5 -->
<g id="edge6" class="edge">
<title>6&#45;&gt;5</title>
<path fill="none" stroke="#000000" d="M555.0781,-431.8314C568.134,-422.7927 584.0879,-411.7476 598.1392,-402.0198"/>
<polygon fill="#000000" stroke="#000000" points="600.3696,-404.7326 606.5993,-396.1628 596.3851,-398.9773 600.3696,-404.7326"/>
</g>
<!-- 8 -->
<g id="node9" class="node">
<title>8</title>
<polygon fill="none" stroke="#000000" points="846.5042,-108 777.1647,-108 777.1647,-72 846.5042,-72 846.5042,-108"/>
<text text-anchor="middle" x="811.8345" y="-85.8" font-family="Times,serif" font-size="14.00" fill="#000000">NilStmt()</text>
</g>
<!-- 7&#45;&gt;8 -->
<g id="edge7" class="edge">
<title>7&#45;&gt;8</title>
<path fill="none" stroke="#000000" d="M777.4422,-143.8314C782.6322,-135.7079 788.8576,-125.9637 794.5769,-117.0118"/>
<polygon fill="#000000" stroke="#000000" points="797.6359,-118.7246 800.0704,-108.4133 791.7371,-114.9559 797.6359,-118.7246"/>
</g>
<!-- 16 -->
<g id="node17" class="node">
<title>16</title>
<polygon fill="none" stroke="#000000" points="1124.1177,-36 717.5512,-36 717.5512,0 1124.1177,0 1124.1177,-36"/>
<text text-anchor="middle" x="920.8345" y="-13.8" font-family="Times,serif" font-size="14.00" fill="#000000">While(*v, Block(ConsStmt(Assign(Var(Name(&quot;x&quot;)), *v), NilStmt())))</text>
</g>
<!-- 8&#45;&gt;16 -->
<g id="edge8" class="edge">
<title>8&#45;&gt;16</title>
<path fill="none" stroke="#000000" d="M839.3398,-71.8314C853.1525,-62.7074 870.0601,-51.539 884.8874,-41.7449"/>
<polygon fill="#000000" stroke="#000000" points="886.9231,-44.5949 893.338,-36.1628 883.0649,-38.7541 886.9231,-44.5949"/>
</g>
<!-- 9 -->
<g id="node10" class="node">
<title>9</title>
<polygon fill="none" stroke="#000000" points="674.4956,-540 331.1733,-540 331.1733,-504 674.4956,-504 674.4956,-540"/>
<text text-anchor="middle" x="502.8345" y="-517.8" font-family="Times,serif" font-size="14.00" fill="#000000">Block(ConsStmt(Assign(Var(Name(&quot;x&quot;)), *v), NilStmt()))</text>
</g>
<!-- 9&#45;&gt;6 -->
<g id="edge9" class="edge">
<title>9&#45;&gt;6</title>
<path fill="none" stroke="#000000" d="M509.3954,-503.8314C512.2372,-495.9617 515.6282,-486.5712 518.7763,-477.8533"/>
<polygon fill="#000000" stroke="#000000" points="522.0807,-479.0076 522.1852,-468.4133 515.4968,-476.63 522.0807,-479.0076"/>
</g>
<!-- 10 -->
<g id="node11" class="node">
<title>10</title>
<polygon fill="none" stroke="#000000" points="937.0064,-684 32.6625,-684 32.6625,-648 937.0064,-648 937.0064,-684"/>
<text text-anchor="middle" x="484.8345" y="-661.8" font-family="Times,serif" font-size="14.00" fill="#000000">If(*v, ConsStmt(Block(ConsStmt(Assign(Var(Name(&quot;x&quot;)), *v), NilStmt())), While(*v, Block(ConsStmt(Assign(Var(Name(&quot;x&quot;)), *v), NilStmt())))), NilStmt())</text>
</g>
<!-- 14 -->
<g id="node15" class="node">
<title>14</title>
<polygon fill="none" stroke="#000000" points="69.5042,-612 .1647,-612 .1647,-576 69.5042,-576 69.5042,-612"/>
<text text-anchor="middle" x="34.8345" y="-589.8" font-family="Times,serif" font-size="14.00" fill="#000000">NilStmt()</text>
</g>
<!-- 10&#45;&gt;14 -->
<g id="edge10" class="edge">
<title>10&#45;&gt;14</title>
<path fill="none" stroke="#000000" d="M267.8056,-647.9849C208.6867,-640.3198 144.8467,-629.4971 79.4307,-612.1223"/>
<polygon fill="#000000" stroke="#000000" points="80.3349,-608.7412 69.7681,-609.5109 78.5086,-615.4988 80.3349,-608.7412"/>
</g>
<!-- 15 -->
<g id="node16" class="node">
<title>15</title>
<polygon fill="none" stroke="#000000" points="892.5982,-612 87.0708,-612 87.0708,-576 892.5982,-576 892.5982,-612"/>
<text text-anchor="middle" x="489.8345" y="-589.8" font-family="Times,serif" font-size="14.00" fill="#000000">ConsStmt(Block(ConsStmt(Assign(Var(Name(&quot;x&quot;)), *v), NilStmt())), While(*v, Block(ConsStmt(Assign(Var(Name(&quot;x&quot;)), *v), NilStmt()))))</text>
</g>
<!-- 10&#45;&gt;15 -->
<g id="edge11" class="edge">
<title>10&#45;&gt;15</title>
<path fill="none" stroke="#000000" d="M486.0962,-647.8314C486.6309,-640.131 487.2668,-630.9743 487.8611,-622.4166"/>
<polygon fill="#000000" stroke="#000000" points="491.3545,-622.6317 488.5558,-612.4133 484.3713,-622.1467 491.3545,-622.6317"/>
</g>
<!-- 19 -->
<g id="node20" class="node">
<title>19</title>
<polygon fill="none" stroke="#000000" points="1744.0787,-396 981.5903,-396 981.5903,-360 1744.0787,-360 1744.0787,-396"/>
<text text-anchor="middle" x="1362.8345" y="-373.8" font-family="Times,serif" font-size="14.00" fill="#000000">ConsStmt(Assign(Var(Name(&quot;x&quot;)), *v), ConsStmt(While(*v, Block(ConsStmt(Assign(Var(Name(&quot;x&quot;)), *v), NilStmt()))), NilStmt()))</text>
</g>
<!-- 11&#45;&gt;19 -->
<g id="edge12" class="edge">
<title>11&#45;&gt;19</title>
<path fill="none" stroke="#000000" d="M1368.8157,-431.8314C1367.9601,-424.131 1366.9427,-414.9743 1365.9919,-406.4166"/>
<polygon fill="#000000" stroke="#000000" points="1369.4634,-405.9656 1364.8804,-396.4133 1362.5062,-406.7386 1369.4634,-405.9656"/>
</g>
<!-- 12&#45;&gt;2 -->
<g id="edge13" class="edge">
<title>12&#45;&gt;2</title>
<path fill="none" stroke="#000000" d="M1437.1799,-575.8314C1429.4231,-567.3694 1420.0543,-557.1489 1411.5735,-547.8971"/>
<polygon fill="#000000" stroke="#000000" points="1414.0506,-545.4198 1404.7133,-540.4133 1408.8905,-550.1499 1414.0506,-545.4198"/>
</g>
<!-- 13 -->
<g id="node14" class="node">
<title>13</title>
<polygon fill="none" stroke="#000000" points="69.5042,-540 .1647,-540 .1647,-504 69.5042,-504 69.5042,-540"/>
<text text-anchor="middle" x="34.8345" y="-517.8" font-family="Times,serif" font-size="14.00" fill="#000000">NilStmt()</text>
</g>
<!-- 13&#45;&gt;0 -->
<g id="edge14" class="edge">
<title>13&#45;&gt;0</title>
<path fill="none" stroke="#000000" d="M34.8345,-503.8314C34.8345,-496.131 34.8345,-486.9743 34.8345,-478.4166"/>
<polygon fill="#000000" stroke="#000000" points="38.3346,-478.4132 34.8345,-468.4133 31.3346,-478.4133 38.3346,-478.4132"/>
</g>
<!-- 14&#45;&gt;13 -->
<g id="edge15" class="edge">
<title>14&#45;&gt;13</title>
<path fill="none" stroke="#000000" d="M34.8345,-575.8314C34.8345,-568.131 34.8345,-558.9743 34.8345,-550.4166"/>
<polygon fill="#000000" stroke="#000000" points="38.3346,-550.4132 34.8345,-540.4133 31.3346,-550.4133 38.3346,-550.4132"/>
</g>
<!-- 15&#45;&gt;9 -->
<g id="edge16" class="edge">
<title>15&#45;&gt;9</title>
<path fill="none" stroke="#000000" d="M493.1149,-575.8314C494.5053,-568.131 496.1585,-558.9743 497.7037,-550.4166"/>
<polygon fill="#000000" stroke="#000000" points="501.1773,-550.8761 499.5099,-540.4133 494.2886,-549.6322 501.1773,-550.8761"/>
</g>
<!-- 16&#45;&gt;10 -->
<g id="edge17" class="edge">
<title>16&#45;&gt;10</title>
<path fill="none" stroke="#000000" d="M920.8345,-36.1854C920.8345,-63.5017 920.8345,-116.75 920.8345,-162 920.8345,-522 920.8345,-522 920.8345,-522 920.8345,-562.8816 931.865,-584.2606 901.8345,-612 886.9251,-625.7719 806.27,-637.7693 719.8067,-646.9349"/>
<polygon fill="#000000" stroke="#000000" points="719.3695,-643.4614 709.7875,-647.9819 720.0972,-650.4235 719.3695,-643.4614"/>
</g>
<!-- 17 -->
<g id="node18" class="node">
<title>17</title>
<polygon fill="none" stroke="#000000" points="1438.4957,-324 1263.1733,-324 1263.1733,-288 1438.4957,-288 1438.4957,-324"/>
<text text-anchor="middle" x="1350.8345" y="-301.8" font-family="Times,serif" font-size="14.00" fill="#000000">Assign(Var(Name(&quot;x&quot;)), *v)</text>
</g>
<!-- 20 -->
<g id="node21" class="node">
<title>20</title>
<polygon fill="none" stroke="#000000" points="1488.8416,-252 1098.8273,-252 1098.8273,-216 1488.8416,-216 1488.8416,-252"/>
<text text-anchor="middle" x="1293.8345" y="-229.8" font-family="Times,serif" font-size="14.00" fill="#000000">Assign(FieldAccess(ReferenceVal(HeapAddr(0)), Name(&quot;x&quot;)), *v)</text>
</g>
<!-- 17&#45;&gt;20 -->
<g id="edge18" class="edge">
<title>17&#45;&gt;20</title>
<path fill="none" stroke="#000000" d="M1336.451,-287.8314C1329.8859,-279.5386 1321.9838,-269.557 1314.7767,-260.4533"/>
<polygon fill="#000000" stroke="#000000" points="1317.3629,-258.0813 1308.4116,-252.4133 1311.8745,-262.4262 1317.3629,-258.0813"/>
</g>
<!-- 18 -->
<g id="node19" class="node">
<title>18</title>
<polygon fill="none" stroke="#000000" points="1283.5042,-180 1214.1647,-180 1214.1647,-144 1283.5042,-144 1283.5042,-180"/>
<text text-anchor="middle" x="1248.8345" y="-157.8" font-family="Times,serif" font-size="14.00" fill="#000000">NilStmt()</text>
</g>
<!-- 21 -->
<g id="node22" class="node">
<title>21</title>
<polygon fill="none" stroke="#000000" points="1503.8521,-108 971.8169,-108 971.8169,-72 1503.8521,-72 1503.8521,-108"/>
<text text-anchor="middle" x="1237.8345" y="-85.8" font-family="Times,serif" font-size="14.00" fill="#000000">ConsStmt(While(*v, Block(ConsStmt(Assign(Var(Name(&quot;x&quot;)), *v), NilStmt()))), NilStmt())</text>
</g>
<!-- 18&#45;&gt;21 -->
<g id="edge19" class="edge">
<title>18&#45;&gt;21</title>
<path fill="none" stroke="#000000" d="M1246.0587,-143.8314C1244.8823,-136.131 1243.4833,-126.9743 1242.1759,-118.4166"/>
<polygon fill="#000000" stroke="#000000" points="1245.6178,-117.7699 1240.6476,-108.4133 1238.6981,-118.8272 1245.6178,-117.7699"/>
</g>
<!-- 19&#45;&gt;17 -->
<g id="edge20" class="edge">
<title>19&#45;&gt;17</title>
<path fill="none" stroke="#000000" d="M1359.8064,-359.8314C1358.523,-352.131 1356.9969,-342.9743 1355.5706,-334.4166"/>
<polygon fill="#000000" stroke="#000000" points="1358.9998,-333.7018 1353.9034,-324.4133 1352.095,-334.8526 1358.9998,-333.7018"/>
</g>
<!-- 20&#45;&gt;18 -->
<g id="edge21" class="edge">
<title>20&#45;&gt;18</title>
<path fill="none" stroke="#000000" d="M1282.4791,-215.8314C1277.4019,-207.7079 1271.3118,-197.9637 1265.7168,-189.0118"/>
<polygon fill="#000000" stroke="#000000" points="1268.6108,-187.0383 1260.3428,-180.4133 1262.6748,-190.7483 1268.6108,-187.0383"/>
</g>
<!-- 21&#45;&gt;16 -->
<g id="edge22" class="edge">
<title>21&#45;&gt;16</title>
<path fill="none" stroke="#000000" d="M1158.2512,-71.9243C1113.1341,-61.6769 1056.5634,-48.828 1009.961,-38.2432"/>
<polygon fill="#000000" stroke="#000000" points="1010.7024,-34.8226 1000.1755,-36.0207 1009.1519,-41.6487 1010.7024,-34.8226"/>
</g>
<!-- 22 -->
<g id="node23" class="node">
<title>22</title>
<polygon fill="none" stroke="#000000" points="1981.7329,-756 933.936,-756 933.936,-720 1981.7329,-720 1981.7329,-756"/>
<text text-anchor="middle" x="1457.8345" y="-733.8" font-family="Times,serif" font-size="14.00" fill="#000000">Block(ConsStmt(Assign(Var(Name(&quot;foo&quot;)), *v), ConsStmt(Assign(Var(Name(&quot;x&quot;)), *v), ConsStmt(While(*v, Block(ConsStmt(Assign(Var(Name(&quot;x&quot;)), *v), NilStmt()))), NilStmt()))))</text>
</g>
<!-- 22&#45;&gt;1 -->
<g id="edge23" class="edge">
<title>22&#45;&gt;1</title>
<path fill="none" stroke="#000000" d="M1457.8345,-719.8314C1457.8345,-712.131 1457.8345,-702.9743 1457.8345,-694.4166"/>
<polygon fill="#000000" stroke="#000000" points="1461.3346,-694.4132 1457.8345,-684.4133 1454.3346,-694.4133 1461.3346,-694.4132"/>
</g>
</g>
</svg>
