<?xml version="1.0" encoding="UTF-8" standalone="no"?>
<!DOCTYPE svg PUBLIC "-//W3C//DTD SVG 1.1//EN"
 "http://www.w3.org/Graphics/SVG/1.1/DTD/svg11.dtd">
<!-- Generated by graphviz version 2.40.1 (20161225.0304)
 -->
<!-- Title: %3 Pages: 1 -->
<svg width="511pt" height="508pt"
 viewBox="0.00 0.00 510.65 508.00" xmlns="http://www.w3.org/2000/svg" xmlns:xlink="http://www.w3.org/1999/xlink">
<g id="graph0" class="graph" transform="scale(1 1) rotate(0) translate(4 504)">
<title>%3</title>
<polygon fill="#ffffff" stroke="transparent" points="-4,4 -4,-504 506.646,-504 506.646,4 -4,4"/>
<!-- 0 -->
<g id="node1" class="node">
<title>0</title>
<polygon fill="none" stroke="#000000" points="437.6661,-182 .1113,-182 .1113,-146 437.6661,-146 437.6661,-182"/>
<text text-anchor="middle" x="218.8887" y="-159.8" font-family="Times,serif" font-size="14.00" fill="#000000">&lt;(11246v; (*v,*: *v)) | [\(&#39;1; (&#39;2,&#39;3)) &#45;&gt; (Assign(&#39;1, 11244v); (&#39;2,&#39;3))].11242&gt;</text>
</g>
<!-- 3 -->
<g id="node4" class="node">
<title>3</title>
<polygon fill="none" stroke="#000000" points="299.4883,-36 138.289,-36 138.289,0 299.4883,0 299.4883,-36"/>
<text text-anchor="middle" x="218.8887" y="-13.8" font-family="Times,serif" font-size="14.00" fill="#000000">&lt;(*v; (*v,*: *v)) | 11242&gt;</text>
</g>
<!-- 0&#45;&gt;3 -->
<g id="edge1" class="edge">
<title>0&#45;&gt;3</title>
<path fill="none" stroke="#000000" d="M218.8887,-145.8042C218.8887,-120.8868 218.8887,-75.8938 218.8887,-46.4877"/>
<polygon fill="#000000" stroke="#000000" points="222.3888,-46.4251 218.8887,-36.4251 215.3888,-46.4251 222.3888,-46.4251"/>
</g>
<!-- 4 -->
<g id="node5" class="node">
<title>4</title>
<polygon fill="none" stroke="#000000" points="502.4038,-109 235.3736,-109 235.3736,-73 502.4038,-73 502.4038,-109"/>
<text text-anchor="middle" x="368.8887" y="-86.8" font-family="Times,serif" font-size="14.00" fill="#000000">&lt;(GlobalAssign(*v, *v); (*v,*: *v)) | 11242&gt;</text>
</g>
<!-- 0&#45;&gt;4 -->
<g id="edge2" class="edge">
<title>0&#45;&gt;4</title>
<path fill="none" stroke="#000000" d="M255.9673,-145.9551C276.0697,-136.1719 301.1046,-123.9883 322.4902,-113.5806"/>
<polygon fill="#000000" stroke="#000000" points="324.2566,-116.6135 331.7167,-109.0904 321.1934,-110.3193 324.2566,-116.6135"/>
</g>
<!-- 1 -->
<g id="node2" class="node">
<title>1</title>
<polygon fill="none" stroke="#000000" points="436.0558,-268 1.7216,-268 1.7216,-232 436.0558,-232 436.0558,-268"/>
<text text-anchor="middle" x="218.8887" y="-245.8" font-family="Times,serif" font-size="14.00" fill="#000000">&lt;(11240t; (*v,*: *v)) | [\(&#39;1; (&#39;2,&#39;3)) &#45;&gt; (Assign(&#39;1, 11244v); (&#39;2,&#39;3))].11242&gt;</text>
</g>
<!-- 1&#45;&gt;0 -->
<g id="edge3" class="edge">
<title>1&#45;&gt;0</title>
<path fill="none" stroke="#000000" d="M218.8887,-231.7616C218.8887,-220.3597 218.8887,-205.4342 218.8887,-192.494"/>
<polygon fill="#000000" stroke="#000000" points="222.3888,-192.2121 218.8887,-182.2121 215.3888,-192.2121 222.3888,-192.2121"/>
<text text-anchor="middle" x="244.937" y="-202.8" font-family="Times,serif" font-size="14.00" fill="#000000">transitive</text>
</g>
<!-- 2 -->
<g id="node3" class="node">
<title>2</title>
<polygon fill="none" stroke="#000000" points="358.4629,-500 79.3144,-500 79.3144,-464 358.4629,-464 358.4629,-500"/>
<text text-anchor="middle" x="218.8887" y="-477.8" font-family="Times,serif" font-size="14.00" fill="#000000">&lt;(Assign(11240t, 11241t); (*v,*: *v)) | 11242&gt;</text>
</g>
<!-- 6 -->
<g id="node7" class="node">
<title>6</title>
<polygon fill="none" stroke="#000000" points="434.4455,-427 3.3318,-427 3.3318,-391 434.4455,-391 434.4455,-427"/>
<text text-anchor="middle" x="218.8887" y="-404.8" font-family="Times,serif" font-size="14.00" fill="#000000">&lt;(11241t; (*v,*: *v)) | [\(&#39;1; (&#39;2,&#39;3)) &#45;&gt; (Assign(11240t, &#39;1); (&#39;2,&#39;3))].11242&gt;</text>
</g>
<!-- 2&#45;&gt;6 -->
<g id="edge4" class="edge">
<title>2&#45;&gt;6</title>
<path fill="none" stroke="#000000" d="M218.8887,-463.9551C218.8887,-455.8828 218.8887,-446.1764 218.8887,-437.1817"/>
<polygon fill="#000000" stroke="#000000" points="222.3888,-437.0903 218.8887,-427.0904 215.3888,-437.0904 222.3888,-437.0903"/>
</g>
<!-- 4&#45;&gt;3 -->
<g id="edge5" class="edge">
<title>4&#45;&gt;3</title>
<path fill="none" stroke="#000000" d="M331.81,-72.9551C311.7076,-63.1719 286.6728,-50.9883 265.2872,-40.5806"/>
<polygon fill="#000000" stroke="#000000" points="266.584,-37.3193 256.0606,-36.0904 263.5208,-43.6135 266.584,-37.3193"/>
</g>
<!-- 5 -->
<g id="node6" class="node">
<title>5</title>
<polygon fill="none" stroke="#000000" points="436.0558,-341 1.7216,-341 1.7216,-305 436.0558,-305 436.0558,-341"/>
<text text-anchor="middle" x="218.8887" y="-318.8" font-family="Times,serif" font-size="14.00" fill="#000000">&lt;(11244v; (*v,*: *v)) | [\(&#39;1; (&#39;2,&#39;3)) &#45;&gt; (Assign(11240t, &#39;1); (&#39;2,&#39;3))].11242&gt;</text>
</g>
<!-- 5&#45;&gt;1 -->
<g id="edge6" class="edge">
<title>5&#45;&gt;1</title>
<path fill="none" stroke="#000000" d="M218.8887,-304.9551C218.8887,-296.8828 218.8887,-287.1764 218.8887,-278.1817"/>
<polygon fill="#000000" stroke="#000000" points="222.3888,-278.0903 218.8887,-268.0904 215.3888,-278.0904 222.3888,-278.0903"/>
</g>
<!-- 6&#45;&gt;5 -->
<g id="edge7" class="edge">
<title>6&#45;&gt;5</title>
<path fill="none" stroke="#000000" d="M218.8887,-390.7616C218.8887,-379.3597 218.8887,-364.4342 218.8887,-351.494"/>
<polygon fill="#000000" stroke="#000000" points="222.3888,-351.2121 218.8887,-341.2121 215.3888,-351.2121 222.3888,-351.2121"/>
<text text-anchor="middle" x="244.937" y="-361.8" font-family="Times,serif" font-size="14.00" fill="#000000">transitive</text>
</g>
</g>
</svg>
