<?xml version="1.0" encoding="UTF-8" standalone="no"?>
<!DOCTYPE svg PUBLIC "-//W3C//DTD SVG 1.1//EN"
 "http://www.w3.org/Graphics/SVG/1.1/DTD/svg11.dtd">
<!-- Generated by graphviz version 2.40.1 (20161225.0304)
 -->
<!-- Title: %3 Pages: 1 -->
<svg width="798pt" height="1412pt"
 viewBox="0.00 0.00 798.25 1412.00" xmlns="http://www.w3.org/2000/svg" xmlns:xlink="http://www.w3.org/1999/xlink">
<g id="graph0" class="graph" transform="scale(1 1) rotate(0) translate(4 1408)">
<title>%3</title>
<polygon fill="#ffffff" stroke="transparent" points="-4,4 -4,-1408 794.2451,-1408 794.2451,4 -4,4"/>
<!-- 0 -->
<g id="node1" class="node">
<title>0</title>
<polygon fill="none" stroke="#000000" points="422.1226,-36 368.1226,-36 368.1226,0 422.1226,0 422.1226,-36"/>
<text text-anchor="middle" x="395.1226" y="-13.8" font-family="Times,serif" font-size="14.00" fill="#000000">*v</text>
</g>
<!-- 1 -->
<g id="node2" class="node">
<title>1</title>
<polygon fill="none" stroke="#000000" points="764.9527,-1332 25.2925,-1332 25.2925,-1296 764.9527,-1296 764.9527,-1332"/>
<text text-anchor="middle" x="395.1226" y="-1309.8" font-family="Times,serif" font-size="14.00" fill="#000000">Seq(*v, Seq(*v, Seq(*v, Seq(If(*v, Write(*v), *v), Seq(WriteInt(*v), Seq(Write(*v), Seq(WriteInt(*v), If(*v, Write(*v), *v))))))))</text>
</g>
<!-- 7 -->
<g id="node8" class="node">
<title>7</title>
<polygon fill="none" stroke="#000000" points="740.0377,-1260 50.2074,-1260 50.2074,-1224 740.0377,-1224 740.0377,-1260"/>
<text text-anchor="middle" x="395.1226" y="-1237.8" font-family="Times,serif" font-size="14.00" fill="#000000">Seq(*v, Seq(*v, Seq(If(*v, Write(*v), *v), Seq(WriteInt(*v), Seq(Write(*v), Seq(WriteInt(*v), If(*v, Write(*v), *v)))))))</text>
</g>
<!-- 1&#45;&gt;7 -->
<g id="edge1" class="edge">
<title>1&#45;&gt;7</title>
<path fill="none" stroke="#000000" d="M395.1226,-1295.8314C395.1226,-1288.131 395.1226,-1278.9743 395.1226,-1270.4166"/>
<polygon fill="#000000" stroke="#000000" points="398.6227,-1270.4132 395.1226,-1260.4133 391.6227,-1270.4133 398.6227,-1270.4132"/>
</g>
<!-- 2 -->
<g id="node3" class="node">
<title>2</title>
<polygon fill="none" stroke="#000000" points="559.7351,-612 230.51,-612 230.51,-576 559.7351,-576 559.7351,-612"/>
<text text-anchor="middle" x="395.1226" y="-589.8" font-family="Times,serif" font-size="14.00" fill="#000000">Seq(Write(*v), Seq(WriteInt(*v), If(*v, Write(*v), *v)))</text>
</g>
<!-- 19 -->
<g id="node20" class="node">
<title>19</title>
<polygon fill="none" stroke="#000000" points="430.2631,-540 359.982,-540 359.982,-504 430.2631,-504 430.2631,-540"/>
<text text-anchor="middle" x="395.1226" y="-517.8" font-family="Times,serif" font-size="14.00" fill="#000000">Write(*v)</text>
</g>
<!-- 2&#45;&gt;19 -->
<g id="edge2" class="edge">
<title>2&#45;&gt;19</title>
<path fill="none" stroke="#000000" d="M395.1226,-575.8314C395.1226,-568.131 395.1226,-558.9743 395.1226,-550.4166"/>
<polygon fill="#000000" stroke="#000000" points="398.6227,-550.4132 395.1226,-540.4133 391.6227,-550.4133 398.6227,-550.4132"/>
</g>
<!-- 3 -->
<g id="node4" class="node">
<title>3</title>
<polygon fill="none" stroke="#000000" points="422.1226,-900 368.1226,-900 368.1226,-864 422.1226,-864 422.1226,-900"/>
<text text-anchor="middle" x="395.1226" y="-877.8" font-family="Times,serif" font-size="14.00" fill="#000000">*v</text>
</g>
<!-- 11 -->
<g id="node12" class="node">
<title>11</title>
<polygon fill="none" stroke="#000000" points="613.7505,-828 176.4946,-828 176.4946,-792 613.7505,-792 613.7505,-828"/>
<text text-anchor="middle" x="395.1226" y="-805.8" font-family="Times,serif" font-size="14.00" fill="#000000">Seq(WriteInt(*v), Seq(Write(*v), Seq(WriteInt(*v), If(*v, Write(*v), *v))))</text>
</g>
<!-- 3&#45;&gt;11 -->
<g id="edge3" class="edge">
<title>3&#45;&gt;11</title>
<path fill="none" stroke="#000000" d="M395.1226,-863.8314C395.1226,-856.131 395.1226,-846.9743 395.1226,-838.4166"/>
<polygon fill="#000000" stroke="#000000" points="398.6227,-838.4132 395.1226,-828.4133 391.6227,-838.4133 398.6227,-838.4132"/>
</g>
<!-- 4 -->
<g id="node5" class="node">
<title>4</title>
<polygon fill="none" stroke="#000000" points="422.1226,-252 368.1226,-252 368.1226,-216 422.1226,-216 422.1226,-252"/>
<text text-anchor="middle" x="395.1226" y="-229.8" font-family="Times,serif" font-size="14.00" fill="#000000">*v</text>
</g>
<!-- 12 -->
<g id="node13" class="node">
<title>12</title>
<polygon fill="none" stroke="#000000" points="460.2554,-180 329.9897,-180 329.9897,-144 460.2554,-144 460.2554,-180"/>
<text text-anchor="middle" x="395.1226" y="-157.8" font-family="Times,serif" font-size="14.00" fill="#000000">If(*v, Write(*v), *v)</text>
</g>
<!-- 4&#45;&gt;12 -->
<g id="edge4" class="edge">
<title>4&#45;&gt;12</title>
<path fill="none" stroke="#000000" d="M395.1226,-215.8314C395.1226,-208.131 395.1226,-198.9743 395.1226,-190.4166"/>
<polygon fill="#000000" stroke="#000000" points="398.6227,-190.4132 395.1226,-180.4133 391.6227,-190.4133 398.6227,-190.4132"/>
</g>
<!-- 5 -->
<g id="node6" class="node">
<title>5</title>
<polygon fill="none" stroke="#000000" points="462.2631,-108 391.982,-108 391.982,-72 462.2631,-72 462.2631,-108"/>
<text text-anchor="middle" x="427.1226" y="-85.8" font-family="Times,serif" font-size="14.00" fill="#000000">Write(*v)</text>
</g>
<!-- 5&#45;&gt;0 -->
<g id="edge5" class="edge">
<title>5&#45;&gt;0</title>
<path fill="none" stroke="#000000" d="M419.0476,-71.8314C415.5124,-63.8771 411.2866,-54.369 407.3769,-45.5723"/>
<polygon fill="#000000" stroke="#000000" points="410.566,-44.1299 403.3062,-36.4133 404.1693,-46.9729 410.566,-44.1299"/>
</g>
<!-- 6 -->
<g id="node7" class="node">
<title>6</title>
<polygon fill="none" stroke="#000000" points="462.2631,-972 391.982,-972 391.982,-936 462.2631,-936 462.2631,-972"/>
<text text-anchor="middle" x="427.1226" y="-949.8" font-family="Times,serif" font-size="14.00" fill="#000000">Write(*v)</text>
</g>
<!-- 6&#45;&gt;3 -->
<g id="edge6" class="edge">
<title>6&#45;&gt;3</title>
<path fill="none" stroke="#000000" d="M419.0476,-935.8314C415.5124,-927.8771 411.2866,-918.369 407.3769,-909.5723"/>
<polygon fill="#000000" stroke="#000000" points="410.566,-908.1299 403.3062,-900.4133 404.1693,-910.9729 410.566,-908.1299"/>
</g>
<!-- 13 -->
<g id="node14" class="node">
<title>13</title>
<polygon fill="none" stroke="#000000" points="714.6226,-1188 75.6226,-1188 75.6226,-1152 714.6226,-1152 714.6226,-1188"/>
<text text-anchor="middle" x="395.1226" y="-1165.8" font-family="Times,serif" font-size="14.00" fill="#000000">Seq(*v, Seq(If(*v, Write(*v), *v), Seq(WriteInt(*v), Seq(Write(*v), Seq(WriteInt(*v), If(*v, Write(*v), *v))))))</text>
</g>
<!-- 7&#45;&gt;13 -->
<g id="edge7" class="edge">
<title>7&#45;&gt;13</title>
<path fill="none" stroke="#000000" d="M395.1226,-1223.8314C395.1226,-1216.131 395.1226,-1206.9743 395.1226,-1198.4166"/>
<polygon fill="#000000" stroke="#000000" points="398.6227,-1198.4132 395.1226,-1188.4133 391.6227,-1198.4133 398.6227,-1198.4132"/>
</g>
<!-- 8 -->
<g id="node9" class="node">
<title>8</title>
<polygon fill="none" stroke="#000000" points="438.3142,-324 351.9309,-324 351.9309,-288 438.3142,-288 438.3142,-324"/>
<text text-anchor="middle" x="395.1226" y="-301.8" font-family="Times,serif" font-size="14.00" fill="#000000">WriteInt(*v)</text>
</g>
<!-- 8&#45;&gt;4 -->
<g id="edge8" class="edge">
<title>8&#45;&gt;4</title>
<path fill="none" stroke="#000000" d="M395.1226,-287.8314C395.1226,-280.131 395.1226,-270.9743 395.1226,-262.4166"/>
<polygon fill="#000000" stroke="#000000" points="398.6227,-262.4132 395.1226,-252.4133 391.6227,-262.4133 398.6227,-262.4132"/>
</g>
<!-- 9 -->
<g id="node10" class="node">
<title>9</title>
<polygon fill="none" stroke="#000000" points="460.2554,-1044 329.9897,-1044 329.9897,-1008 460.2554,-1008 460.2554,-1044"/>
<text text-anchor="middle" x="395.1226" y="-1021.8" font-family="Times,serif" font-size="14.00" fill="#000000">If(*v, Write(*v), *v)</text>
</g>
<!-- 9&#45;&gt;3 -->
<g id="edge9" class="edge">
<title>9&#45;&gt;3</title>
<path fill="none" stroke="#000000" d="M390.0034,-1007.6727C387.3706,-997.2978 384.4429,-984.0284 383.1226,-972 381.3767,-956.0955 381.3767,-951.9045 383.1226,-936 384.051,-927.5425 385.7739,-918.4715 387.6304,-910.2246"/>
<polygon fill="#000000" stroke="#000000" points="391.0753,-910.8678 390.0034,-900.3273 384.2682,-909.2356 391.0753,-910.8678"/>
</g>
<!-- 9&#45;&gt;6 -->
<g id="edge10" class="edge">
<title>9&#45;&gt;6</title>
<path fill="none" stroke="#000000" d="M403.1975,-1007.8314C406.7327,-999.8771 410.9585,-990.369 414.8682,-981.5723"/>
<polygon fill="#000000" stroke="#000000" points="418.0758,-982.9729 418.9389,-972.4133 411.6791,-980.1299 418.0758,-982.9729"/>
</g>
<!-- 10 -->
<g id="node11" class="node">
<title>10</title>
<polygon fill="none" stroke="#000000" points="513.7713,-396 276.4739,-396 276.4739,-360 513.7713,-360 513.7713,-396"/>
<text text-anchor="middle" x="395.1226" y="-373.8" font-family="Times,serif" font-size="14.00" fill="#000000">Seq(WriteInt(*v), If(*v, Write(*v), *v))</text>
</g>
<!-- 10&#45;&gt;8 -->
<g id="edge11" class="edge">
<title>10&#45;&gt;8</title>
<path fill="none" stroke="#000000" d="M395.1226,-359.8314C395.1226,-352.131 395.1226,-342.9743 395.1226,-334.4166"/>
<polygon fill="#000000" stroke="#000000" points="398.6227,-334.4132 395.1226,-324.4133 391.6227,-334.4133 398.6227,-334.4132"/>
</g>
<!-- 14 -->
<g id="node15" class="node">
<title>14</title>
<polygon fill="none" stroke="#000000" points="438.3142,-756 351.9309,-756 351.9309,-720 438.3142,-720 438.3142,-756"/>
<text text-anchor="middle" x="395.1226" y="-733.8" font-family="Times,serif" font-size="14.00" fill="#000000">WriteInt(*v)</text>
</g>
<!-- 11&#45;&gt;14 -->
<g id="edge12" class="edge">
<title>11&#45;&gt;14</title>
<path fill="none" stroke="#000000" d="M395.1226,-791.8314C395.1226,-784.131 395.1226,-774.9743 395.1226,-766.4166"/>
<polygon fill="#000000" stroke="#000000" points="398.6227,-766.4132 395.1226,-756.4133 391.6227,-766.4133 398.6227,-766.4132"/>
</g>
<!-- 12&#45;&gt;0 -->
<g id="edge13" class="edge">
<title>12&#45;&gt;0</title>
<path fill="none" stroke="#000000" d="M390.0034,-143.6727C387.3706,-133.2978 384.4429,-120.0284 383.1226,-108 381.3767,-92.0955 381.3767,-87.9045 383.1226,-72 384.051,-63.5425 385.7739,-54.4715 387.6304,-46.2246"/>
<polygon fill="#000000" stroke="#000000" points="391.0753,-46.8678 390.0034,-36.3273 384.2682,-45.2356 391.0753,-46.8678"/>
</g>
<!-- 12&#45;&gt;5 -->
<g id="edge14" class="edge">
<title>12&#45;&gt;5</title>
<path fill="none" stroke="#000000" d="M403.1975,-143.8314C406.7327,-135.8771 410.9585,-126.369 414.8682,-117.5723"/>
<polygon fill="#000000" stroke="#000000" points="418.0758,-118.9729 418.9389,-108.4133 411.6791,-116.1299 418.0758,-118.9729"/>
</g>
<!-- 16 -->
<g id="node17" class="node">
<title>16</title>
<polygon fill="none" stroke="#000000" points="689.2077,-1116 101.0375,-1116 101.0375,-1080 689.2077,-1080 689.2077,-1116"/>
<text text-anchor="middle" x="395.1226" y="-1093.8" font-family="Times,serif" font-size="14.00" fill="#000000">Seq(If(*v, Write(*v), *v), Seq(WriteInt(*v), Seq(Write(*v), Seq(WriteInt(*v), If(*v, Write(*v), *v)))))</text>
</g>
<!-- 13&#45;&gt;16 -->
<g id="edge15" class="edge">
<title>13&#45;&gt;16</title>
<path fill="none" stroke="#000000" d="M395.1226,-1151.8314C395.1226,-1144.131 395.1226,-1134.9743 395.1226,-1126.4166"/>
<polygon fill="#000000" stroke="#000000" points="398.6227,-1126.4132 395.1226,-1116.4133 391.6227,-1126.4133 398.6227,-1126.4132"/>
</g>
<!-- 15 -->
<g id="node16" class="node">
<title>15</title>
<polygon fill="none" stroke="#000000" points="422.1226,-684 368.1226,-684 368.1226,-648 422.1226,-648 422.1226,-684"/>
<text text-anchor="middle" x="395.1226" y="-661.8" font-family="Times,serif" font-size="14.00" fill="#000000">*v</text>
</g>
<!-- 14&#45;&gt;15 -->
<g id="edge16" class="edge">
<title>14&#45;&gt;15</title>
<path fill="none" stroke="#000000" d="M395.1226,-719.8314C395.1226,-712.131 395.1226,-702.9743 395.1226,-694.4166"/>
<polygon fill="#000000" stroke="#000000" points="398.6227,-694.4132 395.1226,-684.4133 391.6227,-694.4133 398.6227,-694.4132"/>
</g>
<!-- 15&#45;&gt;2 -->
<g id="edge17" class="edge">
<title>15&#45;&gt;2</title>
<path fill="none" stroke="#000000" d="M395.1226,-647.8314C395.1226,-640.131 395.1226,-630.9743 395.1226,-622.4166"/>
<polygon fill="#000000" stroke="#000000" points="398.6227,-622.4132 395.1226,-612.4133 391.6227,-622.4133 398.6227,-622.4132"/>
</g>
<!-- 16&#45;&gt;9 -->
<g id="edge18" class="edge">
<title>16&#45;&gt;9</title>
<path fill="none" stroke="#000000" d="M395.1226,-1079.8314C395.1226,-1072.131 395.1226,-1062.9743 395.1226,-1054.4166"/>
<polygon fill="#000000" stroke="#000000" points="398.6227,-1054.4132 395.1226,-1044.4133 391.6227,-1054.4133 398.6227,-1054.4132"/>
</g>
<!-- 17 -->
<g id="node18" class="node">
<title>17</title>
<polygon fill="none" stroke="#000000" points="790.3677,-1404 -.1226,-1404 -.1226,-1368 790.3677,-1368 790.3677,-1404"/>
<text text-anchor="middle" x="395.1226" y="-1381.8" font-family="Times,serif" font-size="14.00" fill="#000000">Seq(*v, Seq(*v, Seq(*v, Seq(*v, Seq(If(*v, Write(*v), *v), Seq(WriteInt(*v), Seq(Write(*v), Seq(WriteInt(*v), If(*v, Write(*v), *v)))))))))</text>
</g>
<!-- 17&#45;&gt;1 -->
<g id="edge19" class="edge">
<title>17&#45;&gt;1</title>
<path fill="none" stroke="#000000" d="M395.1226,-1367.8314C395.1226,-1360.131 395.1226,-1350.9743 395.1226,-1342.4166"/>
<polygon fill="#000000" stroke="#000000" points="398.6227,-1342.4132 395.1226,-1332.4133 391.6227,-1342.4133 398.6227,-1342.4132"/>
</g>
<!-- 18 -->
<g id="node19" class="node">
<title>18</title>
<polygon fill="none" stroke="#000000" points="422.1226,-468 368.1226,-468 368.1226,-432 422.1226,-432 422.1226,-468"/>
<text text-anchor="middle" x="395.1226" y="-445.8" font-family="Times,serif" font-size="14.00" fill="#000000">*v</text>
</g>
<!-- 18&#45;&gt;10 -->
<g id="edge20" class="edge">
<title>18&#45;&gt;10</title>
<path fill="none" stroke="#000000" d="M395.1226,-431.8314C395.1226,-424.131 395.1226,-414.9743 395.1226,-406.4166"/>
<polygon fill="#000000" stroke="#000000" points="398.6227,-406.4132 395.1226,-396.4133 391.6227,-406.4133 398.6227,-406.4132"/>
</g>
<!-- 19&#45;&gt;18 -->
<g id="edge21" class="edge">
<title>19&#45;&gt;18</title>
<path fill="none" stroke="#000000" d="M395.1226,-503.8314C395.1226,-496.131 395.1226,-486.9743 395.1226,-478.4166"/>
<polygon fill="#000000" stroke="#000000" points="398.6227,-478.4132 395.1226,-468.4133 391.6227,-478.4133 398.6227,-478.4132"/>
</g>
</g>
</svg>
