<?xml version="1.0" encoding="UTF-8" standalone="no"?>
<!DOCTYPE svg PUBLIC "-//W3C//DTD SVG 1.1//EN"
 "http://www.w3.org/Graphics/SVG/1.1/DTD/svg11.dtd">
<!-- Generated by graphviz version 2.40.1 (20161225.0304)
 -->
<!-- Title: %3 Pages: 1 -->
<svg width="2442pt" height="3284pt"
 viewBox="0.00 0.00 2442.24 3284.00" xmlns="http://www.w3.org/2000/svg" xmlns:xlink="http://www.w3.org/1999/xlink">
<g id="graph0" class="graph" transform="scale(1 1) rotate(0) translate(4 3280)">
<title>%3</title>
<polygon fill="#ffffff" stroke="transparent" points="-4,4 -4,-3280 2438.2422,-3280 2438.2422,4 -4,4"/>
<!-- 0 -->
<g id="node1" class="node">
<title>0</title>
<polygon fill="none" stroke="#000000" points="631.1211,-180 577.1211,-180 577.1211,-144 631.1211,-144 631.1211,-180"/>
<text text-anchor="middle" x="604.1211" y="-157.8" font-family="Times,serif" font-size="14.00" fill="#000000">*v</text>
</g>
<!-- 1 -->
<g id="node2" class="node">
<title>1</title>
<polygon fill="none" stroke="#000000" points="1857.1211,-36 1803.1211,-36 1803.1211,0 1857.1211,0 1857.1211,-36"/>
<text text-anchor="middle" x="1830.1211" y="-13.8" font-family="Times,serif" font-size="14.00" fill="#000000">*v</text>
</g>
<!-- 2 -->
<g id="node3" class="node">
<title>2</title>
<polygon fill="none" stroke="#000000" points="631.1211,-540 577.1211,-540 577.1211,-504 631.1211,-504 631.1211,-540"/>
<text text-anchor="middle" x="604.1211" y="-517.8" font-family="Times,serif" font-size="14.00" fill="#000000">*v</text>
</g>
<!-- 15 -->
<g id="node16" class="node">
<title>15</title>
<polygon fill="none" stroke="#000000" points="631.1211,-468 577.1211,-468 577.1211,-432 631.1211,-432 631.1211,-468"/>
<text text-anchor="middle" x="604.1211" y="-445.8" font-family="Times,serif" font-size="14.00" fill="#000000">*v</text>
</g>
<!-- 2&#45;&gt;15 -->
<g id="edge1" class="edge">
<title>2&#45;&gt;15</title>
<path fill="none" stroke="#000000" d="M604.1211,-503.8314C604.1211,-496.131 604.1211,-486.9743 604.1211,-478.4166"/>
<polygon fill="#000000" stroke="#000000" points="607.6212,-478.4132 604.1211,-468.4133 600.6212,-478.4133 607.6212,-478.4132"/>
</g>
<!-- 3 -->
<g id="node4" class="node">
<title>3</title>
<polygon fill="none" stroke="#000000" points="1857.1211,-468 1803.1211,-468 1803.1211,-432 1857.1211,-432 1857.1211,-468"/>
<text text-anchor="middle" x="1830.1211" y="-445.8" font-family="Times,serif" font-size="14.00" fill="#000000">*v</text>
</g>
<!-- 16 -->
<g id="node17" class="node">
<title>16</title>
<polygon fill="none" stroke="#000000" points="1857.1211,-396 1803.1211,-396 1803.1211,-360 1857.1211,-360 1857.1211,-396"/>
<text text-anchor="middle" x="1830.1211" y="-373.8" font-family="Times,serif" font-size="14.00" fill="#000000">*v</text>
</g>
<!-- 3&#45;&gt;16 -->
<g id="edge2" class="edge">
<title>3&#45;&gt;16</title>
<path fill="none" stroke="#000000" d="M1830.1211,-431.8314C1830.1211,-424.131 1830.1211,-414.9743 1830.1211,-406.4166"/>
<polygon fill="#000000" stroke="#000000" points="1833.6212,-406.4132 1830.1211,-396.4133 1826.6212,-406.4133 1833.6212,-406.4132"/>
</g>
<!-- 4 -->
<g id="node5" class="node">
<title>4</title>
<polygon fill="none" stroke="#000000" points="702.2481,-612 505.9941,-612 505.9941,-576 702.2481,-576 702.2481,-612"/>
<text text-anchor="middle" x="604.1211" y="-589.8" font-family="Times,serif" font-size="14.00" fill="#000000">VarExp(Var(VarName(&quot;right&quot;)))</text>
</g>
<!-- 4&#45;&gt;2 -->
<g id="edge3" class="edge">
<title>4&#45;&gt;2</title>
<path fill="none" stroke="#000000" d="M604.1211,-575.8314C604.1211,-568.131 604.1211,-558.9743 604.1211,-550.4166"/>
<polygon fill="#000000" stroke="#000000" points="607.6212,-550.4132 604.1211,-540.4133 600.6212,-550.4133 607.6212,-550.4132"/>
</g>
<!-- 5 -->
<g id="node6" class="node">
<title>5</title>
<polygon fill="none" stroke="#000000" points="1928.2481,-540 1731.9941,-540 1731.9941,-504 1928.2481,-504 1928.2481,-540"/>
<text text-anchor="middle" x="1830.1211" y="-517.8" font-family="Times,serif" font-size="14.00" fill="#000000">VarExp(Var(VarName(&quot;right&quot;)))</text>
</g>
<!-- 5&#45;&gt;3 -->
<g id="edge4" class="edge">
<title>5&#45;&gt;3</title>
<path fill="none" stroke="#000000" d="M1830.1211,-503.8314C1830.1211,-496.131 1830.1211,-486.9743 1830.1211,-478.4166"/>
<polygon fill="#000000" stroke="#000000" points="1833.6212,-478.4132 1830.1211,-468.4133 1826.6212,-478.4133 1833.6212,-478.4132"/>
</g>
<!-- 6 -->
<g id="node7" class="node">
<title>6</title>
<polygon fill="none" stroke="#000000" points="1568.1211,-1764 1514.1211,-1764 1514.1211,-1728 1568.1211,-1728 1568.1211,-1764"/>
<text text-anchor="middle" x="1541.1211" y="-1741.8" font-family="Times,serif" font-size="14.00" fill="#000000">*v</text>
</g>
<!-- 42 -->
<g id="node43" class="node">
<title>42</title>
<polygon fill="none" stroke="#000000" points="2434.3633,-1692 1225.8789,-1692 1225.8789,-1656 2434.3633,-1656 2434.3633,-1692"/>
<text text-anchor="middle" x="1830.1211" y="-1669.8" font-family="Times,serif" font-size="14.00" fill="#000000">Seq(If(VarExp(Var(VarName(&quot;b&quot;))), Write(*v), *v), Seq(WriteInt(VarExp(Var(VarName(&quot;left&quot;)))), Seq(Write(*v), Seq(WriteInt(VarExp(Var(VarName(&quot;right&quot;)))), If(VarExp(Var(VarName(&quot;b&quot;))), Write(*v), *v)))))</text>
</g>
<!-- 6&#45;&gt;42 -->
<g id="edge5" class="edge">
<title>6&#45;&gt;42</title>
<path fill="none" stroke="#000000" d="M1568.3095,-1739.2264C1608.9725,-1729.0959 1687.309,-1709.5795 1747.7414,-1694.5237"/>
<polygon fill="#000000" stroke="#000000" points="1748.8009,-1697.8668 1757.6582,-1692.053 1747.1087,-1691.0744 1748.8009,-1697.8668"/>
</g>
<!-- 7 -->
<g id="node8" class="node">
<title>7</title>
<polygon fill="none" stroke="#000000" points="1208.1211,-1764 1154.1211,-1764 1154.1211,-1728 1208.1211,-1728 1208.1211,-1764"/>
<text text-anchor="middle" x="1181.1211" y="-1741.8" font-family="Times,serif" font-size="14.00" fill="#000000">*v</text>
</g>
<!-- 43 -->
<g id="node44" class="node">
<title>43</title>
<polygon fill="none" stroke="#000000" points="1208.3633,-1692 -.1211,-1692 -.1211,-1656 1208.3633,-1656 1208.3633,-1692"/>
<text text-anchor="middle" x="604.1211" y="-1669.8" font-family="Times,serif" font-size="14.00" fill="#000000">Seq(If(VarExp(Var(VarName(&quot;b&quot;))), Write(*v), *v), Seq(WriteInt(VarExp(Var(VarName(&quot;left&quot;)))), Seq(Write(*v), Seq(WriteInt(VarExp(Var(VarName(&quot;right&quot;)))), If(VarExp(Var(VarName(&quot;b&quot;))), Write(*v), *v)))))</text>
</g>
<!-- 7&#45;&gt;43 -->
<g id="edge6" class="edge">
<title>7&#45;&gt;43</title>
<path fill="none" stroke="#000000" d="M1154.0651,-1742.6239C1084.5632,-1733.9512 895.6102,-1710.373 758.5602,-1693.2714"/>
<polygon fill="#000000" stroke="#000000" points="758.7278,-1689.7653 748.3713,-1692 757.861,-1696.7114 758.7278,-1689.7653"/>
</g>
<!-- 8 -->
<g id="node9" class="node">
<title>8</title>
<polygon fill="none" stroke="#000000" points="2140.5586,-2556 293.6836,-2556 293.6836,-2520 2140.5586,-2520 2140.5586,-2556"/>
<text text-anchor="middle" x="1217.1211" y="-2533.8" font-family="Times,serif" font-size="14.00" fill="#000000">Seq(:=(Var(VarName(&quot;right&quot;)), ReadInt()), Seq(:=(Var(VarName(&quot;b&quot;)), &lt;(VarExp(Var(VarName(&quot;prec&quot;))), *v)), Seq(If(VarExp(Var(VarName(&quot;b&quot;))), Write(*v), *v), Seq(WriteInt(VarExp(Var(VarName(&quot;left&quot;)))), Seq(Write(*v), Seq(WriteInt(VarExp(Var(VarName(&quot;right&quot;)))), If(VarExp(Var(VarName(&quot;b&quot;))), Write(*v), *v)))))))</text>
</g>
<!-- 48 -->
<g id="node49" class="node">
<title>48</title>
<polygon fill="none" stroke="#000000" points="1330.1889,-2484 1104.0533,-2484 1104.0533,-2448 1330.1889,-2448 1330.1889,-2484"/>
<text text-anchor="middle" x="1217.1211" y="-2461.8" font-family="Times,serif" font-size="14.00" fill="#000000">:=(Var(VarName(&quot;right&quot;)), ReadInt())</text>
</g>
<!-- 8&#45;&gt;48 -->
<g id="edge7" class="edge">
<title>8&#45;&gt;48</title>
<path fill="none" stroke="#000000" d="M1217.1211,-2519.8314C1217.1211,-2512.131 1217.1211,-2502.9743 1217.1211,-2494.4166"/>
<polygon fill="#000000" stroke="#000000" points="1220.6212,-2494.4132 1217.1211,-2484.4133 1213.6212,-2494.4133 1220.6212,-2494.4132"/>
</g>
<!-- 9 -->
<g id="node10" class="node">
<title>9</title>
<polygon fill="none" stroke="#000000" points="1208.1211,-1836 1154.1211,-1836 1154.1211,-1800 1208.1211,-1800 1208.1211,-1836"/>
<text text-anchor="middle" x="1181.1211" y="-1813.8" font-family="Times,serif" font-size="14.00" fill="#000000">false()</text>
</g>
<!-- 9&#45;&gt;7 -->
<g id="edge8" class="edge">
<title>9&#45;&gt;7</title>
<path fill="none" stroke="#000000" d="M1181.1211,-1799.8314C1181.1211,-1792.131 1181.1211,-1782.9743 1181.1211,-1774.4166"/>
<polygon fill="#000000" stroke="#000000" points="1184.6212,-1774.4132 1181.1211,-1764.4133 1177.6212,-1774.4133 1184.6212,-1774.4132"/>
</g>
<!-- 10 -->
<g id="node11" class="node">
<title>10</title>
<polygon fill="none" stroke="#000000" points="1244.1211,-1908 1190.1211,-1908 1190.1211,-1872 1244.1211,-1872 1244.1211,-1908"/>
<text text-anchor="middle" x="1217.1211" y="-1885.8" font-family="Times,serif" font-size="14.00" fill="#000000">*v</text>
</g>
<!-- 10&#45;&gt;9 -->
<g id="edge9" class="edge">
<title>10&#45;&gt;9</title>
<path fill="none" stroke="#000000" d="M1208.0368,-1871.8314C1204.0596,-1863.8771 1199.3056,-1854.369 1194.9072,-1845.5723"/>
<polygon fill="#000000" stroke="#000000" points="1197.9304,-1843.7923 1190.3277,-1836.4133 1191.6694,-1846.9228 1197.9304,-1843.7923"/>
</g>
<!-- 14 -->
<g id="node15" class="node">
<title>14</title>
<polygon fill="none" stroke="#000000" points="1424.1211,-1836 1370.1211,-1836 1370.1211,-1800 1424.1211,-1800 1424.1211,-1836"/>
<text text-anchor="middle" x="1397.1211" y="-1813.8" font-family="Times,serif" font-size="14.00" fill="#000000">true()</text>
</g>
<!-- 10&#45;&gt;14 -->
<g id="edge10" class="edge">
<title>10&#45;&gt;14</title>
<path fill="none" stroke="#000000" d="M1244.4592,-1879.0647C1275.4306,-1866.6762 1326.0561,-1846.426 1360.4418,-1832.6717"/>
<polygon fill="#000000" stroke="#000000" points="1362.1306,-1835.7659 1370.1155,-1828.8022 1359.5308,-1829.2665 1362.1306,-1835.7659"/>
</g>
<!-- 11 -->
<g id="node12" class="node">
<title>11</title>
<polygon fill="none" stroke="#000000" points="1313.8966,-1980 1120.3456,-1980 1120.3456,-1944 1313.8966,-1944 1313.8966,-1980"/>
<text text-anchor="middle" x="1217.1211" y="-1957.8" font-family="Times,serif" font-size="14.00" fill="#000000">VarExp(Var(VarName(&quot;prec&quot;)))</text>
</g>
<!-- 11&#45;&gt;10 -->
<g id="edge11" class="edge">
<title>11&#45;&gt;10</title>
<path fill="none" stroke="#000000" d="M1217.1211,-1943.8314C1217.1211,-1936.131 1217.1211,-1926.9743 1217.1211,-1918.4166"/>
<polygon fill="#000000" stroke="#000000" points="1220.6212,-1918.4132 1217.1211,-1908.4133 1213.6212,-1918.4133 1220.6212,-1918.4132"/>
</g>
<!-- 12 -->
<g id="node13" class="node">
<title>12</title>
<polygon fill="none" stroke="#000000" points="1402.1009,-2124 1032.1413,-2124 1032.1413,-2088 1402.1009,-2088 1402.1009,-2124"/>
<text text-anchor="middle" x="1217.1211" y="-2101.8" font-family="Times,serif" font-size="14.00" fill="#000000">:=(Var(VarName(&quot;b&quot;)), &lt;(VarExp(Var(VarName(&quot;prec&quot;))), *v))</text>
</g>
<!-- 13 -->
<g id="node14" class="node">
<title>13</title>
<polygon fill="none" stroke="#000000" points="1333.1162,-2052 1101.126,-2052 1101.126,-2016 1333.1162,-2016 1333.1162,-2052"/>
<text text-anchor="middle" x="1217.1211" y="-2029.8" font-family="Times,serif" font-size="14.00" fill="#000000">&lt;(VarExp(Var(VarName(&quot;prec&quot;))), *v)</text>
</g>
<!-- 12&#45;&gt;13 -->
<g id="edge12" class="edge">
<title>12&#45;&gt;13</title>
<path fill="none" stroke="#000000" d="M1217.1211,-2087.8314C1217.1211,-2080.131 1217.1211,-2070.9743 1217.1211,-2062.4166"/>
<polygon fill="#000000" stroke="#000000" points="1220.6212,-2062.4132 1217.1211,-2052.4133 1213.6212,-2062.4133 1220.6212,-2062.4132"/>
</g>
<!-- 13&#45;&gt;11 -->
<g id="edge13" class="edge">
<title>13&#45;&gt;11</title>
<path fill="none" stroke="#000000" d="M1217.1211,-2015.8314C1217.1211,-2008.131 1217.1211,-1998.9743 1217.1211,-1990.4166"/>
<polygon fill="#000000" stroke="#000000" points="1220.6212,-1990.4132 1217.1211,-1980.4133 1213.6212,-1990.4133 1220.6212,-1990.4132"/>
</g>
<!-- 14&#45;&gt;6 -->
<g id="edge14" class="edge">
<title>14&#45;&gt;6</title>
<path fill="none" stroke="#000000" d="M1424.2064,-1804.4574C1446.8904,-1793.1153 1479.4778,-1776.8217 1504.4892,-1764.316"/>
<polygon fill="#000000" stroke="#000000" points="1506.2886,-1767.3294 1513.6677,-1759.7267 1503.1581,-1761.0684 1506.2886,-1767.3294"/>
</g>
<!-- 44 -->
<g id="node45" class="node">
<title>44</title>
<polygon fill="none" stroke="#000000" points="742.8488,-396 465.3934,-396 465.3934,-360 742.8488,-360 742.8488,-396"/>
<text text-anchor="middle" x="604.1211" y="-373.8" font-family="Times,serif" font-size="14.00" fill="#000000">If(VarExp(Var(VarName(&quot;b&quot;))), Write(*v), *v)</text>
</g>
<!-- 15&#45;&gt;44 -->
<g id="edge15" class="edge">
<title>15&#45;&gt;44</title>
<path fill="none" stroke="#000000" d="M604.1211,-431.8314C604.1211,-424.131 604.1211,-414.9743 604.1211,-406.4166"/>
<polygon fill="#000000" stroke="#000000" points="607.6212,-406.4132 604.1211,-396.4133 600.6212,-406.4133 607.6212,-406.4132"/>
</g>
<!-- 45 -->
<g id="node46" class="node">
<title>45</title>
<polygon fill="none" stroke="#000000" points="1968.8488,-324 1691.3934,-324 1691.3934,-288 1968.8488,-288 1968.8488,-324"/>
<text text-anchor="middle" x="1830.1211" y="-301.8" font-family="Times,serif" font-size="14.00" fill="#000000">If(VarExp(Var(VarName(&quot;b&quot;))), Write(*v), *v)</text>
</g>
<!-- 16&#45;&gt;45 -->
<g id="edge16" class="edge">
<title>16&#45;&gt;45</title>
<path fill="none" stroke="#000000" d="M1830.1211,-359.8314C1830.1211,-352.131 1830.1211,-342.9743 1830.1211,-334.4166"/>
<polygon fill="#000000" stroke="#000000" points="1833.6212,-334.4132 1830.1211,-324.4133 1826.6212,-334.4133 1833.6212,-334.4132"/>
</g>
<!-- 17 -->
<g id="node18" class="node">
<title>17</title>
<polygon fill="none" stroke="#000000" points="730.4397,-684 477.8025,-684 477.8025,-648 730.4397,-648 730.4397,-684"/>
<text text-anchor="middle" x="604.1211" y="-661.8" font-family="Times,serif" font-size="14.00" fill="#000000">WriteInt(VarExp(Var(VarName(&quot;right&quot;))))</text>
</g>
<!-- 17&#45;&gt;4 -->
<g id="edge17" class="edge">
<title>17&#45;&gt;4</title>
<path fill="none" stroke="#000000" d="M604.1211,-647.8314C604.1211,-640.131 604.1211,-630.9743 604.1211,-622.4166"/>
<polygon fill="#000000" stroke="#000000" points="607.6212,-622.4132 604.1211,-612.4133 600.6212,-622.4133 607.6212,-622.4132"/>
</g>
<!-- 18 -->
<g id="node19" class="node">
<title>18</title>
<polygon fill="none" stroke="#000000" points="1956.4397,-612 1703.8025,-612 1703.8025,-576 1956.4397,-576 1956.4397,-612"/>
<text text-anchor="middle" x="1830.1211" y="-589.8" font-family="Times,serif" font-size="14.00" fill="#000000">WriteInt(VarExp(Var(VarName(&quot;right&quot;))))</text>
</g>
<!-- 18&#45;&gt;5 -->
<g id="edge18" class="edge">
<title>18&#45;&gt;5</title>
<path fill="none" stroke="#000000" d="M1830.1211,-575.8314C1830.1211,-568.131 1830.1211,-558.9743 1830.1211,-550.4166"/>
<polygon fill="#000000" stroke="#000000" points="1833.6212,-550.4132 1830.1211,-540.4133 1826.6212,-550.4133 1833.6212,-550.4132"/>
</g>
<!-- 19 -->
<g id="node20" class="node">
<title>19</title>
<polygon fill="none" stroke="#000000" points="1865.2617,-108 1794.9805,-108 1794.9805,-72 1865.2617,-72 1865.2617,-108"/>
<text text-anchor="middle" x="1830.1211" y="-85.8" font-family="Times,serif" font-size="14.00" fill="#000000">Write(*v)</text>
</g>
<!-- 19&#45;&gt;1 -->
<g id="edge19" class="edge">
<title>19&#45;&gt;1</title>
<path fill="none" stroke="#000000" d="M1830.1211,-71.8314C1830.1211,-64.131 1830.1211,-54.9743 1830.1211,-46.4166"/>
<polygon fill="#000000" stroke="#000000" points="1833.6212,-46.4132 1830.1211,-36.4133 1826.6212,-46.4133 1833.6212,-46.4132"/>
</g>
<!-- 20 -->
<g id="node21" class="node">
<title>20</title>
<polygon fill="none" stroke="#000000" points="726.1538,-1260 482.0884,-1260 482.0884,-1224 726.1538,-1224 726.1538,-1260"/>
<text text-anchor="middle" x="604.1211" y="-1237.8" font-family="Times,serif" font-size="14.00" fill="#000000">WriteInt(VarExp(Var(VarName(&quot;left&quot;))))</text>
</g>
<!-- 27 -->
<g id="node28" class="node">
<title>27</title>
<polygon fill="none" stroke="#000000" points="698.4622,-1188 509.78,-1188 509.78,-1152 698.4622,-1152 698.4622,-1188"/>
<text text-anchor="middle" x="604.1211" y="-1165.8" font-family="Times,serif" font-size="14.00" fill="#000000">VarExp(Var(VarName(&quot;left&quot;)))</text>
</g>
<!-- 20&#45;&gt;27 -->
<g id="edge20" class="edge">
<title>20&#45;&gt;27</title>
<path fill="none" stroke="#000000" d="M604.1211,-1223.8314C604.1211,-1216.131 604.1211,-1206.9743 604.1211,-1198.4166"/>
<polygon fill="#000000" stroke="#000000" points="607.6212,-1198.4132 604.1211,-1188.4133 600.6212,-1198.4133 607.6212,-1198.4132"/>
</g>
<!-- 21 -->
<g id="node22" class="node">
<title>21</title>
<polygon fill="none" stroke="#000000" points="1952.1538,-1188 1708.0884,-1188 1708.0884,-1152 1952.1538,-1152 1952.1538,-1188"/>
<text text-anchor="middle" x="1830.1211" y="-1165.8" font-family="Times,serif" font-size="14.00" fill="#000000">WriteInt(VarExp(Var(VarName(&quot;left&quot;))))</text>
</g>
<!-- 28 -->
<g id="node29" class="node">
<title>28</title>
<polygon fill="none" stroke="#000000" points="1924.4622,-1116 1735.78,-1116 1735.78,-1080 1924.4622,-1080 1924.4622,-1116"/>
<text text-anchor="middle" x="1830.1211" y="-1093.8" font-family="Times,serif" font-size="14.00" fill="#000000">VarExp(Var(VarName(&quot;left&quot;)))</text>
</g>
<!-- 21&#45;&gt;28 -->
<g id="edge21" class="edge">
<title>21&#45;&gt;28</title>
<path fill="none" stroke="#000000" d="M1830.1211,-1151.8314C1830.1211,-1144.131 1830.1211,-1134.9743 1830.1211,-1126.4166"/>
<polygon fill="#000000" stroke="#000000" points="1833.6212,-1126.4132 1830.1211,-1116.4133 1826.6212,-1126.4133 1833.6212,-1126.4132"/>
</g>
<!-- 22 -->
<g id="node23" class="node">
<title>22</title>
<polygon fill="none" stroke="#000000" points="631.1211,-1044 577.1211,-1044 577.1211,-1008 631.1211,-1008 631.1211,-1044"/>
<text text-anchor="middle" x="604.1211" y="-1021.8" font-family="Times,serif" font-size="14.00" fill="#000000">*v</text>
</g>
<!-- 50 -->
<g id="node51" class="node">
<title>50</title>
<polygon fill="none" stroke="#000000" points="925.9552,-972 282.287,-972 282.287,-936 925.9552,-936 925.9552,-972"/>
<text text-anchor="middle" x="604.1211" y="-949.8" font-family="Times,serif" font-size="14.00" fill="#000000">Seq(Write(*v), Seq(WriteInt(VarExp(Var(VarName(&quot;right&quot;)))), If(VarExp(Var(VarName(&quot;b&quot;))), Write(*v), *v)))</text>
</g>
<!-- 22&#45;&gt;50 -->
<g id="edge22" class="edge">
<title>22&#45;&gt;50</title>
<path fill="none" stroke="#000000" d="M604.1211,-1007.8314C604.1211,-1000.131 604.1211,-990.9743 604.1211,-982.4166"/>
<polygon fill="#000000" stroke="#000000" points="607.6212,-982.4132 604.1211,-972.4133 600.6212,-982.4133 607.6212,-982.4132"/>
</g>
<!-- 23 -->
<g id="node24" class="node">
<title>23</title>
<polygon fill="none" stroke="#000000" points="1857.1211,-972 1803.1211,-972 1803.1211,-936 1857.1211,-936 1857.1211,-972"/>
<text text-anchor="middle" x="1830.1211" y="-949.8" font-family="Times,serif" font-size="14.00" fill="#000000">*v</text>
</g>
<!-- 51 -->
<g id="node52" class="node">
<title>51</title>
<polygon fill="none" stroke="#000000" points="2151.9552,-900 1508.287,-900 1508.287,-864 2151.9552,-864 2151.9552,-900"/>
<text text-anchor="middle" x="1830.1211" y="-877.8" font-family="Times,serif" font-size="14.00" fill="#000000">Seq(Write(*v), Seq(WriteInt(VarExp(Var(VarName(&quot;right&quot;)))), If(VarExp(Var(VarName(&quot;b&quot;))), Write(*v), *v)))</text>
</g>
<!-- 23&#45;&gt;51 -->
<g id="edge23" class="edge">
<title>23&#45;&gt;51</title>
<path fill="none" stroke="#000000" d="M1830.1211,-935.8314C1830.1211,-928.131 1830.1211,-918.9743 1830.1211,-910.4166"/>
<polygon fill="#000000" stroke="#000000" points="1833.6212,-910.4132 1830.1211,-900.4133 1826.6212,-910.4133 1833.6212,-910.4132"/>
</g>
<!-- 24 -->
<g id="node25" class="node">
<title>24</title>
<polygon fill="none" stroke="#000000" points="2016.667,-2196 417.5752,-2196 417.5752,-2160 2016.667,-2160 2016.667,-2196"/>
<text text-anchor="middle" x="1217.1211" y="-2173.8" font-family="Times,serif" font-size="14.00" fill="#000000">Seq(:=(Var(VarName(&quot;b&quot;)), &lt;(VarExp(Var(VarName(&quot;prec&quot;))), *v)), Seq(If(VarExp(Var(VarName(&quot;b&quot;))), Write(*v), *v), Seq(WriteInt(VarExp(Var(VarName(&quot;left&quot;)))), Seq(Write(*v), Seq(WriteInt(VarExp(Var(VarName(&quot;right&quot;)))), If(VarExp(Var(VarName(&quot;b&quot;))), Write(*v), *v))))))</text>
</g>
<!-- 24&#45;&gt;12 -->
<g id="edge24" class="edge">
<title>24&#45;&gt;12</title>
<path fill="none" stroke="#000000" d="M1217.1211,-2159.8314C1217.1211,-2152.131 1217.1211,-2142.9743 1217.1211,-2134.4166"/>
<polygon fill="#000000" stroke="#000000" points="1220.6212,-2134.4132 1217.1211,-2124.4133 1213.6212,-2134.4133 1220.6212,-2134.4132"/>
</g>
<!-- 25 -->
<g id="node26" class="node">
<title>25</title>
<polygon fill="none" stroke="#000000" points="631.1211,-1116 577.1211,-1116 577.1211,-1080 631.1211,-1080 631.1211,-1116"/>
<text text-anchor="middle" x="604.1211" y="-1093.8" font-family="Times,serif" font-size="14.00" fill="#000000">*v</text>
</g>
<!-- 25&#45;&gt;22 -->
<g id="edge25" class="edge">
<title>25&#45;&gt;22</title>
<path fill="none" stroke="#000000" d="M604.1211,-1079.8314C604.1211,-1072.131 604.1211,-1062.9743 604.1211,-1054.4166"/>
<polygon fill="#000000" stroke="#000000" points="607.6212,-1054.4132 604.1211,-1044.4133 600.6212,-1054.4133 607.6212,-1054.4132"/>
</g>
<!-- 26 -->
<g id="node27" class="node">
<title>26</title>
<polygon fill="none" stroke="#000000" points="1857.1211,-1044 1803.1211,-1044 1803.1211,-1008 1857.1211,-1008 1857.1211,-1044"/>
<text text-anchor="middle" x="1830.1211" y="-1021.8" font-family="Times,serif" font-size="14.00" fill="#000000">*v</text>
</g>
<!-- 26&#45;&gt;23 -->
<g id="edge26" class="edge">
<title>26&#45;&gt;23</title>
<path fill="none" stroke="#000000" d="M1830.1211,-1007.8314C1830.1211,-1000.131 1830.1211,-990.9743 1830.1211,-982.4166"/>
<polygon fill="#000000" stroke="#000000" points="1833.6212,-982.4132 1830.1211,-972.4133 1826.6212,-982.4133 1833.6212,-982.4132"/>
</g>
<!-- 27&#45;&gt;25 -->
<g id="edge27" class="edge">
<title>27&#45;&gt;25</title>
<path fill="none" stroke="#000000" d="M604.1211,-1151.8314C604.1211,-1144.131 604.1211,-1134.9743 604.1211,-1126.4166"/>
<polygon fill="#000000" stroke="#000000" points="607.6212,-1126.4132 604.1211,-1116.4133 600.6212,-1126.4133 607.6212,-1126.4132"/>
</g>
<!-- 28&#45;&gt;26 -->
<g id="edge28" class="edge">
<title>28&#45;&gt;26</title>
<path fill="none" stroke="#000000" d="M1830.1211,-1079.8314C1830.1211,-1072.131 1830.1211,-1062.9743 1830.1211,-1054.4166"/>
<polygon fill="#000000" stroke="#000000" points="1833.6212,-1054.4132 1830.1211,-1044.4133 1826.6212,-1054.4133 1833.6212,-1054.4132"/>
</g>
<!-- 29 -->
<g id="node30" class="node">
<title>29</title>
<polygon fill="none" stroke="#000000" points="692.3069,-324 515.9353,-324 515.9353,-288 692.3069,-288 692.3069,-324"/>
<text text-anchor="middle" x="604.1211" y="-301.8" font-family="Times,serif" font-size="14.00" fill="#000000">VarExp(Var(VarName(&quot;b&quot;)))</text>
</g>
<!-- 54 -->
<g id="node55" class="node">
<title>54</title>
<polygon fill="none" stroke="#000000" points="631.1211,-252 577.1211,-252 577.1211,-216 631.1211,-216 631.1211,-252"/>
<text text-anchor="middle" x="604.1211" y="-229.8" font-family="Times,serif" font-size="14.00" fill="#000000">false()</text>
</g>
<!-- 29&#45;&gt;54 -->
<g id="edge29" class="edge">
<title>29&#45;&gt;54</title>
<path fill="none" stroke="#000000" d="M604.1211,-287.8314C604.1211,-280.131 604.1211,-270.9743 604.1211,-262.4166"/>
<polygon fill="#000000" stroke="#000000" points="607.6212,-262.4132 604.1211,-252.4133 600.6212,-262.4133 607.6212,-262.4132"/>
</g>
<!-- 30 -->
<g id="node31" class="node">
<title>30</title>
<polygon fill="none" stroke="#000000" points="1918.3069,-252 1741.9353,-252 1741.9353,-216 1918.3069,-216 1918.3069,-252"/>
<text text-anchor="middle" x="1830.1211" y="-229.8" font-family="Times,serif" font-size="14.00" fill="#000000">VarExp(Var(VarName(&quot;b&quot;)))</text>
</g>
<!-- 55 -->
<g id="node56" class="node">
<title>55</title>
<polygon fill="none" stroke="#000000" points="1857.1211,-180 1803.1211,-180 1803.1211,-144 1857.1211,-144 1857.1211,-180"/>
<text text-anchor="middle" x="1830.1211" y="-157.8" font-family="Times,serif" font-size="14.00" fill="#000000">true()</text>
</g>
<!-- 30&#45;&gt;55 -->
<g id="edge30" class="edge">
<title>30&#45;&gt;55</title>
<path fill="none" stroke="#000000" d="M1830.1211,-215.8314C1830.1211,-208.131 1830.1211,-198.9743 1830.1211,-190.4166"/>
<polygon fill="#000000" stroke="#000000" points="1833.6212,-190.4132 1830.1211,-180.4133 1826.6212,-190.4133 1833.6212,-190.4132"/>
</g>
<!-- 31 -->
<g id="node32" class="node">
<title>31</title>
<polygon fill="none" stroke="#000000" points="1244.1211,-2988 1190.1211,-2988 1190.1211,-2952 1244.1211,-2952 1244.1211,-2988"/>
<text text-anchor="middle" x="1217.1211" y="-2965.8" font-family="Times,serif" font-size="14.00" fill="#000000">*v</text>
</g>
<!-- 37 -->
<g id="node38" class="node">
<title>37</title>
<polygon fill="none" stroke="#000000" points="2260.6641,-2916 173.5781,-2916 173.5781,-2880 2260.6641,-2880 2260.6641,-2916"/>
<text text-anchor="middle" x="1217.1211" y="-2893.8" font-family="Times,serif" font-size="14.00" fill="#000000">Seq(:=(Var(VarName(&quot;left&quot;)), ReadInt()), Seq(:=(Var(VarName(&quot;right&quot;)), ReadInt()), Seq(:=(Var(VarName(&quot;b&quot;)), &lt;(VarExp(Var(VarName(&quot;prec&quot;))), *v)), Seq(If(VarExp(Var(VarName(&quot;b&quot;))), Write(*v), *v), Seq(WriteInt(VarExp(Var(VarName(&quot;left&quot;)))), Seq(Write(*v), Seq(WriteInt(VarExp(Var(VarName(&quot;right&quot;)))), If(VarExp(Var(VarName(&quot;b&quot;))), Write(*v), *v))))))))</text>
</g>
<!-- 31&#45;&gt;37 -->
<g id="edge31" class="edge">
<title>31&#45;&gt;37</title>
<path fill="none" stroke="#000000" d="M1217.1211,-2951.8314C1217.1211,-2944.131 1217.1211,-2934.9743 1217.1211,-2926.4166"/>
<polygon fill="#000000" stroke="#000000" points="1220.6212,-2926.4132 1217.1211,-2916.4133 1213.6212,-2926.4133 1220.6212,-2926.4132"/>
</g>
<!-- 32 -->
<g id="node33" class="node">
<title>32</title>
<polygon fill="none" stroke="#000000" points="1865.2617,-1404 1794.9805,-1404 1794.9805,-1368 1865.2617,-1368 1865.2617,-1404"/>
<text text-anchor="middle" x="1830.1211" y="-1381.8" font-family="Times,serif" font-size="14.00" fill="#000000">Write(*v)</text>
</g>
<!-- 64 -->
<g id="node65" class="node">
<title>64</title>
<polygon fill="none" stroke="#000000" points="1857.1211,-1332 1803.1211,-1332 1803.1211,-1296 1857.1211,-1296 1857.1211,-1332"/>
<text text-anchor="middle" x="1830.1211" y="-1309.8" font-family="Times,serif" font-size="14.00" fill="#000000">*v</text>
</g>
<!-- 32&#45;&gt;64 -->
<g id="edge32" class="edge">
<title>32&#45;&gt;64</title>
<path fill="none" stroke="#000000" d="M1830.1211,-1367.8314C1830.1211,-1360.131 1830.1211,-1350.9743 1830.1211,-1342.4166"/>
<polygon fill="#000000" stroke="#000000" points="1833.6212,-1342.4132 1830.1211,-1332.4133 1826.6212,-1342.4133 1833.6212,-1342.4132"/>
</g>
<!-- 33 -->
<g id="node34" class="node">
<title>33</title>
<polygon fill="none" stroke="#000000" points="631.1211,-828 577.1211,-828 577.1211,-792 631.1211,-792 631.1211,-828"/>
<text text-anchor="middle" x="604.1211" y="-805.8" font-family="Times,serif" font-size="14.00" fill="#000000">*v</text>
</g>
<!-- 65 -->
<g id="node66" class="node">
<title>65</title>
<polygon fill="none" stroke="#000000" points="879.9913,-756 328.2509,-756 328.2509,-720 879.9913,-720 879.9913,-756"/>
<text text-anchor="middle" x="604.1211" y="-733.8" font-family="Times,serif" font-size="14.00" fill="#000000">Seq(WriteInt(VarExp(Var(VarName(&quot;right&quot;)))), If(VarExp(Var(VarName(&quot;b&quot;))), Write(*v), *v))</text>
</g>
<!-- 33&#45;&gt;65 -->
<g id="edge33" class="edge">
<title>33&#45;&gt;65</title>
<path fill="none" stroke="#000000" d="M604.1211,-791.8314C604.1211,-784.131 604.1211,-774.9743 604.1211,-766.4166"/>
<polygon fill="#000000" stroke="#000000" points="607.6212,-766.4132 604.1211,-756.4133 600.6212,-766.4133 607.6212,-766.4132"/>
</g>
<!-- 34 -->
<g id="node35" class="node">
<title>34</title>
<polygon fill="none" stroke="#000000" points="1857.1211,-756 1803.1211,-756 1803.1211,-720 1857.1211,-720 1857.1211,-756"/>
<text text-anchor="middle" x="1830.1211" y="-733.8" font-family="Times,serif" font-size="14.00" fill="#000000">*v</text>
</g>
<!-- 66 -->
<g id="node67" class="node">
<title>66</title>
<polygon fill="none" stroke="#000000" points="2105.9913,-684 1554.2509,-684 1554.2509,-648 2105.9913,-648 2105.9913,-684"/>
<text text-anchor="middle" x="1830.1211" y="-661.8" font-family="Times,serif" font-size="14.00" fill="#000000">Seq(WriteInt(VarExp(Var(VarName(&quot;right&quot;)))), If(VarExp(Var(VarName(&quot;b&quot;))), Write(*v), *v))</text>
</g>
<!-- 34&#45;&gt;66 -->
<g id="edge34" class="edge">
<title>34&#45;&gt;66</title>
<path fill="none" stroke="#000000" d="M1830.1211,-719.8314C1830.1211,-712.131 1830.1211,-702.9743 1830.1211,-694.4166"/>
<polygon fill="#000000" stroke="#000000" points="1833.6212,-694.4132 1830.1211,-684.4133 1826.6212,-694.4133 1833.6212,-694.4132"/>
</g>
<!-- 35 -->
<g id="node36" class="node">
<title>35</title>
<polygon fill="none" stroke="#000000" points="639.2617,-900 568.9805,-900 568.9805,-864 639.2617,-864 639.2617,-900"/>
<text text-anchor="middle" x="604.1211" y="-877.8" font-family="Times,serif" font-size="14.00" fill="#000000">Write(*v)</text>
</g>
<!-- 35&#45;&gt;33 -->
<g id="edge35" class="edge">
<title>35&#45;&gt;33</title>
<path fill="none" stroke="#000000" d="M604.1211,-863.8314C604.1211,-856.131 604.1211,-846.9743 604.1211,-838.4166"/>
<polygon fill="#000000" stroke="#000000" points="607.6212,-838.4132 604.1211,-828.4133 600.6212,-838.4133 607.6212,-838.4132"/>
</g>
<!-- 36 -->
<g id="node37" class="node">
<title>36</title>
<polygon fill="none" stroke="#000000" points="1865.2617,-828 1794.9805,-828 1794.9805,-792 1865.2617,-792 1865.2617,-828"/>
<text text-anchor="middle" x="1830.1211" y="-805.8" font-family="Times,serif" font-size="14.00" fill="#000000">Write(*v)</text>
</g>
<!-- 36&#45;&gt;34 -->
<g id="edge36" class="edge">
<title>36&#45;&gt;34</title>
<path fill="none" stroke="#000000" d="M1830.1211,-791.8314C1830.1211,-784.131 1830.1211,-774.9743 1830.1211,-766.4166"/>
<polygon fill="#000000" stroke="#000000" points="1833.6212,-766.4132 1830.1211,-756.4133 1826.6212,-766.4133 1833.6212,-766.4132"/>
</g>
<!-- 40 -->
<g id="node41" class="node">
<title>40</title>
<polygon fill="none" stroke="#000000" points="1326.4025,-2844 1107.8397,-2844 1107.8397,-2808 1326.4025,-2808 1326.4025,-2844"/>
<text text-anchor="middle" x="1217.1211" y="-2821.8" font-family="Times,serif" font-size="14.00" fill="#000000">:=(Var(VarName(&quot;left&quot;)), ReadInt())</text>
</g>
<!-- 37&#45;&gt;40 -->
<g id="edge37" class="edge">
<title>37&#45;&gt;40</title>
<path fill="none" stroke="#000000" d="M1217.1211,-2879.8314C1217.1211,-2872.131 1217.1211,-2862.9743 1217.1211,-2854.4166"/>
<polygon fill="#000000" stroke="#000000" points="1220.6212,-2854.4132 1217.1211,-2844.4133 1213.6212,-2854.4133 1220.6212,-2854.4132"/>
</g>
<!-- 38 -->
<g id="node39" class="node">
<title>38</title>
<polygon fill="none" stroke="#000000" points="1244.1211,-2700 1190.1211,-2700 1190.1211,-2664 1244.1211,-2664 1244.1211,-2700"/>
<text text-anchor="middle" x="1217.1211" y="-2677.8" font-family="Times,serif" font-size="14.00" fill="#000000">*v</text>
</g>
<!-- 41 -->
<g id="node42" class="node">
<title>41</title>
<polygon fill="none" stroke="#000000" points="1244.1211,-2628 1190.1211,-2628 1190.1211,-2592 1244.1211,-2592 1244.1211,-2628"/>
<text text-anchor="middle" x="1217.1211" y="-2605.8" font-family="Times,serif" font-size="14.00" fill="#000000">*v</text>
</g>
<!-- 38&#45;&gt;41 -->
<g id="edge38" class="edge">
<title>38&#45;&gt;41</title>
<path fill="none" stroke="#000000" d="M1217.1211,-2663.8314C1217.1211,-2656.131 1217.1211,-2646.9743 1217.1211,-2638.4166"/>
<polygon fill="#000000" stroke="#000000" points="1220.6212,-2638.4132 1217.1211,-2628.4133 1213.6212,-2638.4133 1220.6212,-2638.4132"/>
</g>
<!-- 39 -->
<g id="node40" class="node">
<title>39</title>
<polygon fill="none" stroke="#000000" points="1251.7636,-2772 1182.4786,-2772 1182.4786,-2736 1251.7636,-2736 1251.7636,-2772"/>
<text text-anchor="middle" x="1217.1211" y="-2749.8" font-family="Times,serif" font-size="14.00" fill="#000000">ReadInt()</text>
</g>
<!-- 39&#45;&gt;38 -->
<g id="edge39" class="edge">
<title>39&#45;&gt;38</title>
<path fill="none" stroke="#000000" d="M1217.1211,-2735.8314C1217.1211,-2728.131 1217.1211,-2718.9743 1217.1211,-2710.4166"/>
<polygon fill="#000000" stroke="#000000" points="1220.6212,-2710.4132 1217.1211,-2700.4133 1213.6212,-2710.4133 1220.6212,-2710.4132"/>
</g>
<!-- 40&#45;&gt;39 -->
<g id="edge40" class="edge">
<title>40&#45;&gt;39</title>
<path fill="none" stroke="#000000" d="M1217.1211,-2807.8314C1217.1211,-2800.131 1217.1211,-2790.9743 1217.1211,-2782.4166"/>
<polygon fill="#000000" stroke="#000000" points="1220.6212,-2782.4132 1217.1211,-2772.4133 1213.6212,-2782.4133 1220.6212,-2782.4132"/>
</g>
<!-- 41&#45;&gt;8 -->
<g id="edge41" class="edge">
<title>41&#45;&gt;8</title>
<path fill="none" stroke="#000000" d="M1217.1211,-2591.8314C1217.1211,-2584.131 1217.1211,-2574.9743 1217.1211,-2566.4166"/>
<polygon fill="#000000" stroke="#000000" points="1220.6212,-2566.4132 1217.1211,-2556.4133 1213.6212,-2566.4133 1220.6212,-2566.4132"/>
</g>
<!-- 52 -->
<g id="node53" class="node">
<title>52</title>
<polygon fill="none" stroke="#000000" points="1968.8488,-1620 1691.3934,-1620 1691.3934,-1584 1968.8488,-1584 1968.8488,-1620"/>
<text text-anchor="middle" x="1830.1211" y="-1597.8" font-family="Times,serif" font-size="14.00" fill="#000000">If(VarExp(Var(VarName(&quot;b&quot;))), Write(*v), *v)</text>
</g>
<!-- 42&#45;&gt;52 -->
<g id="edge42" class="edge">
<title>42&#45;&gt;52</title>
<path fill="none" stroke="#000000" d="M1830.1211,-1655.8314C1830.1211,-1648.131 1830.1211,-1638.9743 1830.1211,-1630.4166"/>
<polygon fill="#000000" stroke="#000000" points="1833.6212,-1630.4132 1830.1211,-1620.4133 1826.6212,-1630.4133 1833.6212,-1630.4132"/>
</g>
<!-- 53 -->
<g id="node54" class="node">
<title>53</title>
<polygon fill="none" stroke="#000000" points="742.8488,-1620 465.3934,-1620 465.3934,-1584 742.8488,-1584 742.8488,-1620"/>
<text text-anchor="middle" x="604.1211" y="-1597.8" font-family="Times,serif" font-size="14.00" fill="#000000">If(VarExp(Var(VarName(&quot;b&quot;))), Write(*v), *v)</text>
</g>
<!-- 43&#45;&gt;53 -->
<g id="edge43" class="edge">
<title>43&#45;&gt;53</title>
<path fill="none" stroke="#000000" d="M604.1211,-1655.8314C604.1211,-1648.131 604.1211,-1638.9743 604.1211,-1630.4166"/>
<polygon fill="#000000" stroke="#000000" points="607.6212,-1630.4132 604.1211,-1620.4133 600.6212,-1630.4133 607.6212,-1630.4132"/>
</g>
<!-- 44&#45;&gt;29 -->
<g id="edge44" class="edge">
<title>44&#45;&gt;29</title>
<path fill="none" stroke="#000000" d="M604.1211,-359.8314C604.1211,-352.131 604.1211,-342.9743 604.1211,-334.4166"/>
<polygon fill="#000000" stroke="#000000" points="607.6212,-334.4132 604.1211,-324.4133 600.6212,-334.4133 607.6212,-334.4132"/>
</g>
<!-- 45&#45;&gt;30 -->
<g id="edge45" class="edge">
<title>45&#45;&gt;30</title>
<path fill="none" stroke="#000000" d="M1830.1211,-287.8314C1830.1211,-280.131 1830.1211,-270.9743 1830.1211,-262.4166"/>
<polygon fill="#000000" stroke="#000000" points="1833.6212,-262.4132 1830.1211,-252.4133 1826.6212,-262.4133 1833.6212,-262.4132"/>
</g>
<!-- 46 -->
<g id="node47" class="node">
<title>46</title>
<polygon fill="none" stroke="#000000" points="1251.7636,-2412 1182.4786,-2412 1182.4786,-2376 1251.7636,-2376 1251.7636,-2412"/>
<text text-anchor="middle" x="1217.1211" y="-2389.8" font-family="Times,serif" font-size="14.00" fill="#000000">ReadInt()</text>
</g>
<!-- 47 -->
<g id="node48" class="node">
<title>47</title>
<polygon fill="none" stroke="#000000" points="1244.1211,-2340 1190.1211,-2340 1190.1211,-2304 1244.1211,-2304 1244.1211,-2340"/>
<text text-anchor="middle" x="1217.1211" y="-2317.8" font-family="Times,serif" font-size="14.00" fill="#000000">*v</text>
</g>
<!-- 46&#45;&gt;47 -->
<g id="edge46" class="edge">
<title>46&#45;&gt;47</title>
<path fill="none" stroke="#000000" d="M1217.1211,-2375.8314C1217.1211,-2368.131 1217.1211,-2358.9743 1217.1211,-2350.4166"/>
<polygon fill="#000000" stroke="#000000" points="1220.6212,-2350.4132 1217.1211,-2340.4133 1213.6212,-2350.4133 1220.6212,-2350.4132"/>
</g>
<!-- 49 -->
<g id="node50" class="node">
<title>49</title>
<polygon fill="none" stroke="#000000" points="1244.1211,-2268 1190.1211,-2268 1190.1211,-2232 1244.1211,-2232 1244.1211,-2268"/>
<text text-anchor="middle" x="1217.1211" y="-2245.8" font-family="Times,serif" font-size="14.00" fill="#000000">*v</text>
</g>
<!-- 47&#45;&gt;49 -->
<g id="edge47" class="edge">
<title>47&#45;&gt;49</title>
<path fill="none" stroke="#000000" d="M1217.1211,-2303.8314C1217.1211,-2296.131 1217.1211,-2286.9743 1217.1211,-2278.4166"/>
<polygon fill="#000000" stroke="#000000" points="1220.6212,-2278.4132 1217.1211,-2268.4133 1213.6212,-2278.4133 1220.6212,-2278.4132"/>
</g>
<!-- 48&#45;&gt;46 -->
<g id="edge48" class="edge">
<title>48&#45;&gt;46</title>
<path fill="none" stroke="#000000" d="M1217.1211,-2447.8314C1217.1211,-2440.131 1217.1211,-2430.9743 1217.1211,-2422.4166"/>
<polygon fill="#000000" stroke="#000000" points="1220.6212,-2422.4132 1217.1211,-2412.4133 1213.6212,-2422.4133 1220.6212,-2422.4132"/>
</g>
<!-- 49&#45;&gt;24 -->
<g id="edge49" class="edge">
<title>49&#45;&gt;24</title>
<path fill="none" stroke="#000000" d="M1217.1211,-2231.8314C1217.1211,-2224.131 1217.1211,-2214.9743 1217.1211,-2206.4166"/>
<polygon fill="#000000" stroke="#000000" points="1220.6212,-2206.4132 1217.1211,-2196.4133 1213.6212,-2206.4133 1220.6212,-2206.4132"/>
</g>
<!-- 50&#45;&gt;35 -->
<g id="edge50" class="edge">
<title>50&#45;&gt;35</title>
<path fill="none" stroke="#000000" d="M604.1211,-935.8314C604.1211,-928.131 604.1211,-918.9743 604.1211,-910.4166"/>
<polygon fill="#000000" stroke="#000000" points="607.6212,-910.4132 604.1211,-900.4133 600.6212,-910.4133 607.6212,-910.4132"/>
</g>
<!-- 51&#45;&gt;36 -->
<g id="edge51" class="edge">
<title>51&#45;&gt;36</title>
<path fill="none" stroke="#000000" d="M1830.1211,-863.8314C1830.1211,-856.131 1830.1211,-846.9743 1830.1211,-838.4166"/>
<polygon fill="#000000" stroke="#000000" points="1833.6212,-838.4132 1830.1211,-828.4133 1826.6212,-838.4133 1833.6212,-838.4132"/>
</g>
<!-- 56 -->
<g id="node57" class="node">
<title>56</title>
<polygon fill="none" stroke="#000000" points="1918.3069,-1548 1741.9353,-1548 1741.9353,-1512 1918.3069,-1512 1918.3069,-1548"/>
<text text-anchor="middle" x="1830.1211" y="-1525.8" font-family="Times,serif" font-size="14.00" fill="#000000">VarExp(Var(VarName(&quot;b&quot;)))</text>
</g>
<!-- 52&#45;&gt;56 -->
<g id="edge52" class="edge">
<title>52&#45;&gt;56</title>
<path fill="none" stroke="#000000" d="M1830.1211,-1583.8314C1830.1211,-1576.131 1830.1211,-1566.9743 1830.1211,-1558.4166"/>
<polygon fill="#000000" stroke="#000000" points="1833.6212,-1558.4132 1830.1211,-1548.4133 1826.6212,-1558.4133 1833.6212,-1558.4132"/>
</g>
<!-- 57 -->
<g id="node58" class="node">
<title>57</title>
<polygon fill="none" stroke="#000000" points="692.3069,-1548 515.9353,-1548 515.9353,-1512 692.3069,-1512 692.3069,-1548"/>
<text text-anchor="middle" x="604.1211" y="-1525.8" font-family="Times,serif" font-size="14.00" fill="#000000">VarExp(Var(VarName(&quot;b&quot;)))</text>
</g>
<!-- 53&#45;&gt;57 -->
<g id="edge53" class="edge">
<title>53&#45;&gt;57</title>
<path fill="none" stroke="#000000" d="M604.1211,-1583.8314C604.1211,-1576.131 604.1211,-1566.9743 604.1211,-1558.4166"/>
<polygon fill="#000000" stroke="#000000" points="607.6212,-1558.4132 604.1211,-1548.4133 600.6212,-1558.4133 607.6212,-1558.4132"/>
</g>
<!-- 54&#45;&gt;0 -->
<g id="edge54" class="edge">
<title>54&#45;&gt;0</title>
<path fill="none" stroke="#000000" d="M604.1211,-215.8314C604.1211,-208.131 604.1211,-198.9743 604.1211,-190.4166"/>
<polygon fill="#000000" stroke="#000000" points="607.6212,-190.4132 604.1211,-180.4133 600.6212,-190.4133 607.6212,-190.4132"/>
</g>
<!-- 55&#45;&gt;19 -->
<g id="edge55" class="edge">
<title>55&#45;&gt;19</title>
<path fill="none" stroke="#000000" d="M1830.1211,-143.8314C1830.1211,-136.131 1830.1211,-126.9743 1830.1211,-118.4166"/>
<polygon fill="#000000" stroke="#000000" points="1833.6212,-118.4132 1830.1211,-108.4133 1826.6212,-118.4133 1833.6212,-118.4132"/>
</g>
<!-- 58 -->
<g id="node59" class="node">
<title>58</title>
<polygon fill="none" stroke="#000000" points="1857.1211,-1476 1803.1211,-1476 1803.1211,-1440 1857.1211,-1440 1857.1211,-1476"/>
<text text-anchor="middle" x="1830.1211" y="-1453.8" font-family="Times,serif" font-size="14.00" fill="#000000">true()</text>
</g>
<!-- 56&#45;&gt;58 -->
<g id="edge56" class="edge">
<title>56&#45;&gt;58</title>
<path fill="none" stroke="#000000" d="M1830.1211,-1511.8314C1830.1211,-1504.131 1830.1211,-1494.9743 1830.1211,-1486.4166"/>
<polygon fill="#000000" stroke="#000000" points="1833.6212,-1486.4132 1830.1211,-1476.4133 1826.6212,-1486.4133 1833.6212,-1486.4132"/>
</g>
<!-- 62 -->
<g id="node63" class="node">
<title>62</title>
<polygon fill="none" stroke="#000000" points="631.1211,-1476 577.1211,-1476 577.1211,-1440 631.1211,-1440 631.1211,-1476"/>
<text text-anchor="middle" x="604.1211" y="-1453.8" font-family="Times,serif" font-size="14.00" fill="#000000">false()</text>
</g>
<!-- 57&#45;&gt;62 -->
<g id="edge57" class="edge">
<title>57&#45;&gt;62</title>
<path fill="none" stroke="#000000" d="M604.1211,-1511.8314C604.1211,-1504.131 604.1211,-1494.9743 604.1211,-1486.4166"/>
<polygon fill="#000000" stroke="#000000" points="607.6212,-1486.4132 604.1211,-1476.4133 600.6212,-1486.4133 607.6212,-1486.4132"/>
</g>
<!-- 58&#45;&gt;32 -->
<g id="edge58" class="edge">
<title>58&#45;&gt;32</title>
<path fill="none" stroke="#000000" d="M1830.1211,-1439.8314C1830.1211,-1432.131 1830.1211,-1422.9743 1830.1211,-1414.4166"/>
<polygon fill="#000000" stroke="#000000" points="1833.6212,-1414.4132 1830.1211,-1404.4133 1826.6212,-1414.4133 1833.6212,-1414.4132"/>
</g>
<!-- 59 -->
<g id="node60" class="node">
<title>59</title>
<polygon fill="none" stroke="#000000" points="1251.7636,-3132 1182.4786,-3132 1182.4786,-3096 1251.7636,-3096 1251.7636,-3132"/>
<text text-anchor="middle" x="1217.1211" y="-3109.8" font-family="Times,serif" font-size="14.00" fill="#000000">ReadInt()</text>
</g>
<!-- 61 -->
<g id="node62" class="node">
<title>61</title>
<polygon fill="none" stroke="#000000" points="1244.1211,-3060 1190.1211,-3060 1190.1211,-3024 1244.1211,-3024 1244.1211,-3060"/>
<text text-anchor="middle" x="1217.1211" y="-3037.8" font-family="Times,serif" font-size="14.00" fill="#000000">*v</text>
</g>
<!-- 59&#45;&gt;61 -->
<g id="edge59" class="edge">
<title>59&#45;&gt;61</title>
<path fill="none" stroke="#000000" d="M1217.1211,-3095.8314C1217.1211,-3088.131 1217.1211,-3078.9743 1217.1211,-3070.4166"/>
<polygon fill="#000000" stroke="#000000" points="1220.6212,-3070.4132 1217.1211,-3060.4133 1213.6212,-3070.4133 1220.6212,-3070.4132"/>
</g>
<!-- 60 -->
<g id="node61" class="node">
<title>60</title>
<polygon fill="none" stroke="#000000" points="1329.337,-3204 1104.9052,-3204 1104.9052,-3168 1329.337,-3168 1329.337,-3204"/>
<text text-anchor="middle" x="1217.1211" y="-3181.8" font-family="Times,serif" font-size="14.00" fill="#000000">:=(Var(VarName(&quot;prec&quot;)), ReadInt())</text>
</g>
<!-- 60&#45;&gt;59 -->
<g id="edge60" class="edge">
<title>60&#45;&gt;59</title>
<path fill="none" stroke="#000000" d="M1217.1211,-3167.8314C1217.1211,-3160.131 1217.1211,-3150.9743 1217.1211,-3142.4166"/>
<polygon fill="#000000" stroke="#000000" points="1220.6212,-3142.4132 1217.1211,-3132.4133 1213.6212,-3142.4133 1220.6212,-3142.4132"/>
</g>
<!-- 61&#45;&gt;31 -->
<g id="edge61" class="edge">
<title>61&#45;&gt;31</title>
<path fill="none" stroke="#000000" d="M1217.1211,-3023.8314C1217.1211,-3016.131 1217.1211,-3006.9743 1217.1211,-2998.4166"/>
<polygon fill="#000000" stroke="#000000" points="1220.6212,-2998.4132 1217.1211,-2988.4133 1213.6212,-2998.4133 1220.6212,-2998.4132"/>
</g>
<!-- 63 -->
<g id="node64" class="node">
<title>63</title>
<polygon fill="none" stroke="#000000" points="631.1211,-1404 577.1211,-1404 577.1211,-1368 631.1211,-1368 631.1211,-1404"/>
<text text-anchor="middle" x="604.1211" y="-1381.8" font-family="Times,serif" font-size="14.00" fill="#000000">*v</text>
</g>
<!-- 62&#45;&gt;63 -->
<g id="edge62" class="edge">
<title>62&#45;&gt;63</title>
<path fill="none" stroke="#000000" d="M604.1211,-1439.8314C604.1211,-1432.131 604.1211,-1422.9743 604.1211,-1414.4166"/>
<polygon fill="#000000" stroke="#000000" points="607.6212,-1414.4132 604.1211,-1404.4133 600.6212,-1414.4133 607.6212,-1414.4132"/>
</g>
<!-- 68 -->
<g id="node69" class="node">
<title>68</title>
<polygon fill="none" stroke="#000000" points="1058.8115,-1332 149.4306,-1332 149.4306,-1296 1058.8115,-1296 1058.8115,-1332"/>
<text text-anchor="middle" x="604.1211" y="-1309.8" font-family="Times,serif" font-size="14.00" fill="#000000">Seq(WriteInt(VarExp(Var(VarName(&quot;left&quot;)))), Seq(Write(*v), Seq(WriteInt(VarExp(Var(VarName(&quot;right&quot;)))), If(VarExp(Var(VarName(&quot;b&quot;))), Write(*v), *v))))</text>
</g>
<!-- 63&#45;&gt;68 -->
<g id="edge63" class="edge">
<title>63&#45;&gt;68</title>
<path fill="none" stroke="#000000" d="M604.1211,-1367.8314C604.1211,-1360.131 604.1211,-1350.9743 604.1211,-1342.4166"/>
<polygon fill="#000000" stroke="#000000" points="607.6212,-1342.4132 604.1211,-1332.4133 600.6212,-1342.4133 607.6212,-1342.4132"/>
</g>
<!-- 69 -->
<g id="node70" class="node">
<title>69</title>
<polygon fill="none" stroke="#000000" points="2284.8115,-1260 1375.4306,-1260 1375.4306,-1224 2284.8115,-1224 2284.8115,-1260"/>
<text text-anchor="middle" x="1830.1211" y="-1237.8" font-family="Times,serif" font-size="14.00" fill="#000000">Seq(WriteInt(VarExp(Var(VarName(&quot;left&quot;)))), Seq(Write(*v), Seq(WriteInt(VarExp(Var(VarName(&quot;right&quot;)))), If(VarExp(Var(VarName(&quot;b&quot;))), Write(*v), *v))))</text>
</g>
<!-- 64&#45;&gt;69 -->
<g id="edge64" class="edge">
<title>64&#45;&gt;69</title>
<path fill="none" stroke="#000000" d="M1830.1211,-1295.8314C1830.1211,-1288.131 1830.1211,-1278.9743 1830.1211,-1270.4166"/>
<polygon fill="#000000" stroke="#000000" points="1833.6212,-1270.4132 1830.1211,-1260.4133 1826.6212,-1270.4133 1833.6212,-1270.4132"/>
</g>
<!-- 65&#45;&gt;17 -->
<g id="edge65" class="edge">
<title>65&#45;&gt;17</title>
<path fill="none" stroke="#000000" d="M604.1211,-719.8314C604.1211,-712.131 604.1211,-702.9743 604.1211,-694.4166"/>
<polygon fill="#000000" stroke="#000000" points="607.6212,-694.4132 604.1211,-684.4133 600.6212,-694.4133 607.6212,-694.4132"/>
</g>
<!-- 66&#45;&gt;18 -->
<g id="edge66" class="edge">
<title>66&#45;&gt;18</title>
<path fill="none" stroke="#000000" d="M1830.1211,-647.8314C1830.1211,-640.131 1830.1211,-630.9743 1830.1211,-622.4166"/>
<polygon fill="#000000" stroke="#000000" points="1833.6212,-622.4132 1830.1211,-612.4133 1826.6212,-622.4133 1833.6212,-622.4132"/>
</g>
<!-- 67 -->
<g id="node68" class="node">
<title>67</title>
<polygon fill="none" stroke="#000000" points="2383.2041,-3276 51.038,-3276 51.038,-3240 2383.2041,-3240 2383.2041,-3276"/>
<text text-anchor="middle" x="1217.1211" y="-3253.8" font-family="Times,serif" font-size="14.00" fill="#000000">Seq(:=(Var(VarName(&quot;prec&quot;)), ReadInt()), Seq(:=(Var(VarName(&quot;left&quot;)), ReadInt()), Seq(:=(Var(VarName(&quot;right&quot;)), ReadInt()), Seq(:=(Var(VarName(&quot;b&quot;)), &lt;(VarExp(Var(VarName(&quot;prec&quot;))), *v)), Seq(If(VarExp(Var(VarName(&quot;b&quot;))), Write(*v), *v), Seq(WriteInt(VarExp(Var(VarName(&quot;left&quot;)))), Seq(Write(*v), Seq(WriteInt(VarExp(Var(VarName(&quot;right&quot;)))), If(VarExp(Var(VarName(&quot;b&quot;))), Write(*v), *v)))))))))</text>
</g>
<!-- 67&#45;&gt;60 -->
<g id="edge67" class="edge">
<title>67&#45;&gt;60</title>
<path fill="none" stroke="#000000" d="M1217.1211,-3239.8314C1217.1211,-3232.131 1217.1211,-3222.9743 1217.1211,-3214.4166"/>
<polygon fill="#000000" stroke="#000000" points="1220.6212,-3214.4132 1217.1211,-3204.4133 1213.6212,-3214.4133 1220.6212,-3214.4132"/>
</g>
<!-- 68&#45;&gt;20 -->
<g id="edge68" class="edge">
<title>68&#45;&gt;20</title>
<path fill="none" stroke="#000000" d="M604.1211,-1295.8314C604.1211,-1288.131 604.1211,-1278.9743 604.1211,-1270.4166"/>
<polygon fill="#000000" stroke="#000000" points="607.6212,-1270.4132 604.1211,-1260.4133 600.6212,-1270.4133 607.6212,-1270.4132"/>
</g>
<!-- 69&#45;&gt;21 -->
<g id="edge69" class="edge">
<title>69&#45;&gt;21</title>
<path fill="none" stroke="#000000" d="M1830.1211,-1223.8314C1830.1211,-1216.131 1830.1211,-1206.9743 1830.1211,-1198.4166"/>
<polygon fill="#000000" stroke="#000000" points="1833.6212,-1198.4132 1830.1211,-1188.4133 1826.6212,-1198.4133 1833.6212,-1198.4132"/>
</g>
</g>
</svg>
