<?xml version="1.0" encoding="UTF-8" standalone="no"?>
<!DOCTYPE svg PUBLIC "-//W3C//DTD SVG 1.1//EN"
 "http://www.w3.org/Graphics/SVG/1.1/DTD/svg11.dtd">
<!-- Generated by graphviz version 2.40.1 (20161225.0304)
 -->
<!-- Title: %3 Pages: 1 -->
<svg width="833pt" height="457pt"
 viewBox="0.00 0.00 832.96 457.00" xmlns="http://www.w3.org/2000/svg" xmlns:xlink="http://www.w3.org/1999/xlink">
<g id="graph0" class="graph" transform="scale(1 1) rotate(0) translate(4 453)">
<title>%3</title>
<polygon fill="#ffffff" stroke="transparent" points="-4,4 -4,-453 828.9615,-453 828.9615,4 -4,4"/>
<!-- 0 -->
<g id="node1" class="node">
<title>0</title>
<polygon fill="none" stroke="#000000" points="481.1802,-376 1.6801,-376 1.6801,-340 481.1802,-340 481.1802,-376"/>
<text text-anchor="middle" x="241.4302" y="-353.8" font-family="Times,serif" font-size="14.00" fill="#000000">&lt;(14071t; (*v,*: *v)) | [\(&#39;1; (&#39;2,&#39;3)) &#45;&gt; (OpExp(&#39;1, 14072t, 14073t); (&#39;2,&#39;3))].14074&gt;</text>
</g>
<!-- 1 -->
<g id="node2" class="node">
<title>1</title>
<polygon fill="none" stroke="#000000" points="482.7905,-290 .0698,-290 .0698,-254 482.7905,-254 482.7905,-290"/>
<text text-anchor="middle" x="241.4302" y="-267.8" font-family="Times,serif" font-size="14.00" fill="#000000">&lt;(14076v; (*v,*: *v)) | [\(&#39;1; (&#39;2,&#39;3)) &#45;&gt; (OpExp(&#39;1, 14072t, 14073t); (&#39;2,&#39;3))].14074&gt;</text>
</g>
<!-- 0&#45;&gt;1 -->
<g id="edge1" class="edge">
<title>0&#45;&gt;1</title>
<path fill="none" stroke="#000000" d="M241.4302,-339.7616C241.4302,-328.3597 241.4302,-313.4342 241.4302,-300.494"/>
<polygon fill="#000000" stroke="#000000" points="244.9303,-300.2121 241.4302,-290.2121 237.9303,-300.2121 244.9303,-300.2121"/>
<text text-anchor="middle" x="267.4785" y="-310.8" font-family="Times,serif" font-size="14.00" fill="#000000">transitive</text>
</g>
<!-- 2 -->
<g id="node3" class="node">
<title>2</title>
<polygon fill="none" stroke="#000000" points="194.0429,-36 4.8175,-36 4.8175,0 194.0429,0 194.0429,-36"/>
<text text-anchor="middle" x="99.4302" y="-13.8" font-family="Times,serif" font-size="14.00" fill="#000000">&lt;(14076v; (*v,*: *v)) | 14074&gt;</text>
</g>
<!-- 1&#45;&gt;2 -->
<g id="edge2" class="edge">
<title>1&#45;&gt;2</title>
<path fill="none" stroke="#000000" d="M185.41,-253.9184C144.3302,-237.368 91.5196,-208.4331 66.4302,-163 45.619,-125.3141 65.9205,-75.2024 82.6055,-44.8418"/>
<polygon fill="#000000" stroke="#000000" points="85.6855,-46.5064 87.618,-36.0893 79.6111,-43.0276 85.6855,-46.5064"/>
</g>
<!-- 3 -->
<g id="node4" class="node">
<title>3</title>
<polygon fill="none" stroke="#000000" points="810.0429,-36 648.8174,-36 648.8174,0 810.0429,0 810.0429,-36"/>
<text text-anchor="middle" x="729.4302" y="-13.8" font-family="Times,serif" font-size="14.00" fill="#000000">&lt;(*v; (*v,*: *v)) | 14074&gt;</text>
</g>
<!-- 1&#45;&gt;3 -->
<g id="edge3" class="edge">
<title>1&#45;&gt;3</title>
<path fill="none" stroke="#000000" d="M483.0097,-262.8802C622.7789,-255.0554 775.3997,-241.0922 797.4302,-217 840.62,-169.7683 826.206,-130.6602 798.4302,-73 792.5495,-60.7923 782.4952,-50.4545 771.8533,-42.1518"/>
<polygon fill="#000000" stroke="#000000" points="773.8085,-39.2461 763.6603,-36.2021 769.6952,-44.9102 773.8085,-39.2461"/>
</g>
<!-- 4 -->
<g id="node5" class="node">
<title>4</title>
<polygon fill="none" stroke="#000000" points="253.4328,-163 67.4276,-163 67.4276,-127 253.4328,-127 253.4328,-163"/>
<text text-anchor="middle" x="160.4302" y="-140.8" font-family="Times,serif" font-size="14.00" fill="#000000">&lt;(14073t; (*v,*: *v)) | 14074&gt;</text>
</g>
<!-- 1&#45;&gt;4 -->
<g id="edge4" class="edge">
<title>1&#45;&gt;4</title>
<path fill="none" stroke="#000000" d="M208.5454,-253.8082C194.9024,-244.568 180.2322,-232.0842 171.4302,-217 163.7616,-203.8582 160.8718,-187.1636 159.9626,-173.1594"/>
<polygon fill="#000000" stroke="#000000" points="163.4574,-172.9486 159.607,-163.0782 156.4617,-173.1954 163.4574,-172.9486"/>
</g>
<!-- 7 -->
<g id="node8" class="node">
<title>7</title>
<polygon fill="none" stroke="#000000" points="788.3813,-217 180.479,-217 180.479,-181 788.3813,-181 788.3813,-217"/>
<text text-anchor="middle" x="484.4302" y="-194.8" font-family="Times,serif" font-size="14.00" fill="#000000">&lt;(14073t; (*v,*: *v)) | [\(&#39;8428; (&#39;8429,&#39;8430)) &#45;&gt; (OpExp(14076v, 14072t, &#39;8428); (&#39;8429,&#39;8430))].14074&gt;</text>
</g>
<!-- 1&#45;&gt;7 -->
<g id="edge5" class="edge">
<title>1&#45;&gt;7</title>
<path fill="none" stroke="#000000" d="M301.4976,-253.9551C335.6699,-243.6893 378.6405,-230.7804 414.3466,-220.0539"/>
<polygon fill="#000000" stroke="#000000" points="415.6414,-223.3195 424.2116,-217.0904 413.6274,-216.6155 415.6414,-223.3195"/>
</g>
<!-- 5 -->
<g id="node6" class="node">
<title>5</title>
<polygon fill="none" stroke="#000000" points="496.0429,-36 306.8175,-36 306.8175,0 496.0429,0 496.0429,-36"/>
<text text-anchor="middle" x="401.4302" y="-13.8" font-family="Times,serif" font-size="14.00" fill="#000000">&lt;(14078v; (*v,*: *v)) | 14074&gt;</text>
</g>
<!-- 4&#45;&gt;5 -->
<g id="edge6" class="edge">
<title>4&#45;&gt;5</title>
<path fill="none" stroke="#000000" d="M130.4612,-126.699C124.7482,-121.7153 119.5536,-115.7857 116.3335,-109 109.474,-94.545 106.1475,-85.3388 116.3335,-73 139.2058,-45.2935 224.9998,-31.3894 296.5522,-24.5072"/>
<polygon fill="#000000" stroke="#000000" points="296.9113,-27.989 306.546,-23.582 296.2659,-21.0188 296.9113,-27.989"/>
<text text-anchor="middle" x="142.4785" y="-86.8" font-family="Times,serif" font-size="14.00" fill="#000000">transitive</text>
</g>
<!-- 6 -->
<g id="node7" class="node">
<title>6</title>
<polygon fill="none" stroke="#000000" points="788.9917,-109 177.8686,-109 177.8686,-73 788.9917,-73 788.9917,-109"/>
<text text-anchor="middle" x="483.4302" y="-86.8" font-family="Times,serif" font-size="14.00" fill="#000000">&lt;(14078v; (*v,*: *v)) | [\(&#39;8428; (&#39;8429,&#39;8430)) &#45;&gt; (OpExp(14076v, 14072t, &#39;8428); (&#39;8429,&#39;8430))].14074&gt;</text>
</g>
<!-- 6&#45;&gt;2 -->
<g id="edge7" class="edge">
<title>6&#45;&gt;2</title>
<path fill="none" stroke="#000000" d="M388.5088,-72.9551C332.557,-62.3184 261.6789,-48.8442 204.1095,-37.9"/>
<polygon fill="#000000" stroke="#000000" points="204.7349,-34.4563 194.2572,-36.027 203.4276,-41.3331 204.7349,-34.4563"/>
</g>
<!-- 6&#45;&gt;3 -->
<g id="edge8" class="edge">
<title>6&#45;&gt;3</title>
<path fill="none" stroke="#000000" d="M544.2392,-72.9551C578.8334,-62.6893 622.3344,-49.7804 658.4814,-39.0539"/>
<polygon fill="#000000" stroke="#000000" points="659.8771,-42.2907 668.4681,-36.0904 657.8856,-35.5799 659.8771,-42.2907"/>
</g>
<!-- 6&#45;&gt;5 -->
<g id="edge9" class="edge">
<title>6&#45;&gt;5</title>
<path fill="none" stroke="#000000" d="M463.1605,-72.9551C453.0089,-63.9177 440.5564,-52.8319 429.5011,-42.9899"/>
<polygon fill="#000000" stroke="#000000" points="431.5472,-40.1255 421.7509,-36.0904 426.8927,-45.3539 431.5472,-40.1255"/>
</g>
<!-- 7&#45;&gt;6 -->
<g id="edge10" class="edge">
<title>7&#45;&gt;6</title>
<path fill="none" stroke="#000000" d="M484.2605,-180.6793C484.1044,-163.821 483.8706,-138.5651 483.6908,-119.147"/>
<polygon fill="#000000" stroke="#000000" points="487.1898,-119.0173 483.5973,-109.0502 480.1901,-119.0822 487.1898,-119.0173"/>
<text text-anchor="middle" x="509.4785" y="-140.8" font-family="Times,serif" font-size="14.00" fill="#000000">transitive</text>
</g>
<!-- 8 -->
<g id="node9" class="node">
<title>8</title>
<polygon fill="none" stroke="#000000" points="405.1979,-449 77.6625,-449 77.6625,-413 405.1979,-413 405.1979,-449"/>
<text text-anchor="middle" x="241.4302" y="-426.8" font-family="Times,serif" font-size="14.00" fill="#000000">&lt;(OpExp(14071t, 14072t, 14073t); (*v,*: *v)) | 14074&gt;</text>
</g>
<!-- 8&#45;&gt;0 -->
<g id="edge11" class="edge">
<title>8&#45;&gt;0</title>
<path fill="none" stroke="#000000" d="M241.4302,-412.9551C241.4302,-404.8828 241.4302,-395.1764 241.4302,-386.1817"/>
<polygon fill="#000000" stroke="#000000" points="244.9303,-386.0903 241.4302,-376.0904 237.9303,-386.0904 244.9303,-386.0903"/>
</g>
</g>
</svg>
